<?xml version="1.0" encoding="UTF-8"?>
<svg xmlns="http://www.w3.org/2000/svg" width="353.33096mm" height="326.1843mm" viewBox="0 0 353.33096 326.1843" version="1.1" id="svg5" xml:space="preserve"><defs id="defs2"/><g id="layer1"><path style="fill:#000000" d="m 79.65810000000056 326.09599999999955 c 0.303,-0.303 7.382,-2.448 11.149,-3.378 14.295,-3.531 26.816,-4.965 58.853,-6.74 5.311,-0.295 13.348,-0.769 17.859,-1.055 24.283,-1.536 32.221,-1.446 57.944,0.658 11.951,0.977 17.942,1.572 30.824,3.06 17.888,2.066 34.082,4.308 35.322,4.889 0.335,0.157 -1.042,-0.02 -6.35,-0.799 -6.316,-0.931 -25.019,-3.076 -39.158,-4.491 -4.431,-0.443 -12.261,-1.038 -19.844,-1.507 -9.896,-0.611 -40.821,-0.178 -59.531,0.835 -34.46,1.865 -53.444,3.457 -67.866,5.691 -3.274,0.508 -8.751,1.341 -12.171,1.852 -3.42,0.51 -6.438,0.978 -6.707,1.039 -0.269,0.06 -0.415,0.04 -0.324,-0.05 z m 212.684,-2.364 c 0.257,-0.07 0.614,-0.06 0.793,0.01 0.179,0.07 -0.03,0.127 -0.468,0.122 -0.436,-0.01 -0.583,-0.07 -0.325,-0.132 z m 39.748,-4.87 c -7.427,-0.55 -13.723,-1.399 -28.31,-3.817 -5.676,-0.941 -12.045,-1.948 -14.155,-2.237 l -3.837,-0.527 6.615,0.12 c 11.996,0.217 18.6,0.977 31.088,3.581 3.42,0.713 8.242,1.71 10.716,2.216 4.254,0.87 4.397,0.919 2.646,0.9 -1.019,-0.01 -3.162,-0.117 -4.763,-0.236 z m -320.471,-4.92 c 0.257,-0.07 0.614,-0.06 0.793,0.01 0.179,0.07 -0.03,0.128 -0.468,0.122 -0.436,-0.01 -0.583,-0.06 -0.325,-0.131 z m 2.574,-0.361 c 6.262,-0.928 14.675,-1.877 20.902,-2.358 4.808,-0.371 30.53,-1.783 38.762,-2.129 17.577,-0.737 38.629,-0.607 48.628,0.299 2.433,0.221 4.966,0.189 11.509,-0.147 4.615,-0.237 10.593,-0.539 13.285,-0.673 8.575,-0.424 44.047,-0.871 47.228,-0.595 l 2.91,0.253 -2.116,0.04 c -5.981,0.107 -41.646,1.935 -53.049,2.718 -10.136,0.696 -15.897,0.724 -25.268,0.123 -13.321,-0.855 -37.067,-0.59 -69.056,0.769 -14.232,0.604 -19.79,0.905 -27.08,1.466 -6.909,0.532 -9.198,0.613 -6.655,0.236 z m 207.166,-4.561 c -0.167,-0.183 -20.301,-3.367 -27.056,-4.278 -4.388,-0.593 -5.89,-0.67 -12.921,-0.67 -6.124,0 -8.727,-0.107 -11.306,-0.464 -2.845,-0.393 -5.171,-0.455 -15.404,-0.409 -7.639,0.03 -12.321,0.154 -12.783,0.33 -0.919,0.35 -14.443,0.365 -16.835,0.02 -2.479,-0.358 -13.801,-1 -18.016,-1.022 -1.977,-0.01 -4.418,-0.151 -5.423,-0.313 -2.149,-0.347 -9.534,-0.764 -10.243,-0.578 -0.422,0.11 -0.466,0.301 -0.317,1.379 0.132,0.964 0.08,1.284 -0.211,1.398 -0.746,0.286 -2.804,0.465 -12.092,1.05 -8.717,0.55 -10.793,0.583 -28.84,0.461 -10.696,-0.07 -26.313,-0.131 -34.705,-0.131 -8.391,0 -15.235,-0.02 -15.207,-0.05 0.03,-0.03 2.131,-0.243 4.674,-0.478 4.404,-0.407 17.325,-0.895 24.27,-0.917 l 3.241,-0.01 v -0.819 c 0,-0.451 0.202,-1.161 0.449,-1.58 0.247,-0.418 0.355,-0.853 0.241,-0.966 -0.228,-0.226 -24.086,-0.216 -26.884,0.01 -2.581,0.208 -0.715,-0.201 4.63,-1.018 7.462,-1.139 7.202,-1.065 7.065,-2.003 -0.09,-0.643 0,-0.83 0.431,-0.945 0.447,-0.117 0.521,-0.287 0.397,-0.91 -0.09,-0.459 -0.04,-0.766 0.126,-0.766 0.154,0 0.352,-0.227 0.44,-0.505 0.203,-0.64 0.896,-0.915 1.352,-0.536 0.492,0.409 2.228,-1.343 2.228,-2.248 0,-0.92 1.437,-2.465 2.588,-2.783 0.722,-0.2 1.139,-0.174 1.698,0.105 0.635,0.317 0.741,0.317 0.741,0 0,-0.564 1.231,-1.257 1.923,-1.083 0.333,0.08 1.091,0.568 1.686,1.076 0.944,0.809 1.205,0.905 2.068,0.765 0.858,-0.139 1.064,-0.07 1.565,0.563 0.505,0.634 0.697,0.701 1.545,0.542 0.532,-0.1 1.17,-0.405 1.418,-0.679 0.4,-0.442 0.414,-0.679 0.126,-2.143 -0.347,-1.761 -1.591,-5.111 -2.301,-6.195 -0.634,-0.968 -1.073,-1.124 -4.373,-1.56 -4.14,-0.547 -4.639,-0.521 -5.714,0.298 -2.005,1.53 -4.734,2.059 -6.674,1.295 -0.51,-0.201 -1.85,-0.701 -2.978,-1.113 -1.129,-0.411 -2.481,-1.091 -3.005,-1.509 -1.153,-0.922 -1.941,-2.556 -1.949,-4.042 0,-1.05 -0.07,-1.135 -1.407,-1.891 -1.95,-1.1 -3.033,-2.066 -3.631,-3.238 -1.702,-3.336 -0.879,-7.599 2.05,-10.617 1.144,-1.178 1.184,-1.272 0.899,-2.09 -0.466,-1.338 -0.357,-3.928 0.219,-5.198 1.075,-2.368 4.062,-4.554 7.038,-5.152 l 1.441,-0.289 v -1.388 c 0,-1.284 0.08,-1.46 1.059,-2.345 0.831,-0.751 1.279,-0.957 2.08,-0.957 0.994,0 1.044,-0.05 1.871,-1.726 1.545,-3.138 5.095,-5.146 9.475,-5.361 2.762,-0.135 4.49,0.195 5.918,1.129 0.738,0.484 1.19,0.595 1.989,0.487 1.309,-0.175 2.919,0.254 4.193,1.119 0.547,0.371 1.018,0.639 1.048,0.595 0.03,-0.04 0.389,-0.674 0.798,-1.402 0.409,-0.728 1.204,-1.943 1.767,-2.701 l 1.023,-1.377 v -4.103 -4.103 l -1.654,-1.365 c -0.909,-0.751 -1.767,-1.602 -1.906,-1.891 -0.286,-0.598 -0.936,0.06 7.537,-7.634 2.978,-2.705 8.966,-8.212 13.305,-12.238 4.34,-4.026 9.995,-9.19 12.568,-11.477 2.573,-2.287 5.868,-5.238 7.324,-6.559 4.35,-3.948 5.164,-4.593 5.906,-4.679 0.581,-0.07 0.723,-0.232 0.79,-0.924 0.08,-0.803 0.03,-0.847 -0.926,-0.926 -0.794,-0.06 -1.008,-0.193 -1.008,-0.599 0,-0.41 0.189,-0.518 0.926,-0.529 0.898,-0.01 0.929,-0.05 1.008,-1.138 0.11,-1.533 0.728,-1.496 0.961,0.06 0.171,1.139 0.205,1.175 0.956,1.025 0.661,-0.132 0.779,-0.07 0.779,0.389 0,0.397 -0.196,0.567 -0.727,0.628 -0.658,0.08 -0.725,0.181 -0.697,1.085 0.02,0.551 0.09,1.058 0.157,1.127 0.25,0.25 2.554,-0.727 7.914,-3.356 l 5.457,-2.677 0.165,-21.331 c 0.09,-11.732 0.239,-23.801 0.331,-26.821 0.129,-4.246 0.09,-5.49 -0.157,-5.49 -0.657,0 -2.109,-0.86 -2.261,-1.338 -0.258,-0.811 0.311,-1.494 2.192,-2.631 6.869,-4.153 9.192,-5.771 9.357,-6.518 0.09,-0.417 0.181,-6.625 0.198,-13.797 0.02,-10.222 -0.04,-13.061 -0.299,-13.141 -0.182,-0.06 -0.65,-0.171 -1.04,-0.256 -0.888,-0.194 -1.592,-0.878 -1.484,-1.443 0.05,-0.237 2.343,-2.118 5.106,-4.179 4.887,-3.646 5.031,-3.78 5.24,-4.895 0.769,-4.1 4.126,-17.413 6.928,-27.473 1.518,-5.452 5.066,-19.256 5.568,-21.663 0.279,-1.342 0.377,-3.118 0.326,-5.925 l -0.07,-4.009 -4.035,-1.197 -4.034,-1.196 v -1.507 c 0,-1.289 0.09,-1.581 0.657,-2.023 l 0.657,-0.517 2.947,0.895 c 1.62,0.492 3.167,0.894 3.436,0.894 0.446,0 0.495,-0.294 0.563,-3.345 0.07,-3.278 0.09,-3.356 0.779,-3.871 l 0.705,-0.526 1.213,0.587 1.213,0.588 v 3.913 c 0,2.812 0.09,3.987 0.331,4.177 0.182,0.146 1.045,0.466 1.918,0.712 0.874,0.245 2.392,0.682 3.374,0.969 l 1.786,0.523 v 1.582 c 0,1.432 -0.06,1.61 -0.664,1.884 -0.553,0.252 -1.117,0.162 -3.374,-0.54 -1.49,-0.463 -2.876,-0.84 -3.081,-0.837 -0.31,0 -0.341,0.668 -0.191,4.04 0.146,3.253 0.359,4.783 1.1,7.895 0.505,2.124 1.626,7.184 2.49,11.245 0.865,4.062 2.585,12.087 3.821,17.836 1.237,5.748 2.529,11.804 2.872,13.459 l 0.623,3.009 4.75,2.229 c 2.613,1.226 4.904,2.381 5.091,2.567 0.568,0.563 0.06,1.232 -1.502,1.981 l -1.484,0.712 -0.08,10.18 c -0.05,5.599 0,12.449 0.09,15.221 l 0.176,5.041 2.288,1.475 c 1.259,0.812 3.39,2.103 4.736,2.869 2.027,1.155 2.447,1.503 2.447,2.033 0,0.531 -0.292,0.773 -1.72,1.42 l -1.719,0.78 v 4.166 c 0,2.291 0.124,4.582 0.276,5.091 0.177,0.595 0.268,5.89 0.254,14.881 -0.01,9.768 0.06,13.956 0.262,13.956 0.156,0 2.631,-1.025 5.5,-2.279 14.904,-6.513 31.566,-13.555 44.508,-18.811 7.862,-3.194 12.126,-5.355 12.708,-6.442 0.141,-0.263 0.256,-1.191 0.256,-2.062 0,-1.981 0.14,-2.342 1.098,-2.838 l 0.77,-0.398 -0.03,-6.324 -0.03,-6.324 -1.504,-0.291 c -0.827,-0.16 -2.069,-0.416 -2.76,-0.57 l -1.257,-0.28 v -1.681 -1.681 l 1.257,-0.564 c 0.984,-0.441 1.557,-0.53 2.642,-0.407 l 1.386,0.156 -0.164,-1.936 -0.163,-1.937 1.065,-0.843 c 1.267,-1.004 1.528,-1.028 2.67,-0.246 0.872,0.598 0.874,0.603 0.943,3.054 0.04,1.35 0.177,2.553 0.31,2.672 0.132,0.12 1.072,0.421 2.087,0.669 1.016,0.249 1.999,0.577 2.183,0.731 0.188,0.156 0.336,0.852 0.336,1.582 0,1.238 -0.05,1.324 -0.918,1.688 -0.504,0.211 -1.516,0.383 -2.248,0.383 h -1.332 v 4.726 c 0,6.418 0.1,7.03 1.246,7.707 0.839,0.495 0.895,0.606 0.699,1.395 -0.47,1.903 -0.309,2.281 2.909,6.811 6.989,9.841 14.289,19.884 23.458,32.278 5.33,7.203 11.298,15.299 13.262,17.992 3.525,4.831 8.395,11.351 9.536,12.765 0.791,0.981 0.459,1.878 -1.104,2.978 l -1.19,0.838 0.08,9.9 c 0.05,5.444 0.19,12.909 0.318,16.587 l 0.234,6.689 0.806,0.806 c 0.444,0.444 0.807,0.916 0.807,1.051 0,0.679 0.544,0.07 1.294,-1.459 1.551,-3.149 4.567,-5.044 7.766,-4.878 0.941,0.05 1.343,-0.101 2.373,-0.888 1.94,-1.481 3.561,-1.926 6.955,-1.91 2.334,0.01 3.251,0.133 4.628,0.619 2.234,0.789 4.001,2.107 4.772,3.559 0.61,1.149 0.628,1.16 1.56,0.903 1.651,-0.456 4.805,-0.116 6.465,0.696 1.857,0.908 3.639,2.626 4.512,4.348 0.632,1.248 1.283,4.337 1.144,5.431 -0.05,0.396 0.272,0.574 1.692,0.936 2.034,0.519 3.793,1.591 4.421,2.694 0.408,0.718 0.552,0.773 2.027,0.778 6.066,0.02 10.969,3.647 10.978,8.117 0,1.771 -0.337,2.633 -1.518,3.849 -0.527,0.543 -0.907,1.031 -0.844,1.085 0.06,0.05 0.786,0.523 1.605,1.04 2.488,1.572 3.67,3.616 3.67,6.348 0,2.393 -0.458,3.539 -2.133,5.342 -1.369,1.472 -1.47,1.666 -1.255,2.395 0.128,0.437 0.162,1.389 0.07,2.117 -0.315,2.605 -1.618,4.598 -4.003,6.124 -0.761,0.486 -1.54,1.211 -1.732,1.611 -0.383,0.799 -1.331,1.351 -2.707,1.574 -0.635,0.103 -1.326,-0.05 -2.384,-0.537 -1.172,-0.537 -1.631,-0.628 -2.158,-0.427 -0.368,0.139 -1.993,0.254 -3.611,0.254 -1.925,0 -3.478,0.15 -4.493,0.435 -1.459,0.409 -1.644,0.407 -3.119,-0.04 -1.984,-0.601 -5.478,-0.422 -7.274,0.373 -1.519,0.671 -3.971,3.11 -4.633,4.608 -0.557,1.257 -1.168,7.472 -0.879,8.921 0.174,0.867 0.694,0.929 0.845,0.101 0.249,-1.365 2.385,-2.474 3.652,-1.896 0.498,0.226 0.706,0.224 0.852,-0.01 0.106,-0.172 0.565,-0.387 1.021,-0.478 1.149,-0.23 2.171,0.763 2.03,1.973 l -0.1,0.84 0.823,-0.426 c 0.453,-0.234 1.11,-0.371 1.46,-0.304 0.437,0.08 0.72,-0.03 0.902,-0.372 0.145,-0.272 0.439,-0.495 0.652,-0.495 0.283,0 0.387,-0.322 0.387,-1.199 0,-1.332 0.609,-1.89 1.192,-1.093 0.455,0.622 0.533,0.57 0.924,-0.614 0.628,-1.905 1.904,-2.372 2.245,-0.822 0.117,0.533 0.314,0.72 0.744,0.705 0.496,-0.02 0.578,0.112 0.544,0.85 -0.03,0.743 0.03,0.846 0.464,0.709 0.657,-0.208 0.934,0.49 0.538,1.358 -0.24,0.528 -0.222,0.682 0.1,0.805 0.674,0.259 0.471,1.359 -0.332,1.802 l -0.728,0.401 1.058,-0.02 c 2.843,-0.04 4.069,0.08 4.528,0.422 0.827,0.627 1.36,0.47 1.677,-0.492 0.167,-0.506 0.574,-1.015 0.947,-1.185 0.359,-0.164 0.654,-0.516 0.654,-0.782 0,-0.266 0.157,-0.7 0.35,-0.963 0.301,-0.412 0.427,-0.431 0.904,-0.133 0.429,0.268 0.64,0.276 0.931,0.03 0.492,-0.408 0.718,-0.153 0.756,0.852 0.02,0.448 0.08,0.607 0.151,0.353 0.07,-0.255 0.295,-0.463 0.507,-0.463 0.543,0 0.775,0.77 0.409,1.358 -0.251,0.402 -0.233,0.494 0.1,0.494 0.621,0 0.813,0.817 0.283,1.205 -0.427,0.312 -0.421,0.347 0.09,0.508 0.837,0.266 1.453,0.965 1.062,1.207 -0.661,0.408 1.012,0.89 5.175,1.489 2.328,0.336 4.591,0.626 5.027,0.645 0.587,0.03 0.448,0.1 -0.529,0.278 -1.504,0.277 -37.357,-0.15 -50.112,-0.597 -8.392,-0.294 -9.364,-0.387 -12.206,-1.167 -1.877,-0.514 -3.695,-0.387 -3.695,0.258 0,0.207 0.654,0.581 1.521,0.869 1.463,0.487 1.9,0.91 2.273,2.2 0.102,0.353 1.5,0.481 9.606,0.88 5.217,0.257 12.463,0.636 16.101,0.842 3.638,0.206 9.114,0.501 12.17,0.655 12.17,0.615 4.93,0.551 -18.164,-0.161 -18.182,-0.56 -24.866,-0.504 -49.834,0.414 -18.839,0.694 -38.569,1.192 -38.764,0.98 z m 17.995,-2.176 c 6.184,-0.215 19.753,-0.579 30.153,-0.808 10.399,-0.228 19.001,-0.474 19.116,-0.544 0.114,-0.07 0.208,-0.292 0.208,-0.491 0,-0.243 -0.503,-0.425 -1.52,-0.552 -2.88,-0.36 -23.854,0.123 -46.985,1.082 -12.923,0.535 -17.351,0.508 -22.233,-0.136 -3.747,-0.495 -10.722,-1.347 -18.427,-2.252 -2.064,-0.243 -3.605,-0.303 -4.101,-0.161 l -0.794,0.227 0.662,0.165 c 0.787,0.196 3.904,0.661 11.774,1.755 8.354,1.161 14.795,2.14 14.923,2.268 0.06,0.06 1.432,0.05 3.045,-0.03 1.614,-0.08 7.994,-0.312 14.179,-0.527 z m -204.25,-2.47 c 0,-0.09 0.244,-0.453 0.532,-0.798 l 0.523,-0.628 0.546,0.694 c 0.661,0.841 0.887,0.859 1.643,0.132 0.402,-0.388 0.481,-0.6 0.253,-0.684 -0.182,-0.07 -0.331,-0.271 -0.331,-0.455 0,-0.571 -0.967,-1.242 -1.824,-1.267 -0.642,-0.02 -0.758,-0.1 -0.533,-0.368 0.426,-0.514 0.05,-0.897 -0.879,-0.897 -0.787,0 -1.791,0.62 -1.791,1.106 0,0.126 0.318,0.35 0.706,0.498 l 0.706,0.268 -0.574,0.402 c -0.68,0.477 -0.722,0.957 -0.156,1.82 0.365,0.558 1.153,0.676 1.179,0.177 z m 195.386,0.09 c 3.202,-0.08 8.917,-0.273 12.7,-0.418 3.784,-0.146 14.347,-0.488 23.474,-0.762 9.128,-0.274 16.718,-0.574 16.868,-0.666 0.149,-0.09 0.272,-0.298 0.272,-0.455 0,-0.386 -13.989,-0.151 -34.661,0.583 -20.28,0.72 -24.657,0.64 -36.115,-0.655 -9.365,-1.059 -13.902,-1.29 -14.459,-0.735 -0.266,0.265 -0.256,0.331 0.05,0.331 1.506,0 24.096,2.85 24.314,3.068 0.06,0.06 0.479,0.06 0.926,-0.01 0.447,-0.07 3.432,-0.195 6.633,-0.28 z m -161.962,-0.262 c 0.194,-0.506 -1.672,-3.044 -2.238,-3.044 -0.523,0 -2.09,0.533 -2.09,0.711 0,0.191 1.154,1.122 1.404,1.132 0.118,0 0.141,-0.11 0.05,-0.256 -0.09,-0.145 -0.05,-0.264 0.09,-0.264 0.142,0 0.476,-0.08 0.743,-0.178 0.463,-0.169 0.464,-0.153 0.02,0.352 -0.574,0.655 -0.577,0.849 -0.03,1.458 0.528,0.584 1.828,0.64 2.039,0.09 z m -5.214,-0.729 c -0.214,-0.516 -0.533,-0.845 -0.794,-0.823 -0.515,0.04 -0.511,0.06 -0.172,-0.832 0.236,-0.621 0.21,-0.679 -0.243,-0.535 -0.279,0.09 -0.583,0.04 -0.677,-0.115 -0.09,-0.151 -0.461,-0.275 -0.816,-0.275 -0.355,0 -0.646,-0.119 -0.646,-0.264 0,-0.538 -0.524,-0.244 -0.681,0.381 -0.222,0.884 0.06,1.276 0.67,0.947 0.387,-0.207 0.574,-0.126 0.916,0.396 0.237,0.361 0.559,0.657 0.717,0.657 0.157,0 0.521,0.297 0.807,0.661 0.286,0.364 0.69,0.662 0.898,0.662 0.324,0 0.327,-0.124 0.02,-0.86 z m -8.639,0.339 c 0,-0.141 0.183,-0.186 0.406,-0.1 0.425,0.162 1.446,-0.584 1.446,-1.057 0,-0.15 -0.259,-0.548 -0.576,-0.885 -0.699,-0.744 -0.259,-0.824 1.196,-0.215 1.472,0.615 1.761,0.529 1.761,-0.52 0,-0.672 -0.155,-1 -0.577,-1.226 -0.529,-0.283 -0.54,-0.335 -0.132,-0.634 0.518,-0.379 0.595,-1.188 0.114,-1.203 -0.182,-0.01 0.08,-0.189 0.587,-0.408 1.204,-0.523 1.86,-1.136 1.86,-1.739 0,-0.268 -0.05,-0.488 -0.1,-0.488 -0.06,0 -0.519,-0.175 -1.032,-0.39 -0.87,-0.363 -0.98,-0.352 -1.649,0.175 -0.62,0.487 -0.698,0.704 -0.578,1.597 0.108,0.805 0.04,1.07 -0.302,1.198 -0.584,0.219 -1.083,0.882 -1.093,1.455 0,0.254 -0.173,0.463 -0.373,0.463 -0.608,0 -1.072,0.735 -0.727,1.151 0.228,0.274 0.116,0.627 -0.478,1.511 -0.426,0.634 -0.716,1.247 -0.645,1.362 0.183,0.297 0.892,0.26 0.892,-0.05 z m 34.925,-0.505 c 0,-0.273 -0.19,-0.654 -0.421,-0.846 -0.375,-0.312 -0.354,-0.373 0.199,-0.58 l 0.618,-0.232 -0.742,-0.642 c -1.252,-1.084 -2.667,-0.618 -2.625,0.865 0.02,0.701 -0.05,0.778 -0.62,0.67 -0.403,-0.08 -0.643,0 -0.643,0.207 0,0.232 0.287,0.283 0.964,0.174 0.725,-0.118 1.127,-0.03 1.623,0.362 0.848,0.667 1.647,0.677 1.647,0.02 z m -19.72,-1.421 c 0.51,-0.934 0.51,-0.967 0.03,-1.503 -0.273,-0.302 -0.626,-0.551 -0.786,-0.554 -0.159,0 -0.584,-0.232 -0.944,-0.509 -0.649,-0.499 -0.651,-0.507 -0.144,-1.067 0.424,-0.468 0.456,-0.652 0.189,-1.079 -0.278,-0.445 -0.249,-0.514 0.211,-0.514 1.241,0 0.288,-1.532 -1.094,-1.756 -0.76,-0.123 -1.079,-0.04 -1.52,0.403 -0.718,0.718 -0.968,0.704 -1.774,-0.102 -0.802,-0.803 -0.89,-0.807 -2.077,-0.107 -1.095,0.646 -1.15,0.909 -0.366,1.743 0.753,0.802 1.258,0.773 1.985,-0.115 0.464,-0.567 0.598,-0.627 0.605,-0.271 0.01,0.457 1.597,1.488 1.597,1.036 0,-0.132 0.236,-0.302 0.525,-0.378 0.419,-0.109 0.479,-0.05 0.301,0.3 -0.123,0.241 -0.24,0.988 -0.261,1.661 -0.04,1.405 0.401,1.962 1.341,1.681 0.586,-0.175 0.589,-0.167 0.09,0.211 -0.502,0.384 -0.496,0.413 0.264,1.219 0.429,0.454 0.899,0.787 1.045,0.741 0.146,-0.05 0.499,-0.514 0.786,-1.04 z m 116.822,-3.353 v -3.948 l -1.654,-0.168 c -0.91,-0.09 -3.678,-0.132 -6.152,-0.09 l -4.498,0.08 -0.07,4.035 -0.07,4.034 h 6.225 6.225 z m -13.553,-0.337 0.07,-3.844 -4.799,-0.192 c -2.847,-0.114 -4.898,-0.09 -5.043,0.05 -0.133,0.134 -0.209,1.781 -0.168,3.661 l 0.07,3.418 4.63,0.423 c 2.547,0.233 4.749,0.402 4.895,0.376 0.158,-0.03 0.294,-1.597 0.338,-3.893 z m 20.12,3.076 c 1.357,-0.353 4.214,-1.35 6.35,-2.217 7.817,-3.171 10.504,-4.305 10.75,-4.538 0.149,-0.142 -4.392,-0.238 -11.179,-0.238 h -11.43 v 3.373 c 0,1.855 0.08,3.65 0.168,3.989 0.153,0.572 0.258,0.603 1.518,0.443 0.744,-0.09 2.463,-0.459 3.819,-0.812 z m -149.066,0.01 c 0.09,-0.371 0.102,-0.783 0.02,-0.916 -0.171,-0.277 -1.941,-0.658 -2.138,-0.46 -0.07,0.07 0.124,0.562 0.435,1.09 0.667,1.131 1.439,1.262 1.684,0.286 z m 35.995,-0.23 c -0.452,-0.689 -0.695,-0.818 -0.989,-0.524 -0.09,0.09 0.161,0.434 0.552,0.771 0.871,0.75 1.031,0.66 0.437,-0.247 z m 60.371,-0.723 c -0.09,-0.894 -0.169,-2.68 -0.169,-3.969 v -2.342 h -7.277 -7.276 v 3.969 3.969 h 7.446 7.446 z m 100.24,1.361 c 23.355,-0.689 34.417,-1.11 34.629,-1.32 0.132,-0.131 -0.189,-0.309 -0.748,-0.414 -0.924,-0.173 -14.929,0.139 -30.574,0.682 -13.502,0.468 -18.712,0.316 -32.147,-0.938 -2.328,-0.218 -4.947,-0.459 -5.821,-0.537 -1.007,-0.09 -2.022,0 -2.778,0.232 l -1.19,0.374 1.852,0.167 c 1.018,0.09 5.007,0.467 8.863,0.832 13.585,1.287 14.517,1.317 27.914,0.922 z m -189.866,-0.719 c 1.033,-0.907 1.042,-1.561 0.03,-2.137 -0.448,-0.254 -0.737,-0.602 -0.663,-0.798 0.198,-0.526 -0.605,-1.888 -1.3,-2.205 -1.03,-0.469 -1.789,0.121 -1.69,1.313 0.07,0.846 0.196,1.009 0.95,1.231 1.044,0.307 1.052,1.028 0.01,1.149 -0.82,0.09 -1.124,0.669 -0.737,1.392 0.31,0.579 0.596,0.629 1.334,0.234 0.399,-0.213 0.551,-0.183 0.672,0.133 0.218,0.568 0.453,0.515 1.396,-0.312 z m 100.907,0.3 6.027,-0.169 -0.07,-3.476 -0.07,-3.476 -8.136,-0.07 -8.136,-0.07 v 3.664 c 0,2.015 0.09,3.753 0.198,3.862 0.109,0.109 1.091,0.132 2.183,0.05 1.091,-0.08 4.697,-0.223 8.011,-0.316 z m -106.061,-0.01 c 0.534,-0.205 0.547,-1.394 0.02,-1.597 -0.221,-0.09 -0.571,-0.01 -0.779,0.16 -0.297,0.247 -0.316,0.453 -0.09,0.956 0.329,0.723 0.284,0.697 0.847,0.481 z m 78.949,-2.485 c 0.05,-1.383 0,-3.022 -0.08,-3.643 l -0.164,-1.13 -5.87,0.07 -5.87,0.07 -0.07,3.374 -0.07,3.373 1.53,0.04 c 0.841,0.02 2.958,0.121 4.704,0.224 1.746,0.103 3.77,0.177 4.498,0.163 l 1.323,-0.02 z m -70.899,1.737 c 0.1,-0.516 -1.231,-2.064 -1.586,-1.845 -0.38,0.235 -0.25,0.916 0.332,1.733 0.593,0.833 1.106,0.878 1.254,0.112 z m 108.469,-2.766 0.08,-3.408 -0.948,-0.111 c -0.522,-0.06 -1.004,-0.06 -1.073,0.01 -0.07,0.07 -0.124,1.652 -0.124,3.52 v 3.395 h 0.992 0.993 z m -97.103,2.828 c 0.47,-0.47 0.4,-1.976 -0.101,-2.168 -0.789,-0.303 -1.372,-0.16 -1.51,0.369 -0.174,0.662 -1.061,0.726 -0.927,0.07 0.06,-0.31 -0.234,-0.654 -0.895,-1.037 -0.85,-0.493 -1.123,-0.533 -1.927,-0.287 -1.001,0.307 -1.171,0.795 -0.56,1.6 0.26,0.343 0.552,0.427 1.05,0.302 0.432,-0.108 0.69,-0.06 0.69,0.121 0,0.161 0.327,0.296 0.727,0.301 0.685,0.01 0.696,0.03 0.199,0.326 -0.491,0.295 -0.462,0.33 0.396,0.486 1.549,0.282 2.524,0.254 2.858,-0.08 z m 16.914,-2.13 c 0.546,-0.604 0.927,-0.585 1.334,0.07 0.445,0.713 1.571,0.679 2.193,-0.07 0.684,-0.82 0.639,-1.104 -0.299,-1.894 -0.644,-0.541 -0.918,-0.628 -1.317,-0.414 -0.4,0.214 -0.776,0.09 -1.828,-0.596 -0.728,-0.477 -1.326,-0.956 -1.329,-1.065 -0.01,-0.407 0.989,-0.179 1.45,0.331 0.627,0.693 1.456,0.696 1.456,0.01 0,-0.288 -0.192,-1.003 -0.426,-1.588 -0.402,-1.005 -0.486,-1.063 -1.538,-1.063 -0.869,0 -1.265,0.159 -1.812,0.73 -0.508,0.531 -0.631,0.838 -0.45,1.124 0.137,0.217 0.251,0.707 0.253,1.09 0,0.867 0.515,1.313 1.274,1.115 0.475,-0.124 0.582,-0.04 0.582,0.457 0,0.335 -0.251,0.876 -0.557,1.202 -0.522,0.555 -0.53,0.633 -0.133,1.201 0.234,0.334 0.445,0.908 0.47,1.275 0.02,0.368 0.09,0.193 0.152,-0.389 0.06,-0.582 0.295,-1.267 0.525,-1.521 z m 4.265,2.213 c 0.652,-0.413 0.241,-1.221 -0.621,-1.221 -0.559,0 -0.814,0.144 -0.882,0.498 -0.09,0.482 0.341,0.949 0.882,0.949 0.146,0 0.425,-0.102 0.621,-0.226 z m 20.678,-3.073 v -3.307 h -2.646 -2.646 v 3.163 3.163 l 1.786,0.09 c 0.983,0.05 2.173,0.115 2.646,0.144 l 0.86,0.05 z m 4.44,-0.1 0.07,-3.209 h -1.397 -1.397 l -0.09,3.028 c -0.05,1.665 -0.03,3.123 0.04,3.24 0.07,0.117 0.708,0.199 1.413,0.181 l 1.283,-0.03 z m 175.813,-0.452 c -0.03,-1.757 -0.158,-3.661 -0.276,-4.229 l -0.215,-1.034 h -5.016 -5.016 l -0.07,4.16 -0.07,4.16 3.909,0.09 c 2.15,0.05 4.564,0.08 5.364,0.07 l 1.456,-0.01 z m -186.603,0.153 v -2.91 h -7.937 c -7.696,0 -7.938,0.02 -7.938,0.516 0,0.284 0.429,0.933 0.953,1.442 0.523,0.509 1.108,1.378 1.298,1.931 0.19,0.553 0.446,0.99 0.569,0.971 0.122,-0.02 0.52,0.09 0.884,0.236 0.566,0.231 5.071,0.519 10.65,0.681 l 1.521,0.04 z m 191.467,2.162 c -0.241,-0.266 -0.438,-0.802 -0.438,-1.19 0,-0.389 -0.1,-0.707 -0.222,-0.707 -0.122,0 -0.367,-0.317 -0.543,-0.705 -0.372,-0.816 0.04,-2.205 0.658,-2.205 0.257,0 0.314,-0.225 0.201,-0.79 -0.124,-0.62 -0.05,-0.828 0.337,-0.966 0.272,-0.1 0.762,-0.415 1.088,-0.709 0.511,-0.46 0.689,-0.489 1.297,-0.212 0.491,0.223 0.788,0.237 0.982,0.04 0.746,-0.747 2.817,0.02 2.817,1.035 0,0.345 0.265,0.438 1.257,0.44 1.478,0 2.447,0.453 2.447,1.135 0,0.417 0.162,0.469 1.135,0.359 0.836,-0.09 1.228,-0.02 1.487,0.297 0.668,0.804 1.037,0.484 1.23,-1.067 0.391,-3.13 -0.354,-8.344 -1.565,-10.943 -1.016,-2.182 -3.77,-4.361 -6.167,-4.878 -0.699,-0.152 -1.033,-0.03 -2.038,0.736 -2.014,1.537 -4.043,1.871 -5.177,0.853 -0.228,-0.205 -1.069,-0.407 -1.87,-0.449 -1.792,-0.09 -1.709,-0.438 -1.455,6.053 0.177,4.493 0.225,4.828 0.69,4.828 0.56,0 0.713,0.944 0.182,1.121 -0.25,0.08 -0.25,0.486 0,1.839 0.175,0.952 0.321,2.611 0.323,3.686 0,1.074 0.09,2.094 0.203,2.266 0.109,0.172 0.732,0.359 1.385,0.417 0.652,0.06 1.413,0.125 1.69,0.15 0.472,0.04 0.476,0.01 0.07,-0.437 z m -255.491,-0.184 c 0.301,-0.362 0.382,-0.362 0.781,0 0.652,0.59 1.003,0.499 1.455,-0.375 0.43,-0.831 0.188,-1.25 -0.557,-0.964 -0.242,0.09 -0.599,-0.08 -0.876,-0.422 -0.407,-0.502 -0.588,-0.545 -1.363,-0.323 -1.474,0.423 -1.816,2.488 -0.412,2.488 0.351,0 0.788,-0.182 0.972,-0.404 z m 8.72,-0.253 c 0.714,-0.646 0.924,-2.157 0.41,-2.942 -0.351,-0.536 -0.361,-0.668 -0.06,-0.785 0.202,-0.08 0.474,-0.109 0.605,-0.07 0.416,0.121 1.428,-0.576 1.428,-0.983 0,-0.282 0.179,-0.348 0.633,-0.234 0.348,0.09 0.712,0.03 0.809,-0.128 0.1,-0.157 0.408,-0.286 0.691,-0.286 0.282,0 0.513,-0.119 0.513,-0.264 0,-0.146 -0.342,-0.265 -0.761,-0.265 -0.457,0 -0.907,-0.207 -1.125,-0.518 -0.74,-1.057 -3.258,0.242 -3.578,1.846 -0.09,0.434 -0.262,0.789 -0.39,0.789 -0.367,0 -0.269,-0.754 0.188,-1.453 0.543,-0.828 0.267,-1.243 -0.777,-1.173 -0.458,0.03 -1.17,-0.04 -1.583,-0.148 -0.546,-0.149 -0.866,-0.09 -1.177,0.222 -0.392,0.392 -0.453,0.363 -0.758,-0.363 -0.183,-0.434 -0.62,-0.92 -0.973,-1.081 -0.54,-0.246 -0.754,-0.194 -1.364,0.331 -0.397,0.342 -0.833,0.908 -0.968,1.257 -0.236,0.613 -0.257,0.617 -0.624,0.132 -0.209,-0.276 -0.384,-0.37 -0.389,-0.209 0,0.162 -0.424,0.817 -0.932,1.456 -1.06,1.333 -1.139,1.815 -0.404,2.48 0.439,0.397 0.592,0.418 0.943,0.126 0.267,-0.221 0.363,-0.57 0.264,-0.962 -0.141,-0.565 -0.07,-0.615 0.881,-0.615 0.887,0 1.058,0.1 1.203,0.672 0.211,0.842 0.585,0.642 0.737,-0.394 0.08,-0.532 -0.01,-0.836 -0.276,-0.937 -0.317,-0.122 -0.28,-0.253 0.197,-0.698 0.656,-0.611 1.087,-0.477 0.55,0.171 -0.43,0.518 -0.123,0.856 0.978,1.076 0.69,0.139 0.854,0.07 1.006,-0.407 0.154,-0.486 0.31,-0.546 1.019,-0.394 1.089,0.233 1.145,0.304 0.745,0.945 -0.28,0.448 -0.264,0.65 0.1,1.199 0.252,0.385 0.59,0.6 0.81,0.516 0.207,-0.08 0.377,0 0.377,0.18 0,0.188 -0.348,0.324 -0.824,0.322 -1.161,0 -1.719,0.84 -1.121,1.694 0.362,0.516 0.593,0.591 1.472,0.473 0.574,-0.08 1.26,-0.336 1.525,-0.576 z m 31.227,0.03 c 0,-0.344 -0.238,-0.928 -0.529,-1.298 -0.291,-0.37 -0.529,-0.766 -0.529,-0.879 0,-0.113 -0.259,-0.481 -0.576,-0.818 l -0.575,-0.612 h 0.972 c 0.688,0 0.972,-0.116 0.972,-0.397 0,-0.479 0.309,-0.512 0.741,-0.08 0.247,0.247 0.318,0.201 0.318,-0.208 0,-0.302 0.335,-0.723 0.792,-0.993 0.435,-0.257 0.915,-0.699 1.067,-0.983 0.254,-0.474 0.184,-0.515 -0.872,-0.515 -0.831,0 -1.51,0.229 -2.457,0.827 -1.488,0.94 -1.759,1.257 -1.556,1.819 0.117,0.322 0.06,0.316 -0.293,-0.03 -0.36,-0.356 -0.381,-0.537 -0.12,-1.026 0.249,-0.465 0.245,-0.728 -0.02,-1.221 -0.448,-0.838 -0.746,-0.792 -1.08,0.165 -0.152,0.437 -0.384,0.794 -0.515,0.794 -0.132,0 -0.239,0.311 -0.239,0.69 0,0.62 -0.07,0.672 -0.723,0.509 -0.397,-0.1 -0.84,-0.202 -0.984,-0.227 -0.144,-0.02 -0.338,0.549 -0.43,1.277 -0.18,1.423 -0.09,1.798 0.285,1.191 0.13,-0.21 0.31,-0.308 0.401,-0.217 0.09,0.09 0.02,0.402 -0.163,0.691 -0.285,0.456 -0.23,0.617 0.417,1.216 1.238,1.148 1.552,0.879 0.667,-0.572 -0.714,-1.172 -0.679,-1.296 0.432,-1.504 1.353,-0.254 1.621,0.121 1.027,1.438 -0.266,0.588 -0.398,1.155 -0.294,1.258 0.29,0.29 1.582,-0.531 1.875,-1.192 0.327,-0.737 0.664,-0.773 0.475,-0.05 -0.154,0.587 0.573,1.578 1.157,1.578 0.198,0 0.356,-0.277 0.356,-0.625 z m 177.668,0.09 c 5.675,-0.153 11.33,-0.35 12.567,-0.438 2.052,-0.146 2.168,-0.182 1.323,-0.418 -0.608,-0.17 -6.748,-0.148 -17.898,0.06 -9.335,0.177 -18.622,0.252 -20.638,0.166 -2.016,-0.09 -6.641,-0.305 -10.279,-0.488 -8.618,-0.432 -12.706,-0.432 -13.137,0 -0.264,0.265 -0.256,0.331 0.04,0.331 0.372,0 14.98,0.954 17.725,1.158 2.057,0.153 18.103,-0.05 30.295,-0.374 z m 20.82,-4.158 c 0.05,-1.855 0,-3.472 -0.09,-3.594 -0.09,-0.121 -4.974,-0.121 -10.848,0 -9.174,0.19 -10.68,0.276 -10.68,0.614 0,0.217 0.238,0.432 0.529,0.48 0.291,0.05 1.779,0.489 3.307,0.98 1.528,0.492 3.671,1.152 4.763,1.468 1.091,0.316 2.328,0.751 2.748,0.967 0.42,0.216 1.908,0.677 3.307,1.023 1.399,0.347 3.08,0.803 3.734,1.015 0.655,0.212 1.631,0.393 2.168,0.403 l 0.977,0.02 z m -223.126,-4.059 c 0.03,-5.774 0.246,-7.149 1.341,-8.688 0.318,-0.447 0.512,-0.812 0.43,-0.812 -0.08,0 -0.506,0.494 -0.944,1.098 -0.437,0.603 -0.795,0.979 -0.795,0.833 0,-0.32 1.342,-2.199 1.897,-2.656 0.546,-0.449 1.274,0.357 2.459,2.725 0.505,1.01 0.921,1.598 0.924,1.307 0.02,-1.761 -3.958,-7.364 -4.701,-6.621 -0.08,0.08 0,0.139 0.183,0.139 0.176,0 -0.03,0.446 -0.463,0.992 -0.893,1.131 -2.681,4.434 -2.681,4.954 0,0.278 0.533,0.668 0.913,0.668 0.04,0 0.339,-0.724 0.662,-1.609 0.703,-1.929 0.929,-1.945 0.424,-0.03 -0.229,0.869 -0.374,2.964 -0.392,5.676 -0.03,3.971 -0.07,4.326 -0.553,4.662 -0.524,0.362 -0.742,1.621 -0.281,1.621 0.134,0 0.327,0.387 0.428,0.86 0.102,0.473 0.315,1.098 0.473,1.389 0.27,0.494 0.301,0.477 0.467,-0.265 0.1,-0.436 0.192,-3.245 0.209,-6.241 z m 210.64,5.876 1.191,-0.194 -1.191,-0.249 c -0.663,-0.139 -4.004,-0.19 -7.541,-0.117 -12.432,0.259 -31.284,0.1 -37.703,-0.319 -5.643,-0.367 -7.711,-0.328 -6.964,0.134 0.298,0.184 4.5,0.61 9.61,0.975 3.753,0.267 40.774,0.07 42.598,-0.23 z m -7.276,-1.86 c 1.473,-0.171 1.52,-0.196 0.661,-0.355 -1.394,-0.257 -40.797,-0.433 -41.407,-0.185 -0.4,0.163 -0.238,0.228 0.662,0.265 0.654,0.03 2.798,0.135 4.762,0.238 4.665,0.246 33.267,0.276 35.322,0.04 z m -193.302,-0.372 0.831,-0.349 -0.904,-0.931 -0.903,-0.931 0.943,-0.752 c 1.521,-1.214 3.492,-1.094 3.5,0.213 0,0.322 0.07,0.844 0.157,1.159 0.136,0.506 0.243,0.541 0.923,0.304 0.835,-0.291 0.929,-0.479 0.469,-0.939 -0.429,-0.429 -0.08,-1.129 0.564,-1.129 0.597,0 1.08,-0.831 0.58,-0.997 -0.169,-0.06 -0.569,-0.314 -0.888,-0.572 l -0.58,-0.47 0.82,0.121 c 0.705,0.103 0.88,0.01 1.245,-0.701 0.541,-1.047 0.787,-1.049 0.578,-0.01 -0.09,0.449 -0.03,1.059 0.127,1.357 0.258,0.483 0.472,0.527 1.968,0.407 1.649,-0.132 1.679,-0.123 1.758,0.552 0.06,0.516 0.278,0.733 0.874,0.874 0.437,0.104 1.065,0.271 1.395,0.373 0.575,0.176 0.6,0.125 0.554,-1.168 -0.05,-1.516 -0.645,-2.312 -1.543,-2.077 -0.399,0.104 -0.538,0.01 -0.538,-0.355 0,-0.727 -0.967,-1.169 -1.764,-0.806 -0.504,0.229 -0.776,0.201 -1.289,-0.136 -0.358,-0.234 -0.651,-0.532 -0.651,-0.66 0,-0.377 -0.638,-0.274 -1.979,0.319 -0.759,0.336 -1.348,0.459 -1.495,0.312 -0.147,-0.147 0.446,-0.516 1.505,-0.936 1.428,-0.566 1.863,-0.639 2.387,-0.401 0.352,0.161 0.64,0.38 0.64,0.487 0,0.108 0.536,0.238 1.191,0.29 l 1.191,0.09 v -34.822 -34.822 l -1.654,0.509 c -5.618,1.731 -12.623,4.083 -16.791,5.638 l -4.819,1.799 -0.13,1.082 c -0.07,0.595 -0.193,4.519 -0.27,8.721 -0.08,4.202 -0.25,7.774 -0.385,7.938 -0.141,0.172 -0.321,8.439 -0.427,19.612 -0.198,21.14 -0.303,19.783 1.313,16.993 0.402,-0.695 0.929,-1.931 1.171,-2.746 0.389,-1.31 0.547,-1.516 1.36,-1.779 l 0.92,-0.297 0.07,-2.646 c 0.04,-1.455 0.173,-9.135 0.299,-17.066 0.226,-14.21 0.239,-14.456 0.896,-16.933 0.81,-3.053 1.675,-5.121 2.046,-4.892 0.15,0.09 0.24,0.05 0.2,-0.09 -0.04,-0.142 0.05,-0.284 0.192,-0.315 0.352,-0.08 1.393,2.535 1.941,4.872 0.39,1.662 0.436,3.86 0.399,19.02 -0.03,12.053 -0.128,17.245 -0.333,17.492 -0.16,0.194 -0.97,0.432 -1.8,0.529 -1.975,0.233 -2.72,0.429 -2.72,0.718 0,0.13 0.264,0.236 0.588,0.236 1.592,0 7.601,8.261 7.611,10.464 0,0.298 0.146,0.685 0.32,0.86 0.385,0.384 1.27,0.421 1.27,0.05 0,-0.146 0.295,-0.265 0.655,-0.265 0.598,0 0.632,0.06 0.391,0.694 -0.184,0.485 -0.173,0.803 0.04,1.055 0.361,0.436 0.132,1.162 -0.367,1.162 -0.253,0 -0.323,-0.248 -0.237,-0.833 l 0.122,-0.834 -1.147,0.184 c -1.348,0.215 -1.835,0.556 -1.835,1.283 0,0.438 -0.07,0.473 -0.393,0.203 -0.573,-0.475 -2.243,0.926 -2.205,1.849 0.02,0.364 -0.04,0.84 -0.13,1.058 -0.346,0.873 -0.291,1.312 0.214,1.697 0.657,0.5 0.917,0.51 1.961,0.07 z m 2.815,-36.071 c 0.145,-18.498 0.237,-21.89 0.654,-23.905 0.463,-2.239 1.565,-5.7 1.992,-6.251 0.368,-0.477 0.406,-0.469 1.017,0.215 0.814,0.912 1.676,3.507 2.004,6.036 0.143,1.108 0.26,9.882 0.265,19.871 v 17.887 l -1.918,0.316 c -1.055,0.174 -2.194,0.385 -2.53,0.469 l -0.612,0.152 0.109,-18.091 c 0.118,-19.63 0.143,-20.007 1.678,-24.655 0.796,-2.414 0.678,-3.041 -0.154,-0.816 -1.039,2.776 -1.588,5.232 -1.858,8.307 -0.147,1.673 -0.268,10.46 -0.269,19.525 v 16.482 l 0.992,-0.179 c 0.546,-0.1 1.796,-0.381 2.778,-0.627 1.239,-0.31 1.786,-0.356 1.786,-0.148 0,0.167 -1.08,0.503 -2.447,0.763 -1.346,0.255 -2.711,0.528 -3.033,0.607 l -0.585,0.142 z m -5.869,33.974 c 0.09,-0.88 0.167,-2.833 0.167,-4.339 v -2.74 h -0.926 -0.926 v 4.454 c 0,2.45 0.07,4.525 0.159,4.613 0.09,0.09 0.429,0.04 0.759,-0.115 0.494,-0.225 0.629,-0.555 0.767,-1.873 z m 127.337,0.461 c 0.08,-0.218 0.08,-0.695 -0.01,-1.058 l -0.166,-0.661 h -5.655 c -4.913,0 -5.676,0.06 -5.816,0.419 -0.261,0.682 -0.184,1.38 0.17,1.523 0.182,0.07 2.806,0.142 5.83,0.154 4.66,0.02 5.521,-0.04 5.651,-0.377 z m 31.106,-0.211 c 0.241,-0.378 0.277,-19.034 0.04,-20.998 l -0.164,-1.366 -1.651,-0.01 -1.651,-0.01 -0.161,1.175 c -0.115,0.84 -0.26,18.434 -0.179,21.661 0,0.345 3.527,-0.07 3.765,-0.447 z m 29.049,0.35 c 2.305,-0.127 -1.57,-0.197 -10.923,-0.198 h -14.495 l 0.01,-13.817 c 0.01,-10.319 -0.06,-13.792 -0.291,-13.716 -0.226,0.07 -0.292,3.661 -0.253,13.834 0.03,7.553 0.112,13.828 0.184,13.945 0.161,0.261 20.846,0.224 25.764,-0.05 z m -145.52,-0.678 v -0.673 l -6.946,0.153 c -7.953,0.174 -10.781,0.349 -10.781,0.666 0,0.416 0.919,0.465 9.326,0.496 l 8.401,0.03 z m 6.085,0.01 c 0,-0.653 -0.03,-0.662 -2.196,-0.662 -2.17,0 -2.831,0.229 -2.831,0.979 0,0.258 0.627,0.344 2.513,0.344 2.505,0 2.514,0 2.514,-0.661 z m 17.832,0.38 c 0.08,-0.08 0.181,-0.439 0.22,-0.794 l 0.07,-0.645 -5.821,0.09 c -3.201,0.05 -6.029,0.146 -6.284,0.217 -0.283,0.08 -0.463,0.385 -0.463,0.79 v 0.661 l 6.064,-0.08 c 3.335,-0.05 6.131,-0.151 6.212,-0.233 z m 15.231,0.03 c 0.3,-0.19 0.329,-0.412 0.126,-0.988 l -0.261,-0.743 h -6.873 -6.873 l -0.08,0.837 c -0.06,0.628 0.04,0.869 0.397,0.962 0.914,0.237 13.18,0.176 13.565,-0.07 z m 17.699,0.02 c 0.225,-0.143 0.293,-0.437 0.181,-0.79 -0.176,-0.553 -0.294,-0.563 -7.305,-0.616 -3.919,-0.03 -7.632,-0.06 -8.25,-0.07 -1.026,-0.01 -1.132,0.05 -1.206,0.695 -0.07,0.561 0.05,0.732 0.529,0.824 1.163,0.222 15.694,0.18 16.051,-0.05 z m 4.487,-0.756 c 0.08,-0.822 0.04,-0.86 -0.843,-0.86 -0.699,0 -0.966,0.132 -1.096,0.542 -0.234,0.737 0.34,1.354 1.172,1.257 0.558,-0.06 0.699,-0.238 0.767,-0.939 z m 11.001,0.573 c 0.09,-0.23 0.16,-0.647 0.16,-0.926 0,-0.479 -0.234,-0.507 -4.167,-0.504 -5.271,0 -6.151,0.134 -6.151,0.913 0,0.321 0.08,0.662 0.176,0.759 0.1,0.1 2.347,0.177 4.999,0.177 4.153,0 4.845,-0.06 4.983,-0.419 z m 39.319,-0.375 v -0.794 l -9.195,-0.03 c -5.056,-0.01 -10.664,-0.07 -12.461,-0.131 -1.798,-0.06 -3.355,-0.05 -3.462,0.01 -0.107,0.07 -0.141,0.482 -0.08,0.925 l 0.118,0.806 h 12.538 12.538 z m 7.408,-10.588 v -11.382 l -0.728,0.174 c -0.4,0.1 -0.787,0.227 -0.859,0.291 -0.07,0.06 -0.17,5.108 -0.215,11.208 l -0.08,11.091 h 0.942 0.942 z m -108.479,10.588 c 0,-0.457 -0.176,-0.529 -1.292,-0.529 -1.07,0 -1.316,0.09 -1.431,0.529 -0.125,0.481 0,0.529 1.292,0.529 1.255,0 1.431,-0.07 1.431,-0.529 z m 140.494,-10.848 v -11.112 h -1.762 -1.761 l 0.174,4.805 c 0.09,2.642 0.174,7.576 0.174,10.964 v 6.159 l 0.992,0.104 c 0.546,0.06 1.26,0.124 1.587,0.148 l 0.596,0.04 z m -9.06,-2.356 0.07,-13.027 -0.598,0.09 -0.598,0.08 0.1,12.832 c 0.06,7.058 0.156,12.928 0.223,13.045 0.07,0.117 0.261,0.166 0.429,0.11 0.226,-0.08 0.325,-3.545 0.375,-13.129 z m 1.946,1.562 c -0.06,-6.33 -0.205,-11.549 -0.33,-11.597 -0.588,-0.227 -0.129,-0.574 0.763,-0.578 1.695,-0.01 1.747,-0.119 1.422,-3.071 -0.364,-3.307 -1.032,-5.7 -2.577,-9.228 -2.693,-6.149 -6.028,-9.658 -10.458,-11.008 l -1.758,-0.535 -1.982,0.94 c -4.425,2.101 -8.142,8.198 -9.348,15.337 -0.239,1.411 -0.389,2.607 -0.335,2.659 0.06,0.05 2.451,0.16 5.327,0.241 l 5.227,0.148 -0.156,-0.716 c -0.606,-2.764 -1.862,-5.678 -3.618,-8.388 -0.45,-0.695 -0.413,-0.679 0.291,0.132 1.786,2.053 3.473,5.658 3.832,8.188 0.201,1.413 0.662,0.789 0.843,-1.141 0.183,-1.952 0.171,-2.004 -0.917,-4.14 -0.606,-1.189 -0.961,-2.076 -0.79,-1.97 0.172,0.107 0.695,1.019 1.163,2.028 l 0.849,1.835 0.44,-1.152 c 0.242,-0.634 0.44,-1.279 0.44,-1.433 0,-0.457 1.983,-3.315 3.152,-4.542 0.595,-0.625 1.082,-1.24 1.082,-1.368 0,-0.488 -2.777,-3.24 -3.792,-3.758 -0.586,-0.299 -1.728,-0.601 -2.539,-0.672 -1.246,-0.109 -1.618,-0.03 -2.397,0.5 -1.894,1.292 -2.626,3.749 -1.613,5.411 1.824,2.991 5.284,2.91 6.835,-0.16 0.327,-0.648 0.595,-1.004 0.594,-0.791 0,0.637 -0.953,2 -1.901,2.723 -1.32,1.007 -2.826,1.018 -4.222,0.03 -0.606,-0.428 -1.347,-1.109 -1.646,-1.513 -1.408,-1.898 0.291,-5.496 3.164,-6.7 2.104,-0.882 6.386,1.387 8.918,4.725 1.732,2.283 2.392,3.549 3.41,6.545 1.379,4.058 1.356,3.7 1.289,19.666 l -0.06,15.035 0.752,-0.09 0.751,-0.09 z m -23.166,-18.555 c 0.45,-3.171 1.567,-6.169 2.895,-7.771 l 0.658,-0.793 0.627,0.7 c 0.826,0.922 2.234,4.337 2.693,6.529 0.2,0.96 0.34,1.768 0.31,1.796 -0.03,0.03 -1.483,0.102 -3.229,0.164 -1.747,0.06 -3.387,0.208 -3.647,0.322 -0.423,0.188 -0.454,0.09 -0.307,-0.947 z m 7.108,-8.498 c -2.255,-2.068 -0.915,-5.755 2.092,-5.755 1.243,0 2.463,1.043 2.835,2.423 0.377,1.401 0.121,2.431 -0.847,3.399 -0.642,0.642 -1.015,0.793 -1.967,0.793 -0.956,0 -1.349,-0.16 -2.113,-0.86 z m 17.984,38.277 c 0.209,-0.544 0.203,-19.902 0,-20.682 -0.109,-0.407 -0.36,-0.596 -0.79,-0.596 h -0.631 v 10.43 c 0,5.736 0.07,10.617 0.161,10.848 0.09,0.23 0.373,0.418 0.633,0.418 0.26,0 0.545,-0.188 0.633,-0.418 z m 1.481,-9.57 c 0,-10.447 -0.09,-11.972 -0.694,-11.972 -0.3,0 -0.362,1.862 -0.362,10.98 0,10.804 0,10.98 0.529,10.98 0.52,0 0.529,-0.175 0.527,-9.988 z m -197.641,6.416 v -3.307 h -0.794 -0.794 v 3.307 3.307 h 0.794 0.794 z m 180.642,-3.373 c -0.05,-1.201 -0.09,-0.219 -0.09,2.183 0,2.401 0.04,3.383 0.09,2.182 0.05,-1.2 0.05,-3.165 0,-4.365 z m -184.573,3.638 c 0.09,-1.31 0.183,-6.876 0.199,-12.37 l 0.03,-9.988 h -1.545 -1.545 l -0.174,8.93 c -0.1,4.911 -0.175,10.513 -0.176,12.449 v 3.519 l 1.521,-0.08 1.522,-0.08 z m 44.677,1.576 c 4.729,-0.08 9.105,-0.207 9.723,-0.282 l 1.125,-0.136 v -34.181 c 0,-18.8 -0.08,-34.628 -0.167,-35.174 -0.138,-0.832 -0.269,-0.992 -0.813,-0.992 -0.417,0 -0.599,-0.118 -0.511,-0.331 0.08,-0.181 0.341,-0.985 0.588,-1.785 0.246,-0.801 1.087,-3.102 1.867,-5.114 0.781,-2.012 1.42,-3.721 1.42,-3.799 0,-0.08 -0.209,-0.06 -0.463,0.04 -0.614,0.236 -10.137,2.974 -20.307,5.839 -4.511,1.271 -8.395,2.41 -8.63,2.531 -0.389,0.201 -0.439,3.333 -0.557,35.09 -0.07,19.177 -0.03,35.055 0.08,35.284 0.116,0.229 0.689,0.748 1.273,1.152 0.948,0.657 1.044,0.823 0.9,1.545 l -0.162,0.809 3.018,-0.174 c 1.66,-0.1 6.888,-0.24 11.618,-0.32 z m -12.692,-35.607 c 0,-18.784 0.165,-23.263 0.916,-26.156 0.578,-2.23 2.227,-5.827 2.671,-5.827 0.438,0 1.746,2.785 2.343,4.99 0.554,2.046 0.562,2.516 0.478,25.86 l -0.07,18.283 -2.183,0.307 c -1.201,0.17 -2.63,0.382 -3.175,0.472 l -0.992,0.164 z m 3.167,17.097 c 2.084,-0.281 2.645,-0.432 2.645,-0.711 0,-0.149 -0.267,-0.209 -0.595,-0.131 -0.327,0.08 -1.405,0.224 -2.395,0.325 l -1.799,0.185 0.09,-20.471 c 0.1,-22.671 0,-21.306 1.882,-25.874 0.853,-2.07 0.693,-2.526 -0.184,-0.525 -1.219,2.782 -1.783,4.824 -2.028,7.345 -0.137,1.403 -0.252,11.044 -0.255,21.424 v 18.872 l 0.727,-0.139 c 0.401,-0.08 1.264,-0.211 1.919,-0.3 z m 9.874,-21.1 c 0.179,-21.604 0.308,-24.018 1.488,-27.715 0.723,-2.266 1.685,-4.101 2.15,-4.101 0.497,0 1.894,2.375 2.521,4.286 0.478,1.459 0.503,2.629 0.503,23.76 v 22.225 l -2.117,0.313 c -1.164,0.173 -2.451,0.321 -2.861,0.331 l -0.745,0.02 0.11,-20.968 c 0.09,-17.717 0.175,-21.276 0.525,-22.953 0.406,-1.944 1.029,-3.882 1.901,-5.911 0.24,-0.559 0.322,-0.946 0.182,-0.859 -0.401,0.248 -1.85,3.917 -2.272,5.757 -0.767,3.338 -0.935,8.158 -0.938,26.906 v 18.882 l 1.125,-0.154 c 0.618,-0.08 2.107,-0.29 3.307,-0.457 l 2.183,-0.304 0.04,-20.938 c 0.02,-13.635 0.116,-20.061 0.263,-18.424 0.125,1.382 0.198,10.906 0.162,21.163 l -0.06,18.649 -3.043,0.447 c -1.673,0.246 -3.389,0.456 -3.812,0.467 l -0.769,0.02 z m 14.996,5.529 c 0,-18.678 -0.08,-34.686 -0.168,-35.573 -0.188,-1.796 0.1,-1.656 -2.544,-1.242 l -0.992,0.155 v 14.077 c 0,7.743 0.08,23.632 0.176,35.31 l 0.176,21.233 h 1.676 1.676 z m 5.16,1.086 v -32.478 l -0.662,0.03 c -0.363,0.02 -0.991,0.107 -1.394,0.199 l -0.733,0.167 v 32.109 c 0,17.66 0.08,32.222 0.162,32.359 0.09,0.137 0.709,0.213 1.387,0.17 l 1.233,-0.08 z m 170.933,6.217 -0.1,-26.392 0.239,19.182 c 0.131,10.551 0.313,22.433 0.403,26.406 l 0.165,7.223 1.226,-0.08 1.227,-0.08 -0.06,-13.362 c -0.06,-14.478 -0.526,-40.45 -0.759,-42.267 l -0.145,-1.124 h -3.159 -3.158 v 28.442 28.443 h 2.104 2.105 z m -157.667,25.782 c 0.05,-0.05 0.07,-15.275 0.03,-33.825 l -0.07,-33.728 -5.649,1.264 c -3.107,0.695 -5.876,1.336 -6.152,1.424 -0.49,0.155 -0.502,0.971 -0.502,32.727 v 32.568 l 6.121,-0.167 c 3.367,-0.09 6.166,-0.21 6.219,-0.263 z m -7.788,-14.131 c 0.08,-10.576 0.1,-10.821 0.701,-12.325 0.339,-0.844 0.891,-1.855 1.228,-2.247 l 0.613,-0.712 0.592,0.527 c 0.326,0.289 0.858,1.122 1.183,1.85 1.133,2.536 1.265,3.972 1.292,14.022 l 0.02,9.525 -2.86,0.07 -2.861,0.08 z m 0.92,3.298 c -0.169,-7.84 0.09,-12.935 0.75,-14.883 0.584,-1.717 0.878,-2.085 1.354,-1.69 0.458,0.38 0.455,-0.02 0,-0.622 -0.332,-0.437 -0.371,-0.437 -0.775,0.01 -1.696,1.874 -2.201,6.425 -1.903,17.158 0.122,4.386 0.293,6.973 0.461,6.973 0.177,0 0.216,-2.351 0.118,-6.945 z m 11.735,-10.649 c 0,-11.933 -0.09,-27.392 -0.183,-34.354 l -0.177,-12.657 -1.19,0.178 c -0.654,0.1 -1.468,0.285 -1.81,0.415 l -0.62,0.236 0.07,33.806 0.07,33.807 1.323,0.162 c 0.728,0.09 1.595,0.149 1.926,0.132 l 0.604,-0.03 z m 27.871,-11.191 c 0.127,-18.087 0.15,-32.966 0.05,-33.064 -0.197,-0.197 -14.99,-1.881 -16.711,-1.902 l -1.081,-0.01 0.09,5.358 c 0.05,2.947 0.163,18.181 0.253,33.853 l 0.165,28.495 1.092,0.102 c 0.601,0.06 4.426,0.09 8.5,0.08 l 7.409,-0.02 z m 50.238,32.844 4.167,-0.173 v -9.6 c 0,-6.115 -0.1,-9.66 -0.264,-9.764 -0.343,-0.211 -0.344,-1.799 0,-2.141 0.145,-0.145 0.375,-1.627 0.511,-3.294 0.543,-6.615 1.859,-10.596 5.229,-15.82 3.531,-5.473 9.774,-9.709 15.138,-10.269 1.295,-0.136 1.922,-0.05 3.262,0.432 2.66,0.962 5.193,2.614 7.701,5.022 5.547,5.327 8.616,12.385 9.583,22.039 0.1,0.984 0.285,1.855 0.413,1.934 0.429,0.265 0.239,1.613 -0.296,2.097 -0.615,0.557 -0.649,1.798 -0.353,12.931 l 0.175,6.58 10.66,-0.108 c 5.863,-0.06 10.712,-0.163 10.774,-0.23 0.265,-0.285 0.713,-55.384 0.451,-55.546 -0.148,-0.09 -3.813,-0.44 -8.144,-0.776 -4.331,-0.335 -9.541,-0.766 -11.577,-0.957 -2.037,-0.192 -3.746,-0.306 -3.799,-0.253 -0.05,0.05 -0.131,0.647 -0.173,1.32 -0.04,0.673 -0.132,1.278 -0.199,1.345 -0.129,0.129 -10.833,-0.525 -15.542,-0.949 -1.528,-0.138 -6.648,-0.5 -11.377,-0.804 -4.729,-0.304 -8.718,-0.671 -8.864,-0.814 -0.145,-0.144 -0.305,-1.783 -0.356,-3.643 l -0.09,-3.381 -6.259,-0.45 c -3.442,-0.248 -9.991,-0.753 -14.553,-1.122 -4.562,-0.369 -8.362,-0.603 -8.446,-0.519 -0.134,0.134 0.172,27.383 0.635,56.696 l 0.16,10.114 4.004,0.08 c 9.039,0.181 13.478,0.187 17.432,0.02 z m -16.272,-8.772 -0.727,-0.08 v -10.368 c 0,-10.923 0.193,-13.946 1.039,-16.403 1.098,-3.193 3.784,-6.148 4.997,-5.499 0.717,0.384 1.956,2 2.769,3.612 1.465,2.906 1.536,3.564 1.788,16.509 0.128,6.615 0.168,12.092 0.09,12.171 -0.152,0.153 -8.707,0.205 -9.956,0.06 z m 9.512,-11.757 c -0.169,-12.627 -0.296,-13.792 -1.807,-16.626 -0.469,-0.881 -1.283,-2.086 -1.809,-2.678 -1.125,-1.268 -1.321,-1.21 -3.105,0.92 -1.294,1.546 -2.33,3.959 -2.714,6.326 -0.153,0.946 -0.272,6.356 -0.273,12.448 v 10.775 l 3.902,0.08 c 2.147,0.04 4.366,0.107 4.932,0.139 l 1.03,0.06 z m -8.74,10.209 c -0.1,-0.1 -0.177,-4.909 -0.177,-10.693 0,-11.167 0.182,-13.353 1.294,-15.531 0.684,-1.342 1.83,-2.704 2.274,-2.704 0.523,0 1.972,1.773 2.573,3.148 0.703,1.608 0.967,6.255 0.987,17.423 l 0.02,8.533 h -3.395 c -1.868,0 -3.475,-0.08 -3.572,-0.176 z m 65.833,-6.617 c -0.235,-8.779 0.09,-15.019 0.918,-17.416 0.554,-1.61 2.126,-3.947 3.009,-4.474 0.408,-0.243 0.645,-0.109 1.502,0.847 1.326,1.48 2.527,4.414 2.893,7.066 0.16,1.164 0.319,6.433 0.352,11.708 l 0.06,9.592 h -4.269 -4.27 z m 8.268,-3.46 c -0.115,-8.39 -0.219,-10.541 -0.576,-11.84 -0.613,-2.228 -1.509,-4.09 -2.526,-5.248 l -0.871,-0.992 -0.64,0.601 c -0.841,0.79 -2.389,3.97 -2.745,5.639 -0.329,1.54 -0.659,19.115 -0.392,20.892 l 0.18,1.201 h 3.855 3.854 z m -7.007,9.693 c -0.41,-0.421 -0.467,-15.82 -0.07,-19.263 0.323,-2.808 1.176,-5.399 2.129,-6.466 0.717,-0.802 0.751,-0.812 1.266,-0.346 0.617,0.558 1.446,2.393 2.073,4.585 0.366,1.282 0.461,3.245 0.556,11.533 l 0.114,9.988 h -1.707 c -0.939,0 -2.229,0.07 -2.868,0.154 -0.778,0.104 -1.271,0.04 -1.492,-0.185 z m -124.51,1.42 c -0.09,-5.057 -0.251,-20.427 -0.348,-34.156 -0.125,-17.628 -0.262,-24.988 -0.465,-25.052 -0.159,-0.05 -1.092,-0.133 -2.074,-0.186 l -1.786,-0.1 v 10.728 c 0,5.9 0.08,21.354 0.176,34.342 l 0.176,23.614 h 2.247 2.247 z m 4.578,1.191 c -0.01,-11.573 -0.472,-59.771 -0.57,-59.868 -0.05,-0.05 -0.962,-0.169 -2.037,-0.274 l -1.954,-0.193 0.169,19.551 c 0.09,10.753 0.245,26.129 0.337,34.169 l 0.168,14.618 h 1.948 1.948 z m 22.844,-24.844 c 0.09,-18.066 0.12,-32.923 0.06,-33.016 -0.06,-0.09 -0.589,-0.122 -1.182,-0.06 l -1.078,0.103 v 32.913 32.913 h 1.015 1.015 z m 11.769,32.462 c 0.104,-0.104 0.189,-15.309 0.189,-33.789 v -33.599 l -1.72,0.179 c -0.946,0.1 -3.386,0.435 -5.424,0.748 l -3.704,0.57 -0.161,10.053 c -0.09,5.529 -0.178,20.459 -0.198,33.176 l -0.04,23.123 5.434,-0.136 c 2.988,-0.07 5.519,-0.221 5.622,-0.325 z m 6.358,-31.034 c -0.07,-17.281 -0.05,-28.383 0.05,-24.672 0.102,3.71 0.203,12.58 0.223,19.711 0.02,7.131 0.117,18.233 0.213,24.672 l 0.175,11.708 h 1.794 c 0.987,0 1.871,-0.127 1.968,-0.283 0.209,-0.338 -0.364,-55.495 -0.646,-62.221 -0.108,-2.582 -0.262,-4.759 -0.342,-4.838 -0.08,-0.08 -1.946,-0.219 -4.148,-0.309 l -4.004,-0.164 v 33.731 c 0,18.552 0.08,33.811 0.177,33.908 0.1,0.1 1.187,0.176 2.423,0.176 h 2.246 z m 130.108,27.164 c 0.428,-0.449 2.563,-1.994 4.746,-3.434 2.183,-1.44 4.207,-2.8 4.498,-3.023 0.498,-0.382 0.471,-0.396 -0.446,-0.245 -1.354,0.224 -2.628,-0.28 -3.263,-1.29 -0.314,-0.499 -0.906,-0.97 -1.435,-1.142 l -0.901,-0.293 0.972,-0.182 c 1.067,-0.2 1.108,-0.277 0.621,-1.154 l -0.333,-0.599 -0.9,0.93 c -0.496,0.511 -0.83,0.929 -0.743,0.929 0.09,0 -0.206,0.387 -0.651,0.86 -1.061,1.127 -2.172,3.528 -2.837,6.128 -0.567,2.216 -0.674,3.331 -0.32,3.331 0.118,0 0.565,-0.368 0.992,-0.816 z m -251.768,-1.129 c 0,-0.567 -1.209,-2.715 -3.262,-5.797 -1.462,-2.195 -2.018,-2.832 -2.423,-2.779 -0.947,0.125 -0.72,0.918 0.88,3.076 0.866,1.168 1.964,2.815 2.439,3.66 0.474,0.845 0.978,1.685 1.118,1.866 0.341,0.443 1.248,0.423 1.248,-0.03 z m -17.727,-1.262 c 0,-0.291 -0.119,-0.455 -0.264,-0.365 -0.146,0.09 -0.265,0.401 -0.265,0.692 0,0.291 0.119,0.456 0.265,0.366 0.145,-0.09 0.264,-0.402 0.264,-0.693 z m -2.122,-1.272 c 0.3,-1.007 0.665,-2.525 0.812,-3.373 0.146,-0.848 0.331,-1.839 0.411,-2.203 0.14,-0.643 0.12,-0.638 -0.752,0.204 -0.971,0.936 -1.259,0.89 -1.259,-0.199 0,-0.541 -0.212,-0.802 -0.935,-1.146 -1.711,-0.816 -1.788,-0.613 -0.63,1.653 0.907,1.774 1.026,2.187 0.771,2.664 l -0.302,0.565 -0.647,-0.698 c -0.779,-0.841 -1.535,-0.777 -1.642,0.137 -0.06,0.503 0.12,0.779 0.747,1.149 0.454,0.268 1.244,1.07 1.756,1.783 0.512,0.713 0.975,1.297 1.028,1.297 0.05,0 0.342,-0.825 0.642,-1.833 z m 288.171,0.598 c 1.145,-0.387 2.083,-0.806 2.083,-0.931 0,-0.124 -0.328,-0.147 -0.728,-0.05 -0.914,0.219 -4.035,1.444 -4.035,1.584 0,0.228 0.688,0.07 2.68,-0.601 z m -4.135,-0.211 c 0.436,-0.2 0.615,-0.368 0.397,-0.373 -0.219,-0.01 -0.754,0.154 -1.191,0.354 -0.436,0.2 -0.615,0.368 -0.397,0.373 0.219,0.01 0.754,-0.154 1.191,-0.354 z m -2.847,-1.177 c 0.436,-0.255 0.434,-0.272 -0.03,-0.28 -0.465,-0.01 -2.28,0.955 -2.28,1.208 0,0.129 1.6,-0.514 2.312,-0.928 z m -12.163,-1.101 c 0.701,-1.377 0.925,-2.24 1.178,-4.537 0.277,-2.525 0.262,-2.939 -0.134,-3.77 -0.245,-0.514 -0.565,-0.934 -0.71,-0.934 -0.648,0 -1.646,2.12 -1.892,4.016 -0.306,2.361 -0.03,7.161 0.397,7.022 0.163,-0.05 0.685,-0.861 1.161,-1.797 z m -286.928,1.047 c 1.416,-0.724 1.928,-2.42 1.091,-3.615 -0.551,-0.788 -0.287,-1.117 0.898,-1.117 0.542,0 1.249,-0.185 1.572,-0.411 0.892,-0.625 0.734,-1.487 -0.47,-2.568 -0.582,-0.523 -1.058,-1.063 -1.058,-1.2 0,-0.138 0.615,-0.332 1.367,-0.432 2.626,-0.348 3.9,-1.193 3.916,-2.598 0,-0.516 0.144,-0.728 0.475,-0.728 0.257,0 0.912,-0.238 1.455,-0.529 0.543,-0.291 1.326,-0.529 1.741,-0.529 0.417,0 0.967,0.236 1.232,0.529 0.343,0.379 0.823,0.532 1.695,0.538 0.668,0.01 1.513,0.18 1.877,0.388 0.921,0.526 1.624,0.488 3.588,-0.198 l 1.704,-0.594 v -1.617 c 0,-0.978 0.303,-2.702 0.769,-4.366 0.424,-1.513 0.846,-3.197 0.938,-3.742 l 0.169,-0.993 h -1.703 c -1.132,0 -2.09,-0.175 -2.856,-0.523 -0.635,-0.288 -1.553,-0.526 -2.04,-0.529 -1.138,-0.01 -2.594,0.686 -3.165,1.506 -0.246,0.354 -0.705,0.962 -1.022,1.352 l -0.575,0.708 -0.269,-0.703 c -0.332,-0.868 -1.507,-1.183 -2.809,-0.754 -1.003,0.331 -2.706,2.121 -2.835,2.98 -0.06,0.403 -0.513,0.675 -1.83,1.1 -2.277,0.736 -3.704,1.702 -4.742,3.212 -1.108,1.61 -1.27,2.88 -0.549,4.295 0.307,0.602 0.558,1.145 0.558,1.207 0,0.06 -0.413,0.191 -0.918,0.286 -1.513,0.284 -3.315,2.163 -3.315,3.457 0,0.232 0.298,0.72 0.661,1.084 0.796,0.795 0.814,0.902 0.152,0.902 -0.76,0 -1.607,-1.241 -1.606,-2.351 0,-1.333 0.775,-2.463 2.284,-3.334 0.708,-0.409 1.326,-0.774 1.373,-0.812 0.05,-0.04 -0.113,-0.453 -0.356,-0.922 -0.586,-1.133 -0.34,-2.725 0.665,-4.31 1.003,-1.582 2.546,-2.675 4.798,-3.4 1,-0.322 1.819,-0.723 1.819,-0.891 0,-0.168 0.365,-0.81 0.812,-1.426 1.167,-1.612 3.218,-2.514 5.288,-2.326 1.525,0.138 1.542,0.132 1.82,-0.667 0.155,-0.444 0.282,-1.158 0.282,-1.588 0,-0.528 0.278,-1.059 0.859,-1.64 0.72,-0.72 0.86,-1.058 0.86,-2.071 0,-2.305 1.44,-3.484 5.393,-4.418 l 2.713,-0.64 -0.176,-1.878 c -0.135,-1.439 -0.08,-2.117 0.248,-2.896 0.531,-1.27 0.343,-1.528 -1.653,-2.281 -1.094,-0.412 -1.837,-0.525 -2.759,-0.419 -1.101,0.127 -1.414,0.04 -2.465,-0.667 -2.269,-1.531 -6.203,-1.462 -9.527,0.168 -2.221,1.09 -4.149,3.008 -4.627,4.604 -0.311,1.036 -0.38,1.092 -1.357,1.092 -1.76,0 -3.12,1.007 -3.12,2.311 0,0.272 0.365,0.99 0.81,1.596 l 0.81,1.101 -1.703,-0.03 c -4.609,-0.08 -8.648,3.434 -8.648,7.521 0,0.852 0.173,1.883 0.384,2.292 0.375,0.725 0.353,0.776 -0.915,2.092 -3.451,3.58 -3.883,8.18 -1.012,10.774 1.247,1.126 2.506,1.71 3.684,1.71 0.81,0 0.829,0.03 0.622,0.86 -0.336,1.349 -0.184,3.078 0.35,3.992 0.552,0.947 2.245,2.011 3.237,2.035 0.364,0.01 1.197,0.303 1.852,0.654 1.308,0.7 2.371,0.82 3.259,0.366 z m -9.523,-11.203 c -2.612,-1.136 -2.345,-5.021 0.443,-6.436 0.655,-0.332 1.429,-0.546 1.721,-0.474 0.403,0.1 0.673,-0.12 1.132,-0.917 0.571,-0.992 2.657,-2.38 3.555,-2.364 0.186,0 -0.142,0.224 -0.73,0.491 -1.405,0.638 -2.462,1.93 -2.676,3.272 l -0.173,1.082 -0.497,-0.613 c -0.457,-0.565 -0.577,-0.589 -1.527,-0.304 -1.479,0.443 -2.392,1.63 -2.392,3.111 0,2.051 0.837,3.017 2.91,3.357 0.581,0.09 0.564,0.112 -0.132,0.135 -0.437,0.01 -1.172,-0.139 -1.634,-0.34 z m 1.654,-11.454 c 0.706,-3.167 5.162,-5.232 8.159,-3.781 l 1.213,0.587 0.759,-0.638 c 0.417,-0.352 1.109,-0.784 1.536,-0.961 0.754,-0.312 0.777,-0.377 0.763,-2.097 -0.01,-1.333 0.12,-2.005 0.529,-2.7 0.634,-1.08 2.058,-2.118 2.904,-2.118 0.539,0 0.601,-0.149 0.699,-1.688 0.09,-1.334 0.261,-1.889 0.84,-2.648 0.883,-1.158 2.464,-2.014 3.718,-2.014 1.323,0 1.416,0.455 0.163,0.793 -1.209,0.325 -2.753,1.567 -3.325,2.673 -0.211,0.408 -0.383,1.324 -0.383,2.035 0,1.29 0,1.296 -1.103,1.625 -2.112,0.633 -3.368,2.725 -2.891,4.815 0.121,0.529 0.293,1.08 0.382,1.224 0.09,0.146 -0.386,0.416 -1.067,0.607 -0.677,0.19 -1.634,0.699 -2.128,1.133 -0.884,0.776 -0.912,0.782 -1.794,0.361 -2.622,-1.25 -5.295,-0.626 -7.414,1.732 -0.651,0.724 -1.183,1.422 -1.183,1.552 0,0.129 -0.122,0.236 -0.27,0.236 -0.157,0 -0.202,-0.304 -0.107,-0.728 z m 28.426,20.902 c 0,-1.128 0.06,-2.348 0.135,-2.712 0.105,-0.529 0.05,-0.491 -0.265,0.19 -0.219,0.469 -0.475,1.689 -0.57,2.712 -0.151,1.62 -0.117,1.861 0.262,1.861 0.365,0 0.435,-0.327 0.438,-2.051 z m 299.982,0.476 c 2.912,-1.882 4.145,-4.471 3.501,-7.349 l -0.324,-1.448 0.885,-0.756 c 0.487,-0.417 0.963,-0.762 1.058,-0.768 0.1,-0.01 0.537,-0.559 0.98,-1.228 1.482,-2.238 1.366,-4.648 -0.336,-6.993 -1.081,-1.488 -3.576,-2.902 -5.121,-2.902 -0.661,0 -1.191,-0.164 -1.418,-0.439 -0.606,-0.732 -2.403,-1.401 -3.803,-1.416 -1.08,-0.01 -1.232,-0.07 -0.831,-0.3 0.875,-0.508 3.441,-0.143 4.657,0.662 l 1.096,0.725 0.894,-0.552 c 1.2,-0.742 2.475,-2.23 2.669,-3.117 0.09,-0.397 0.209,-0.884 0.271,-1.082 0.191,-0.609 -0.436,-2.506 -1.135,-3.429 -1.6,-2.114 -5.405,-3.752 -8.716,-3.752 h -1.729 l -1.366,-1.431 c -1.145,-1.2 -1.66,-1.521 -3.18,-1.985 -4.564,-1.392 -9.579,-0.165 -10.991,2.689 -0.527,1.065 -0.527,1.078 -0.02,1.729 0.284,0.361 0.516,0.875 0.516,1.141 0,0.456 -0.05,0.452 -0.943,-0.07 -0.801,-0.472 -1.211,-0.533 -2.712,-0.4 -1.282,0.114 -1.95,0.05 -2.43,-0.218 -0.364,-0.207 -1.019,-0.38 -1.455,-0.384 -0.973,-0.01 -2.514,0.886 -2.514,1.463 0,0.749 -0.658,0.232 -0.74,-0.582 -0.133,-1.324 0.683,-1.811 2.942,-1.754 3.967,0.1 5.791,0.102 5.885,0.01 0.314,-0.314 -0.701,-2.351 -1.64,-3.293 -1.153,-1.155 -2.422,-1.669 -4.132,-1.672 -0.92,0 -0.992,-0.06 -0.992,-0.777 0,-0.562 -0.221,-0.933 -0.805,-1.349 -0.647,-0.461 -0.743,-0.646 -0.492,-0.949 0.245,-0.295 0.21,-0.488 -0.163,-0.9 -0.371,-0.41 -0.815,-0.524 -2.047,-0.524 -1.448,0 -1.647,0.07 -2.51,0.937 l -0.937,0.937 -0.575,-0.54 c -0.745,-0.7 -2.145,-0.717 -2.574,-0.03 -0.309,0.496 -0.346,0.493 -1.521,-0.132 -2.419,-1.288 -5.53,-0.454 -7.156,1.918 -0.515,0.752 -0.585,1.109 -0.458,2.339 l 0.15,1.452 h -0.973 c -1.171,0 -2.675,0.395 -3.323,0.868 -0.433,0.317 -0.457,0.681 -0.284,4.318 l 0.189,3.972 1.002,-0.496 c 1.316,-0.651 3.623,-0.877 4.841,-0.475 0.529,0.174 1.3,0.728 1.715,1.231 l 0.754,0.915 1.554,-0.405 c 2.063,-0.537 2.975,-0.511 4.22,0.124 1.894,0.965 3.043,0.447 3.043,-1.373 0,-1.697 -1.201,-2.94 -3.254,-3.367 -0.919,-0.192 -1.058,-0.654 -0.231,-0.771 0.966,-0.137 3.382,1.181 4.001,2.182 0.714,1.156 0.698,2.532 -0.04,3.473 -0.407,0.518 -0.486,0.778 -0.258,0.854 1.131,0.377 2.917,1.936 3.622,3.161 0.87,1.512 1.206,1.634 2.638,0.951 l 0.938,-0.447 0.857,0.812 c 1.129,1.068 1.827,1.406 2.891,1.399 1.101,-0.01 2.81,-0.783 3.586,-1.627 l 0.593,-0.644 5.831,0.04 5.832,0.04 0.838,0.858 c 1.087,1.111 2.731,1.947 3.408,1.732 0.638,-0.203 1.295,0.288 1.295,0.967 0,0.273 0.18,0.497 0.401,0.497 0.465,0 1.449,1.494 1.45,2.202 0,0.265 -0.475,0.91 -1.057,1.432 -0.582,0.523 -1.059,1.038 -1.059,1.146 0,0.108 0.72,0.773 1.599,1.478 1.946,1.561 3.081,3.193 3.317,4.769 0.21,1.402 -0.272,2.231 -0.573,0.983 -0.448,-1.859 -2.39,-4.337 -3.399,-4.337 -0.199,0 -0.781,-0.387 -1.295,-0.86 -0.513,-0.473 -1.415,-1.269 -2.004,-1.768 -0.985,-0.835 -1.066,-1.002 -1.011,-2.097 0.05,-1.084 -0.02,-1.245 -0.836,-1.802 -1.226,-0.838 -2.475,-1.143 -4.685,-1.145 -3.54,0 -8.644,1.882 -10.861,4.011 -0.874,0.839 -2.362,3.335 -2.127,3.569 0.168,0.168 3.485,-0.719 5.471,-1.463 0.801,-0.3 1.846,-0.549 2.324,-0.553 1.053,-0.01 2.703,0.64 2.703,1.067 0,0.195 0.268,0.256 0.728,0.166 1.09,-0.214 3.123,0.303 3.678,0.936 0.478,0.545 0.477,0.553 -0.04,0.352 -1.401,-0.545 -2.46,-0.721 -3.49,-0.58 -0.927,0.127 -1.175,0.07 -1.392,-0.338 -0.392,-0.733 -1.921,-0.917 -3.593,-0.431 -1.046,0.305 -1.847,0.802 -2.962,1.839 -1.521,1.416 -1.525,1.425 -1.024,1.979 0.404,0.447 0.814,0.557 2.068,0.557 1.777,0 2.588,0.326 2.588,1.04 0,0.578 0.499,0.812 1.735,0.812 0.65,0 1.011,0.171 1.305,0.621 0.49,0.748 1.475,1.231 2.508,1.231 0.419,0 1.693,0.375 2.832,0.832 1.271,0.51 2.735,0.881 3.791,0.96 1.573,0.117 1.765,0.198 2.252,0.954 0.403,0.624 0.792,0.866 1.588,0.987 2.054,0.314 2.421,0.24 4.045,-0.809 z m -12.234,-25.296 c -1.821,-1.608 -4.879,-2.109 -8.158,-1.337 -1.41,0.332 -2.01,0.217 -1.678,-0.321 0.07,-0.12 0.61,-0.374 1.19,-0.566 0.58,-0.191 1.624,-0.818 2.32,-1.394 1.271,-1.05 1.808,-0.976 1.072,0.148 -0.388,0.592 -0.375,0.601 1.323,0.923 2.002,0.38 2.919,0.812 4.26,2.007 0.537,0.478 1.215,1.004 1.506,1.167 0.502,0.283 0.495,0.298 -0.132,0.295 -0.376,0 -1.112,-0.4 -1.703,-0.922 z m -34.636,-11.56 c 0.161,-0.263 3.307,-0.249 3.724,0.02 0.179,0.114 -0.613,0.201 -1.76,0.194 -1.147,-0.01 -2.031,-0.102 -1.964,-0.211 z m -63.409,30.065 c 0,-4.783 -0.09,-7.22 -0.265,-7.113 -0.166,0.103 -0.264,2.875 -0.264,7.44 0,4.783 0.09,7.22 0.264,7.113 0.166,-0.103 0.265,-2.875 0.265,-7.44 z m -198.438,6.778 c 0,-0.158 -0.935,-0.257 -2.315,-0.246 -1.539,0.01 -2.138,0.1 -1.786,0.246 0.75,0.322 4.101,0.322 4.101,0 z m 259.991,-0.739 c -0.27,-0.06 -0.606,0.01 -0.747,0.152 -0.166,0.166 0,0.203 0.491,0.104 0.554,-0.113 0.62,-0.179 0.256,-0.256 z m 9.62,-0.427 c 0,-0.51 -3.125,-4.61 -3.902,-5.119 -0.539,-0.353 -0.678,-0.358 -0.981,-0.04 -0.897,0.946 -0.776,1.552 0.559,2.793 0.705,0.654 1.936,1.533 2.736,1.951 1.739,0.91 1.588,0.871 1.588,0.415 z m -269.346,-1.083 c -0.711,-0.756 -1.058,-0.84 -1.058,-0.256 0,0.223 0.267,0.513 0.595,0.645 0.997,0.4 1.113,0.303 0.463,-0.389 z m 2.587,-0.597 c -0.593,-0.896 -1.793,-1.48 -1.793,-0.872 0,0.322 2.139,2.196 2.311,2.024 0.08,-0.08 -0.152,-0.599 -0.518,-1.152 z m 268.611,-0.594 c 0,-0.743 -0.113,-1.058 -0.38,-1.058 -0.209,0 -0.642,-0.466 -0.962,-1.036 -0.354,-0.63 -0.722,-0.983 -0.937,-0.9 -0.204,0.08 -0.481,-0.142 -0.653,-0.519 -0.209,-0.458 -0.45,-0.616 -0.8,-0.525 -0.625,0.164 -0.623,0.276 0.02,1.26 0.395,0.605 3.253,3.584 3.645,3.8 0.04,0.02 0.07,-0.439 0.07,-1.022 z m -6.615,0.539 c 0,-0.328 -1.861,-1.597 -2.343,-1.597 -0.297,0 -0.304,0.08 -0.04,0.397 0.62,0.747 -0.142,0.397 -1.725,-0.791 -1.599,-1.201 -2.087,-1.396 -2.365,-0.946 -0.275,0.444 1.528,1.515 3.958,2.35 1.309,0.45 2.411,0.824 2.447,0.83 0.04,0.01 0.07,-0.103 0.07,-0.243 z m -264.323,-0.472 c 0,-0.481 -0.49,-0.913 -0.8,-0.722 -0.253,0.157 -0.216,0.293 0.153,0.564 0.561,0.41 0.653,0.432 0.647,0.158 z m 255.063,-0.06 c 0,-0.141 -0.179,-0.188 -0.397,-0.104 -0.218,0.08 -0.397,0.199 -0.397,0.256 0,0.06 0.179,0.104 0.397,0.104 0.218,0 0.397,-0.115 0.397,-0.256 z m 1.323,-0.01 c 0,-0.146 -0.119,-0.265 -0.265,-0.265 -0.145,0 -0.264,0.119 -0.264,0.265 0,0.145 0.119,0.264 0.264,0.264 0.146,0 0.265,-0.119 0.265,-0.264 z m 22.462,-1.628 c 1.119,-1.536 1.163,-1.666 1.119,-3.359 -0.04,-1.466 0.09,-2.037 0.743,-3.414 1.165,-2.442 0.353,-2.099 -1.095,0.463 -1.008,1.783 -1.786,4.151 -2.022,6.152 -0.116,0.982 -0.143,1.779 -0.06,1.771 0.08,-0.01 0.675,-0.734 1.315,-1.613 z m -277.521,0.693 c 0,-0.523 -0.743,-0.809 -1.121,-0.431 -0.249,0.249 0.209,0.605 1.055,0.82 0.04,0.01 0.07,-0.166 0.07,-0.389 z m 22.603,-0.648 c 1.461,-0.239 2.231,-0.707 1.794,-1.091 -0.103,-0.09 -1.11,-0.04 -2.239,0.107 -1.128,0.15 -2.092,0.223 -2.143,0.163 -0.05,-0.06 0,-7.373 0.105,-16.249 0.183,-14.971 0.237,-16.324 0.751,-18.677 0.305,-1.396 0.735,-3.051 0.957,-3.68 0.222,-0.628 0.356,-1.188 0.299,-1.245 -0.213,-0.214 -1.503,3.842 -1.909,6.007 -0.347,1.846 -0.447,5.173 -0.56,18.587 l -0.136,16.338 h 0.756 c 0.416,0 1.462,-0.117 2.325,-0.259 z m 262.089,0 c 0,-0.316 -0.72,-0.316 -1.455,0 -0.425,0.182 -0.333,0.231 0.463,0.246 0.546,0.01 0.992,-0.101 0.992,-0.246 z m -277.966,-0.161 c 0.23,-0.09 0.418,-0.326 0.418,-0.529 0,-0.554 -0.735,-0.443 -1.058,0.161 -0.294,0.549 -0.11,0.656 0.64,0.368 z m 263.032,-2.013 c -0.229,-2.021 -0.337,-2.209 -0.946,-1.658 -0.534,0.483 -0.484,1.308 0.156,2.545 0.672,1.3 0.996,0.936 0.79,-0.887 z m -9.299,0.95 c 0.1,-0.256 -0.02,-0.574 -0.302,-0.786 -0.63,-0.477 -1.13,-0.461 -1.13,0.04 0,0.493 0.547,1.156 0.964,1.17 0.167,0.01 0.377,-0.184 0.468,-0.421 z m -259.136,-0.893 c 0,-0.145 -0.178,-0.264 -0.397,-0.264 -0.218,0 -0.396,0.119 -0.396,0.264 0,0.146 0.178,0.265 0.396,0.265 0.219,0 0.397,-0.119 0.397,-0.265 z m 263.79,-0.793 c 0,-0.146 -0.104,-0.265 -0.232,-0.265 -0.127,0 -0.633,-0.06 -1.124,-0.135 l -0.893,-0.135 0.794,0.388 c 0.941,0.459 1.455,0.511 1.455,0.147 z m 16.592,-1.223 c -0.06,-0.06 -0.48,-0.03 -0.939,0.06 -0.881,0.176 -1.057,0.567 -0.506,1.12 0.265,0.267 0.452,0.192 0.94,-0.374 0.335,-0.389 0.562,-0.753 0.505,-0.81 z m -64.217,-1.026 c -0.145,-0.29 -6.48,-0.377 -6.937,-0.1 -0.751,0.462 0.33,0.612 3.537,0.492 2.225,-0.08 3.483,-0.23 3.4,-0.397 z m -33.124,0.152 c 0.336,-0.01 0.549,-0.121 0.472,-0.245 -0.202,-0.328 -6.771,-0.394 -6.771,-0.07 0,0.293 1.991,0.477 4.233,0.39 0.801,-0.03 1.73,-0.07 2.066,-0.08 z m 93.701,-3.228 c 0,-0.09 -0.4,0.03 -0.905,0.265 -0.885,0.414 -0.917,0.481 -0.913,1.885 v 1.455 l 0.9,-1.72 c 0.496,-0.946 0.907,-1.794 0.914,-1.885 z m -92.863,-5.788 c 0.364,-2.143 1.553,-5.76 2.522,-7.673 0.69,-1.361 2.505,-3.847 4.003,-5.481 1.481,-1.615 4.065,-2.987 5.612,-2.979 1.599,0.01 3.911,0.972 5.769,2.405 1.863,1.438 5.538,5.728 6.968,8.136 1.404,2.363 2.773,6.213 3.165,8.899 0.17,1.165 0.366,2.504 0.437,2.977 0.118,0.782 0.214,0.86 1.057,0.86 h 0.927 l -0.164,-1.654 c -0.537,-5.408 -2.677,-11.303 -5.681,-15.649 -1.988,-2.876 -5.037,-5.821 -7.054,-6.814 -1.526,-0.751 -1.845,-0.813 -3.609,-0.7 -3.262,0.21 -6.324,2.001 -9.679,5.663 -4.19,4.572 -6.135,9.449 -6.55,16.422 l -0.176,2.957 0.899,0.09 0.899,0.09 0.159,-2.778 c 0.09,-1.528 0.311,-3.671 0.496,-4.763 z m -3.529,7.249 c 0.511,-0.137 0.583,-0.398 0.747,-2.708 0.511,-7.203 2.672,-12.825 6.597,-17.162 2.588,-2.861 6.294,-5.103 9.378,-5.675 2.162,-0.401 3.817,0.04 6.041,1.606 5.968,4.205 10.599,12.617 11.495,20.879 0.287,2.653 0.373,2.955 0.84,2.955 0.481,0 0.507,-0.127 0.345,-1.654 -0.282,-2.661 -1.222,-7.062 -1.937,-9.062 -0.953,-2.669 -3.073,-6.702 -4.546,-8.648 -3.328,-4.396 -8.712,-8.111 -11.804,-8.144 -1.061,-0.01 -4.403,0.927 -5.776,1.622 -7.995,4.048 -13.571,13.203 -14.113,23.174 l -0.162,2.976 h 1.165 c 0.64,0 1.419,-0.07 1.73,-0.155 z m 31.58,-0.304 c 0,-0.254 -0.18,-1.653 -0.399,-3.108 -0.688,-4.585 -2.31,-8.579 -4.882,-12.027 -1.176,-1.576 -1.418,-1.616 -0.445,-0.07 2.245,3.558 3.982,8.534 4.451,12.752 0.279,2.514 0.39,2.919 0.8,2.919 0.278,0 0.476,-0.193 0.475,-0.463 z m 56.171,-0.864 c 0.373,-0.293 0.82,-0.966 0.995,-1.494 0.312,-0.945 0.297,-0.98 -0.808,-2.001 -0.671,-0.619 -1.028,-1.135 -0.885,-1.278 0.131,-0.131 0.89,-0.569 1.686,-0.972 2.488,-1.26 2.649,-2.748 0.507,-4.683 -0.984,-0.889 -1.986,-1.289 -4.02,-1.607 -0.604,-0.09 -0.992,-0.301 -0.992,-0.528 0,-0.634 -1.646,-0.73 -4.111,-0.24 -1.949,0.387 -2.361,0.404 -2.462,0.103 -0.243,-0.732 -1.332,-1.553 -2.299,-1.734 -1.195,-0.224 -3.442,0.413 -4.31,1.222 -0.571,0.532 -0.587,0.69 -0.517,5.097 l 0.07,4.548 0.793,-0.06 c 2.96,-0.217 3.485,-0.172 4.682,0.395 0.683,0.324 1.544,0.589 1.912,0.589 0.476,0 0.787,0.229 1.079,0.793 0.38,0.735 0.518,0.794 1.85,0.794 1.544,0 3.727,0.609 4.358,1.215 0.555,0.533 1.68,0.46 2.469,-0.161 z m -61.008,-1.484 c 0.05,-0.164 -0.107,-0.377 -0.359,-0.474 -0.251,-0.1 -4.513,-0.26 -9.47,-0.363 -12.997,-0.271 -13.487,-0.264 -13.578,0.209 -0.08,0.436 -0.833,0.392 13.297,0.779 8.969,0.246 9.984,0.231 10.11,-0.151 z m -196.592,-0.193 c 0.04,-0.04 0.256,-1.615 0.476,-3.495 0.441,-3.763 0.574,-18.107 0.169,-18.107 -0.127,0 -0.604,0.07 -1.058,0.165 l -0.827,0.166 v 7.618 7.618 l -0.926,2.954 c -0.51,1.624 -0.926,3.079 -0.926,3.233 0,0.184 0.513,0.219 1.507,0.102 0.83,-0.1 1.543,-0.212 1.585,-0.254 z m 290.247,-0.485 c -0.08,-0.211 -0.147,-0.148 -0.16,0.16 -0.01,0.279 0.05,0.435 0.139,0.347 0.09,-0.09 0.1,-0.316 0.02,-0.507 z m -94.239,-1.993 c 0.01,-0.905 -0.07,-1.501 -0.185,-1.323 -0.133,0.21 -0.207,0.117 -0.209,-0.262 0,-1.17 -1.164,-3.64 -2.961,-6.327 -1.01,-1.51 -1.884,-2.745 -1.943,-2.745 -0.06,0 -0.337,0.247 -0.619,0.55 -0.51,0.548 -0.508,0.555 0.452,1.487 0.927,0.899 0.931,0.908 0.09,0.243 -0.484,-0.381 -0.979,-0.693 -1.101,-0.693 -0.448,0 -1.704,1.775 -2.558,3.617 -0.8,1.724 -1.395,4.355 -1.408,6.232 v 0.722 l 4.299,0.09 c 2.365,0.05 4.712,0.08 5.216,0.07 l 0.917,-0.01 z m -9.296,-0.947 c 0.31,-3.028 1.981,-7.064 2.924,-7.064 0.543,0 1.718,1.499 2.549,3.252 0.868,1.832 1.731,4.879 1.459,5.152 -0.106,0.107 -1.749,0.234 -3.651,0.283 l -3.457,0.09 z m 8.146,1.138 c 0,-0.364 0.06,-0.513 0.133,-0.331 0.07,0.182 0.07,0.48 0,0.661 -0.07,0.182 -0.133,0.03 -0.133,-0.33 z m -0.29,-1.059 c -0.01,-0.218 -0.496,-1.468 -1.073,-2.778 -0.576,-1.309 -0.876,-2.155 -0.666,-1.879 0.592,0.777 2.034,4.393 1.891,4.743 -0.08,0.191 -0.137,0.158 -0.152,-0.09 z m -2.662,-5.82 c -0.156,-0.291 -0.224,-0.53 -0.151,-0.53 0.07,0 0.259,0.239 0.415,0.53 0.156,0.291 0.224,0.529 0.151,0.529 -0.07,0 -0.26,-0.238 -0.415,-0.529 z m 4.408,6.283 c -0.07,-0.181 -0.133,-0.03 -0.133,0.331 0,0.364 0.06,0.513 0.133,0.331 0.07,-0.182 0.07,-0.48 0,-0.662 z m -1.601,-5.62 c -0.343,-0.944 -1.026,-2.39 -1.517,-3.213 -0.969,-1.623 -3.178,-4.189 -3.972,-4.613 -0.638,-0.342 -0.623,-0.209 0.07,0.574 1.99,2.266 4.585,6.147 5.376,8.04 0.667,1.597 0.703,1.016 0.05,-0.788 z m -197.541,-7.719 v -2.262 l -0.711,0.178 c -0.907,0.228 -2.199,1.142 -2.199,1.555 0,1.037 2.086,3.3 2.695,2.924 0.118,-0.07 0.215,-1.151 0.215,-2.395 z m 276.898,-7.331 c 1.565,-0.783 3.248,-1.208 4.817,-1.217 l 1.125,-0.01 v -1.522 c 0,-5.52 -6.354,-9.65 -11.692,-7.601 -0.337,0.129 -0.586,-0.109 -1.02,-0.976 -1.178,-2.351 -2.765,-3.53 -5.825,-4.328 -3.514,-0.916 -7.43,-0.147 -9.787,1.922 -0.842,0.739 -1.097,0.811 -3.206,0.899 -2.039,0.08 -2.416,0.184 -3.415,0.89 -1.181,0.834 -3.075,3.333 -3.209,4.233 -0.04,0.294 -0.459,0.706 -0.933,0.926 l -0.854,0.397 v 3.633 3.633 l 1.256,-0.15 c 1.835,-0.218 1.833,-0.216 1.982,-1.542 0.208,-1.841 1.209,-3.136 3.169,-4.102 2.226,-1.095 3.979,-1.284 5.337,-0.574 0.802,0.419 1.145,0.475 1.559,0.253 0.292,-0.156 1.198,-0.228 2.014,-0.16 0.988,0.08 1.667,0 2.031,-0.234 0.91,-0.595 3.033,-0.885 4.256,-0.582 1.324,0.328 2.231,1.256 2.835,2.901 0.427,1.16 0.509,1.23 1.607,1.354 1.67,0.188 3.447,1.139 4.583,2.453 0.969,1.121 0.999,1.134 1.518,0.656 0.291,-0.268 1.129,-0.788 1.863,-1.155 z m -272.808,-0.893 c 0.09,-0.837 0.275,-2.166 0.416,-2.955 0.141,-0.788 0.204,-1.485 0.141,-1.549 -0.114,-0.113 -2.838,5.039 -3.011,5.694 -0.06,0.229 0.281,0.331 1.104,0.331 h 1.191 z m 202.55,-7.871 c 0,-1.059 -0.07,-1.191 -0.596,-1.191 -0.327,0 -1.845,-0.117 -3.373,-0.259 -1.528,-0.142 -6.648,-0.5 -11.377,-0.797 -9.251,-0.58 -14.446,-0.965 -16.51,-1.224 l -1.297,-0.162 0.183,-15.514 c 0.249,-21.086 0.496,-24.622 2.056,-29.405 0.583,-1.787 1.92,-4.581 2.848,-5.953 0.295,-0.436 1.284,-1.543 2.197,-2.459 1.28,-1.285 2.264,-1.959 4.305,-2.949 1.455,-0.705 3.282,-1.44 4.06,-1.632 1.387,-0.342 1.444,-0.332 3.078,0.515 2.986,1.548 6.16,4.86 8.173,8.528 1.236,2.251 2.678,6.627 3.265,9.904 0.426,2.379 0.473,4.546 0.474,21.497 v 18.852 h 1.257 1.257 v -18.462 c 0,-11.155 -0.109,-19.349 -0.275,-20.704 -0.858,-7 -4.24,-14.009 -8.744,-18.126 -1.776,-1.623 -3.928,-3.182 -5.434,-3.936 -1.26,-0.631 -1.465,-0.659 -2.91,-0.394 -2.151,0.396 -5.301,1.649 -7.155,2.848 -3.425,2.213 -6.78,6.54 -8.154,10.515 -1.611,4.663 -1.592,4.323 -1.592,27.886 v 21.563 l 2.117,0.173 c 1.164,0.1 4.26,0.305 6.879,0.466 2.619,0.161 7.144,0.476 10.054,0.698 2.911,0.223 7.197,0.502 9.525,0.62 2.329,0.117 4.561,0.231 4.961,0.253 0.692,0.04 0.728,-0.02 0.728,-1.151 z m 24.96,-11.553 c 0.264,-16.802 0.231,-22.02 -0.142,-22.394 -0.175,-0.174 -0.644,-0.317 -1.043,-0.317 -0.399,0 -0.797,-0.116 -0.884,-0.257 -0.09,-0.142 0.575,-2.167 1.473,-4.501 l 1.632,-4.243 -0.658,-0.99 c -0.362,-0.544 -3.265,-4.579 -6.45,-8.967 -3.185,-4.388 -9.125,-12.587 -13.2,-18.22 -4.074,-5.633 -8.947,-12.342 -10.829,-14.908 -1.882,-2.567 -4.882,-6.691 -6.667,-9.165 -1.785,-2.474 -3.594,-4.912 -4.019,-5.418 l -0.774,-0.92 -1.231,1.009 c -1.69,1.385 -8.026,7.531 -29.599,28.71 l -18.458,18.122 1.198,0.78 c 1.991,1.295 1.884,2.472 -0.292,3.217 -0.986,0.338 -1.034,0.409 -1.114,1.622 -0.05,0.698 0.06,1.539 0.239,1.869 0.215,0.403 0.235,0.712 0.06,0.94 -0.293,0.38 0.102,33.562 0.403,33.84 0.158,0.147 29.731,2.632 29.866,2.509 0.03,-0.03 0.126,-7.784 0.211,-17.236 0.09,-9.556 0.281,-18.184 0.438,-19.435 1.198,-9.529 7.164,-16.662 15.944,-19.063 1.264,-0.346 2.527,-0.525 3.175,-0.452 2.471,0.281 8.024,4.654 10.99,8.655 1.79,2.415 3.856,6.819 4.63,9.872 1.132,4.462 1.246,7.375 1.044,26.697 l -0.187,17.903 1.164,0.16 c 1.694,0.233 19.686,1.662 21.427,1.702 l 1.478,0.03 z m -41.894,-72.297 v -3.02 l -1.653,-0.355 c -1.602,-0.344 -1.657,-0.383 -1.739,-1.247 l -0.09,-0.891 1.144,0.177 c 2.295,0.357 2.168,0.413 2.186,-0.971 0.02,-1.191 0.05,-1.257 0.744,-1.257 0.706,0 0.727,0.04 0.727,1.463 0,1.614 -0.09,1.533 2.183,1.98 1.449,0.284 1.522,0.337 1.522,1.095 0,0.725 -0.07,0.783 -0.728,0.657 -0.4,-0.08 -1.236,-0.216 -1.858,-0.31 l -1.131,-0.171 0.178,2.935 0.178,2.934 h -0.833 -0.834 z m 46.534,83.023 0.827,-0.166 0.05,-8.764 0.05,-8.764 0.179,7.408 c 0.1,4.075 0.195,8.033 0.215,8.797 l 0.04,1.389 h 1.229 1.23 l -0.167,-3.241 c -0.09,-1.782 -0.301,-8.658 -0.466,-15.279 -0.166,-6.622 -0.339,-12.081 -0.386,-12.133 -0.05,-0.05 -1.124,-0.16 -2.394,-0.239 l -2.308,-0.144 0.176,7.624 c 0.1,4.193 0.176,11.236 0.176,15.65 0,8.746 -0.11,8.194 1.554,7.862 z m -32.643,-11.543 c 0.277,-14.016 0.06,-27.198 -0.505,-30.228 -0.596,-3.215 -2.076,-7.509 -3.418,-9.922 -1.551,-2.789 -5.499,-6.742 -7.915,-7.927 l -1.783,-0.875 -2.053,0.723 c -3.246,1.143 -5.08,2.242 -7.08,4.242 -4.381,4.381 -6.048,9.513 -6.489,19.976 -0.383,9.07 -0.331,32.007 0.07,32.145 0.799,0.273 21.666,1.569 27.089,1.683 l 1.887,0.04 z m -4.233,7.567 c -0.582,-0.05 -3.142,-0.207 -5.689,-0.359 -5.117,-0.305 -16.726,-1.271 -17.661,-1.469 l -0.595,-0.126 v -16.806 -16.805 l 0.709,-2.147 c 1.147,-3.468 3.051,-4.989 4.754,-3.797 0.304,0.213 0.608,0.332 0.676,0.265 0.07,-0.07 0.123,0.03 0.123,0.223 0,0.191 0.479,1.054 1.065,1.918 0.586,0.865 1.35,2.108 1.698,2.763 l 0.632,1.19 0.07,16.603 c 0.06,14.403 0.125,16.603 0.463,16.603 0.338,0 0.389,-2.166 0.389,-16.603 v -16.603 l -0.774,-1.635 c -1.048,-2.216 -2.336,-4.175 -3.834,-5.833 -1.249,-1.381 -1.251,-1.382 -1.959,-0.943 -0.39,0.242 -0.977,0.676 -1.304,0.966 -0.328,0.289 -0.595,0.401 -0.595,0.248 0,-0.153 0.171,-0.421 0.381,-0.595 0.209,-0.174 0.32,-0.473 0.247,-0.666 -0.173,-0.451 0.38,-2.522 0.674,-2.522 0.123,0 0.402,0.271 0.619,0.602 0.217,0.331 1.363,1.73 2.547,3.109 2.131,2.481 4.171,6.028 4.937,8.584 l 0.319,1.067 0.173,-1.852 c 0.1,-1.019 0.235,-2.462 0.312,-3.208 l 0.139,-1.355 -1.178,-0.69 c -2.423,-1.42 -4.012,-4.229 -3.988,-7.051 0.02,-2.058 0.665,-3.675 2.114,-5.279 1.059,-1.172 3.659,-2.658 4.651,-2.658 1.795,0 4.973,2.81 6.425,5.68 0.781,1.543 0.964,3.373 0.464,4.639 -0.198,0.5 -0.227,0.263 -0.121,-0.971 0.123,-1.44 0.04,-1.841 -0.684,-3.394 -1.043,-2.229 -3.694,-4.975 -5.204,-5.392 -0.892,-0.247 -1.214,-0.202 -2.378,0.331 -1.807,0.827 -3.049,1.965 -3.948,3.617 -0.918,1.686 -1.174,4.1 -0.603,5.676 l 0.384,1.059 0.241,-1.191 c 0.132,-0.655 0.326,-1.161 0.43,-1.124 0.105,0.04 0.488,0.07 0.852,0.07 0.364,0 0.661,0.106 0.661,0.236 0,0.129 -0.297,0.31 -0.661,0.401 -1.142,0.287 -0.721,0.685 0.727,0.69 0.764,0 1.562,0.113 1.773,0.246 0.329,0.209 0.385,3.234 0.397,21.494 l 0.01,21.25 0.557,0.08 c 0.489,0.07 0.577,-0.09 0.725,-1.323 0.09,-0.771 0.19,-9.558 0.216,-19.526 0.03,-10.949 0.123,-16.71 0.236,-14.552 0.103,1.964 0.202,10.754 0.219,19.532 0.03,15.049 0.06,15.956 0.495,15.872 0.433,-0.08 0.471,-1.166 0.595,-17.019 0.119,-15.246 0.177,-17.025 0.584,-17.888 0.54,-1.143 1.941,-3.023 3.678,-4.936 0.698,-0.768 1.534,-1.869 1.859,-2.447 0.645,-1.148 1.194,-1.453 0.713,-0.396 -0.256,0.562 -0.176,0.888 0.56,2.268 0.472,0.886 0.812,1.659 0.754,1.717 -0.06,0.06 -0.457,-0.545 -0.886,-1.341 -0.429,-0.795 -0.86,-1.416 -0.959,-1.38 -0.1,0.04 -1.018,1.017 -2.044,2.181 -2.294,2.604 -3.536,4.996 -3.639,7.012 -0.07,1.313 -0.05,1.384 0.233,0.728 0.169,-0.401 0.403,-0.728 0.521,-0.728 0.117,0 0.225,-0.268 0.24,-0.595 0.02,-0.571 0.03,-0.569 0.238,0.07 0.117,0.363 0.224,7.894 0.238,16.735 0.02,13.967 0.08,16.073 0.416,16.073 0.341,0 0.369,-1.878 0.223,-14.895 -0.09,-8.192 -0.09,-15.219 0.01,-15.616 0.156,-0.621 0.254,-0.683 0.704,-0.442 0.439,0.235 0.523,0.196 0.523,-0.243 0,-0.739 0.346,-0.864 1.042,-0.376 l 0.6,0.42 -0.09,15.621 c -0.07,12.27 -0.02,15.644 0.237,15.73 0.259,0.09 0.328,-3.276 0.328,-15.938 v -16.047 l 0.769,0.547 c 0.875,0.623 1.34,0.697 1.367,0.217 0.01,-0.182 0.125,-0.09 0.256,0.198 0.132,0.293 0.226,6.37 0.211,13.626 -0.03,16.738 -0.02,17.727 0.317,17.727 0.296,0 0.208,-34.012 -0.09,-35.719 -0.09,-0.509 0.08,0.09 0.386,1.323 0.303,1.237 0.716,2.565 0.918,2.952 0.202,0.386 0.367,0.912 0.367,1.168 0,0.257 0.07,0.393 0.163,0.303 0.253,-0.252 -0.377,-5.029 -0.998,-7.568 -0.306,-1.253 -1.018,-3.277 -1.581,-4.498 -1.123,-2.435 -1.291,-3.166 -0.495,-2.146 0.802,1.027 2.052,4.737 2.838,8.422 l 0.716,3.352 -0.08,16.404 c -0.05,10.821 -0.172,16.517 -0.353,16.735 -0.267,0.321 -0.488,0.334 -2.723,0.158 z m -16.824,-14.975 c -0.01,-7.021 -0.113,-14.314 -0.222,-16.206 -0.109,-1.892 -0.143,-3.541 -0.08,-3.666 0.211,-0.391 0.581,0.466 0.422,0.977 -0.146,0.467 -0.124,0.468 0.564,0.02 0.68,-0.446 0.69,-0.486 0.224,-0.827 -0.375,-0.275 -0.411,-0.407 -0.151,-0.568 0.442,-0.273 0.101,-1.167 -0.376,-0.984 -0.199,0.08 -0.362,0.09 -0.362,0.04 0,-0.06 -0.07,-0.32 -0.158,-0.587 -0.127,-0.393 -0.105,-0.411 0.118,-0.1 0.403,0.571 0.663,0.149 0.312,-0.506 -0.38,-0.711 -0.687,-0.521 -0.903,0.557 -0.181,0.905 -0.852,1.815 -1.329,1.801 -0.518,-0.01 -1.743,-1.275 -1.6,-1.647 0.21,-0.548 -0.867,-1.433 -1.262,-1.037 -0.239,0.238 -0.237,0.385 0,0.628 0.462,0.462 0.391,0.916 -0.231,1.497 -0.478,0.445 -0.504,0.583 -0.201,1.068 0.191,0.307 0.438,0.557 0.549,0.557 0.11,0 0.201,7.085 0.201,15.743 0,13.817 0.05,15.743 0.397,15.743 0.347,0 0.401,-1.905 0.433,-15.412 0.02,-8.477 0.02,-15.888 0,-16.47 -0.04,-0.996 -0.02,-1.028 0.36,-0.545 0.224,0.282 0.406,0.617 0.406,0.743 0,0.126 0.149,0.137 0.331,0.02 0.656,-0.41 1.027,-0.299 1.312,0.395 0.194,0.473 0.331,5.806 0.414,16.118 0.102,12.876 0.183,15.412 0.488,15.412 0.306,0 0.362,-2.07 0.343,-12.766 z m 2.254,-19.579 c -0.386,-1.239 -0.663,-1.855 -0.781,-1.738 -0.07,0.07 0.07,0.62 0.312,1.228 0.459,1.167 0.784,1.52 0.469,0.51 z m -8.004,-1.113 c -0.05,-0.274 0.03,-0.391 0.199,-0.287 0.155,0.1 0.282,0.06 0.282,-0.09 0,-0.527 -0.509,-0.563 -0.78,-0.06 -0.375,0.699 -0.351,1.152 0.05,1.011 0.182,-0.06 0.293,-0.323 0.247,-0.577 z m 10.728,-4.537 c -0.09,-0.09 -0.316,-0.1 -0.507,-0.02 -0.211,0.08 -0.148,0.147 0.16,0.16 0.279,0.01 0.435,-0.05 0.347,-0.139 z m -7.866,-4.216 c 0,-0.412 -0.708,-1.01 -0.866,-0.73 -0.07,0.116 -0.197,0.537 -0.292,0.935 -0.166,0.693 -0.145,0.711 0.493,0.42 0.366,-0.167 0.665,-0.448 0.665,-0.625 z m 18.309,11.202 c -0.898,-0.898 0.158,-2.394 1.27,-1.799 0.654,0.35 0.658,0.751 0.01,1.521 -0.563,0.675 -0.83,0.733 -1.285,0.278 z m 1.006,-1.021 c 0,-0.3 -0.119,-0.471 -0.265,-0.381 -0.145,0.09 -0.264,0.335 -0.264,0.544 0,0.21 0.119,0.382 0.264,0.382 0.146,0 0.265,-0.246 0.265,-0.545 z m -2.808,0.607 c -0.161,-0.107 -0.486,-0.57 -0.721,-1.029 -0.565,-1.103 -1.223,-1.74 -1.636,-1.582 -0.248,0.1 -0.229,-0.137 0.07,-0.909 0.528,-1.345 2.205,-3.157 2.921,-3.157 0.773,0 2.39,1.742 2.586,2.787 0.254,1.356 0.06,1.801 -0.915,2.08 -0.642,0.185 -0.993,0.501 -1.258,1.134 -0.378,0.904 -0.544,1.011 -1.051,0.676 z m -2.375,-0.425 c -0.198,-0.517 0.07,-0.96 0.587,-0.96 0.259,0 0.37,0.201 0.315,0.574 -0.103,0.698 -0.686,0.948 -0.902,0.386 z m -1.961,-5.728 c 0,-0.2 -0.249,-0.273 -0.661,-0.195 -0.551,0.106 -0.662,0.02 -0.662,-0.482 0,-0.335 0.1,-0.671 0.221,-0.746 0.121,-0.07 0.171,-0.473 0.11,-0.885 -0.07,-0.478 0.07,-0.977 0.399,-1.378 0.434,-0.536 0.72,-0.622 1.934,-0.579 1.666,0.06 2,0.291 1.573,1.089 -0.171,0.32 -0.251,0.64 -0.179,0.713 0.201,0.201 0.779,-0.987 0.988,-2.03 l 0.185,-0.926 0.03,0.928 c 0.02,0.731 -0.218,1.231 -1.14,2.355 -1.238,1.51 -2.798,2.701 -2.798,2.136 z m 5.49,-1.758 c 0.182,-0.07 0.48,-0.07 0.662,0 0.182,0.07 0.03,0.134 -0.331,0.134 -0.364,0 -0.513,-0.06 -0.331,-0.134 z m -8.822,-3.33 -0.504,-0.595 0.595,0.504 c 0.559,0.473 0.716,0.686 0.504,0.686 -0.05,0 -0.318,-0.268 -0.595,-0.595 z m 2.538,0.327 c 0.219,-0.139 0.744,-0.255 1.169,-0.257 1.023,-0.01 0.801,0.148 -0.507,0.348 -0.721,0.111 -0.932,0.08 -0.662,-0.09 z m 1.798,-0.777 c -1.01,-0.196 -2.038,-1.144 -2.053,-1.892 -0.02,-0.901 0.576,-2.031 1.227,-2.327 0.658,-0.3 0.665,-0.328 0.211,-0.83 -0.259,-0.286 -0.752,-0.52 -1.096,-0.52 -0.548,0 -0.605,-0.09 -0.454,-0.728 0.09,-0.4 0.254,-0.82 0.356,-0.933 0.308,-0.344 2.637,1.908 3.464,3.35 0.815,1.421 0.951,2.325 0.523,3.453 -0.27,0.71 -0.496,0.754 -2.178,0.427 z m -7.536,-1.363 c -0.483,-0.14 -0.917,-0.478 -1.017,-0.793 -0.231,-0.728 0.08,-2.326 0.592,-3.003 0.394,-0.525 0.401,-0.526 0.2,-0.01 -0.114,0.291 -0.243,1.006 -0.285,1.588 l -0.08,1.058 0.248,-1.179 c 0.347,-1.645 0.986,-2.241 1.996,-1.857 1.338,0.509 1.701,1.019 1.701,2.394 0,1.88 -0.151,2.101 -1.417,2.073 -0.603,-0.01 -1.476,-0.133 -1.94,-0.267 z m 4.68,-2.188 c 0,-0.529 0.909,-1.584 1.258,-1.461 0.166,0.06 -0.04,0.479 -0.483,0.968 -0.432,0.482 -0.775,0.7 -0.775,0.493 z m -0.6,-0.674 c -0.115,-0.44 -0.08,-0.544 0.115,-0.347 0.154,0.154 0.228,0.436 0.164,0.626 -0.07,0.199 -0.186,0.08 -0.279,-0.279 z m -3.506,-2.171 c 1.257,-1.506 2.296,-1.936 2.995,-1.237 0.475,0.475 0.385,0.741 -0.253,0.741 -0.529,0 -0.54,0.03 -0.145,0.469 0.401,0.444 0.359,0.47 -0.752,0.463 -0.647,0 -1.177,-0.1 -1.178,-0.205 0,-0.109 0.1,-0.198 0.213,-0.198 0.118,0 0.446,-0.175 0.728,-0.388 0.897,-0.679 -0.03,-0.435 -1.103,0.289 -1.006,0.679 -1.017,0.68 -0.505,0.07 z m 3.595,-1.092 c -0.01,-0.4 0.101,-0.727 0.246,-0.727 0.311,0 0.311,0.203 0,0.926 -0.201,0.469 -0.229,0.446 -0.246,-0.199 z m -179.445,47.791 c 9.073,-3.262 18.295,-6.241 26.101,-8.43 9.439,-2.647 20.77,-5.948 23.726,-6.912 2.036,-0.664 3.196,-1.426 2.169,-1.426 -0.791,0 -5.527,1.2 -11.432,2.895 -3.007,0.864 -7.849,2.241 -10.759,3.06 -10.394,2.928 -33.754,10.461 -34.486,11.121 -0.13,0.117 0.23,1.18 0.399,1.18 0.08,0 2.005,-0.67 4.282,-1.488 z m 56.842,0.684 0.789,-0.276 0.176,-28.211 c 0.236,-37.801 0.222,-66.287 -0.03,-66.179 -0.114,0.05 -0.752,0.321 -1.419,0.605 l -1.211,0.517 -0.196,46.087 c -0.108,25.347 -0.115,46.456 -0.02,46.909 0.197,0.898 0.584,1.009 1.908,0.548 z m 8.417,-1.987 c 3.056,-0.678 5.665,-1.299 5.797,-1.379 0.206,-0.126 0,-65.655 -0.203,-65.862 -0.04,-0.04 -1.609,0.536 -3.492,1.275 -1.884,0.739 -3.88,1.507 -4.436,1.707 l -1.011,0.365 0.168,-10.115 c 0.267,-16.091 0.631,-19.917 2.344,-24.639 0.651,-1.792 2.248,-4.659 2.595,-4.659 0.108,0 0.563,0.387 1.012,0.86 1.097,1.155 2.616,4.26 3.093,6.324 0.619,2.674 0.835,17.264 0.859,57.736 l 0.02,36.741 1.497,-0.187 c 0.823,-0.103 1.656,-0.248 1.852,-0.323 0.44,-0.169 0.44,-0.289 0.08,-24.289 -0.155,-10.187 -0.364,-30.864 -0.464,-45.95 -0.1,-15.085 -0.274,-27.52 -0.386,-27.632 -0.112,-0.113 -0.741,0.06 -1.396,0.374 -1.34,0.651 -1.443,0.676 -1.443,0.344 0,-0.13 0.268,-0.309 0.596,-0.398 0.327,-0.09 1,-0.5 1.495,-0.914 l 0.9,-0.753 0.127,-4.631 c 0.07,-2.565 0.02,-4.824 -0.114,-5.063 -0.207,-0.37 -0.999,-0.02 -5.657,2.499 -2.979,1.612 -6.458,3.456 -7.731,4.099 -1.274,0.643 -2.326,1.197 -2.339,1.232 -0.1,0.272 -0.423,104.357 -0.324,104.519 0.07,0.115 0.326,0.151 0.568,0.08 0.243,-0.07 2.941,-0.684 5.997,-1.362 z m 38.629,-16.908 v -17.187 l -1.045,-0.217 c -1.411,-0.293 -2.043,-0.907 -1.944,-1.889 0.07,-0.67 0.505,-1.082 2.959,-2.788 l 2.88,-2.002 -0.166,-2.536 c -0.09,-1.395 -0.17,-15.774 -0.174,-31.952 0,-24.164 -0.07,-29.415 -0.355,-29.415 -0.192,0 -2.065,-0.477 -4.162,-1.06 -5.796,-1.612 -16.157,-4.281 -16.24,-4.185 -0.163,0.188 -0.322,9.98 -0.166,10.232 0.09,0.149 0.493,0.395 0.89,0.546 0.9,0.342 0.977,0.938 0.09,0.716 -0.541,-0.136 -0.652,-0.04 -0.793,0.666 -0.429,2.142 0.04,96.036 0.481,96.477 0.172,0.173 16.385,1.889 17.213,1.822 0.523,-0.04 0.529,-0.233 0.529,-17.228 z m -7.143,-49.374 c -2.62,-0.569 -5.805,-1.227 -7.078,-1.462 l -2.315,-0.428 v -9.961 c 0,-5.478 0.121,-11.137 0.261,-12.575 0.287,-2.957 1.187,-6.603 1.742,-7.064 0.421,-0.349 0.511,-0.89 0.107,-0.64 -0.357,0.221 0.128,-1.034 0.935,-2.417 0.687,-1.177 2.944,-3.339 4.121,-3.948 0.711,-0.368 0.751,-0.345 2.266,1.309 3.05,3.332 4.562,6.826 5.119,11.825 0.317,2.844 0.103,26.459 -0.239,26.416 -0.09,-0.01 -2.307,-0.486 -4.926,-1.055 z m 4.72,-4.259 c 0.1,-2.643 0.174,-8.401 0.174,-12.797 0,-10.852 -0.459,-13.291 -3.315,-17.588 -1.626,-2.447 -2.827,-3.549 -3.645,-3.343 -1.429,0.358 -5.191,4.593 -4.888,5.501 0.06,0.175 0.362,-0.1 0.675,-0.603 0.743,-1.202 3.87,-4.2 4.381,-4.2 0.786,0 2.823,3.041 4.089,6.106 1.78,4.307 1.99,6.696 1.646,18.715 -0.152,5.321 -0.315,9.712 -0.363,9.76 -0.05,0.05 -2.754,-0.57 -6.014,-1.372 -3.26,-0.802 -6.076,-1.458 -6.258,-1.459 -0.224,0 -0.331,0.46 -0.331,1.422 0,0.825 0.139,1.531 0.331,1.68 0.182,0.141 2.236,0.636 4.564,1.099 2.329,0.464 5.186,1.066 6.35,1.339 1.164,0.274 2.187,0.508 2.274,0.521 0.09,0.01 0.235,-2.138 0.33,-4.781 z m 7.254,54.711 0.07,-16.108 -1.101,0.177 c -0.606,0.1 -1.202,0.238 -1.325,0.314 -0.255,0.158 -0.312,30.791 -0.06,31.452 0.124,0.323 0.441,0.412 1.257,0.352 l 1.091,-0.08 z m 6.902,15.042 c 2.523,-0.36 4.637,-0.654 4.696,-0.654 0.06,0 0.108,-7.509 0.108,-16.687 0,-15.768 -0.03,-16.679 -0.463,-16.548 -0.255,0.08 -1.773,0.441 -3.374,0.81 -1.6,0.37 -3.803,0.884 -4.894,1.143 l -1.985,0.471 -0.07,16.193 -0.07,16.193 0.729,-0.133 c 0.402,-0.07 2.795,-0.427 5.319,-0.788 z m 14.095,-8.724 c -0.06,-4.657 -0.174,-12.158 -0.264,-16.669 l -0.164,-8.202 -3.77,-0.07 -3.771,-0.07 0.09,16.61 0.09,16.61 2.03,0.08 2.03,0.08 0.05,-10.528 0.05,-10.529 0.177,8.731 c 0.1,4.803 0.194,9.527 0.214,10.5 0.04,1.714 0.06,1.772 0.765,1.885 0.4,0.06 1.144,0.101 1.653,0.08 l 0.926,-0.03 z m -44.655,6.879 c -0.02,-0.582 -0.132,-22.514 -0.241,-48.738 l -0.199,-47.679 -0.685,-0.134 c -0.377,-0.07 -1.251,-0.212 -1.942,-0.306 l -1.257,-0.173 0.04,23.909 c 0.02,13.15 0.11,35.16 0.199,48.912 l 0.16,25.003 1.058,0.167 c 0.583,0.09 1.476,0.151 1.985,0.132 0.906,-0.03 0.925,-0.06 0.884,-1.093 z m -86.789,-0.103 c 1.525,-1.055 5.455,-4.522 11.547,-10.189 2.832,-2.634 6.85,-6.367 8.929,-8.295 2.08,-1.928 5.482,-5.083 7.562,-7.011 2.079,-1.928 5.621,-5.2 7.871,-7.27 2.25,-2.07 4.244,-4.01 4.431,-4.311 1.461,-2.351 -7.551,5.383 -22.021,18.897 -4.066,3.798 -10.287,9.562 -13.825,12.808 -3.537,3.247 -6.431,5.956 -6.431,6.02 0,0.345 0.968,0.02 1.937,-0.649 z m 22.669,-5.621 c 3.275,-1.027 6.37,-1.983 6.88,-2.125 0.509,-0.142 2.414,-0.721 4.233,-1.287 1.819,-0.567 5.331,-1.637 7.805,-2.379 7.486,-2.245 13.686,-4.256 13.548,-4.394 -0.408,-0.408 -13.909,3.402 -27.306,7.706 -3.784,1.216 -8.01,2.567 -9.393,3.004 -5.299,1.674 -14.323,5.071 -14.924,5.619 -0.131,0.12 2.786,-0.793 6.483,-2.029 3.697,-1.236 9.4,-3.088 12.674,-4.115 z m 59.387,-42.496 c -0.104,-26.885 -0.222,-48.921 -0.263,-48.968 -0.05,-0.06 -3.69,-1.064 -3.996,-1.1 -0.313,-0.04 -0.103,57.032 0.317,86.169 l 0.18,12.487 0.697,0.107 c 0.383,0.06 1.271,0.125 1.975,0.147 l 1.278,0.04 z m -29.67,47.421 c 0.818,-0.102 1.595,-0.321 1.725,-0.487 0.13,-0.166 0.311,-1.673 0.402,-3.349 0.09,-1.677 0.242,-3.82 0.335,-4.763 0.123,-1.254 0.09,-1.641 -0.126,-1.44 -0.364,0.338 -4.163,8.725 -4.425,9.77 -0.153,0.61 -0.113,0.729 0.205,0.607 0.217,-0.08 1.065,-0.236 1.884,-0.338 z m 178.941,-19.677 0.562,-1.281 -2.08,-0.174 c -1.144,-0.09 -2.439,-0.245 -2.878,-0.333 l -0.797,-0.159 v 1.471 c 0,1.462 0,1.472 0.86,1.578 0.473,0.06 1.515,0.123 2.315,0.143 l 1.455,0.04 z m 0.174,-4.064 c -1.943,-2.533 -6.442,-8.589 -8.697,-11.708 -1.577,-2.183 -4.421,-6.072 -6.318,-8.644 -10.196,-13.82 -15.014,-20.405 -18.07,-24.693 -1.867,-2.62 -5.692,-7.959 -8.501,-11.865 -2.808,-3.906 -5.349,-7.686 -5.645,-8.4 -0.454,-1.092 -0.696,-1.345 -1.52,-1.592 -0.813,-0.244 -1.132,-0.215 -1.871,0.167 -1.007,0.52 -0.949,0.465 -22.472,21.425 -17.197,16.748 -24.102,23.374 -27.457,26.348 -1.248,1.107 -2.084,2.035 -1.951,2.167 0.502,0.502 2.275,0.938 2.76,0.678 0.554,-0.296 6.223,-5.775 18.44,-17.818 14.315,-14.114 29.067,-28.399 30.472,-29.509 1.22,-0.965 2.03,-1.359 1.702,-0.829 -0.07,0.121 0.197,0.627 0.602,1.125 0.77,0.946 7.784,10.529 15.475,21.145 2.477,3.42 6.654,9.153 9.281,12.74 4.706,6.425 6.63,9.07 13.254,18.217 1.844,2.546 3.716,5.012 4.16,5.479 0.59,0.62 0.734,0.941 0.536,1.191 -0.148,0.187 -0.542,1.175 -0.873,2.193 -0.332,1.019 -0.658,2.001 -0.725,2.183 -0.09,0.255 0.769,0.331 3.775,0.331 3.077,0 3.844,-0.07 3.643,-0.331 z m -121.907,-5.873 c 0.832,-0.348 0.917,-0.483 0.917,-1.456 0,-1.212 -0.243,-1.309 -1.728,-0.688 -0.833,0.348 -0.918,0.482 -0.918,1.455 0,1.213 0.243,1.309 1.729,0.689 z m 7.413,-1.991 c 2.482,-0.606 4.659,-1.193 4.838,-1.304 0.499,-0.308 0.733,-2.143 0.274,-2.143 -0.735,0 -10.161,2.433 -10.493,2.709 -0.272,0.226 -0.312,1.206 -0.08,2.005 0.01,0.05 0.233,0.03 0.487,-0.04 0.255,-0.07 2.494,-0.62 4.975,-1.226 z m 14.142,-2.226 v -1.424 l -3.638,-0.117 c -2.001,-0.06 -3.787,-0.06 -3.969,0 -0.356,0.123 -0.451,1.851 -0.128,2.333 0.341,0.512 0.917,0.593 4.361,0.614 l 3.374,0.02 z m -20.846,-0.156 c 2.557,-0.724 6.299,-1.704 8.316,-2.178 3.566,-0.84 3.812,-0.862 9.033,-0.812 3.246,0.03 5.307,-0.05 5.215,-0.194 -0.252,-0.408 -4.115,-1.509 -5.952,-1.698 -2.521,-0.258 -7.796,0.977 -16.946,3.969 -4.346,1.421 -6.057,2.203 -4.863,2.221 0.301,0 2.64,-0.584 5.197,-1.308 z m 2.124,-24.496 c 0.03,-9.814 0.07,-20.838 0.07,-24.498 v -6.654 l -0.926,-0.316 c -0.509,-0.174 -1.253,-0.397 -1.653,-0.495 l -0.728,-0.178 v 26.214 26.214 l 1.588,-1.221 1.587,-1.222 z m -44.514,-4.156 c 1.674,-0.651 3.4,-1.298 3.837,-1.437 0.663,-0.212 0.807,-0.41 0.875,-1.212 l 0.08,-0.958 -3.51,1.177 c -1.93,0.648 -3.678,1.178 -3.884,1.178 -0.57,0 -0.283,-21.828 0.334,-25.4 0.403,-2.331 1.581,-6.148 2.641,-8.557 0.824,-1.873 -0.152,-0.685 -1.071,1.302 -2.25,4.871 -2.623,8.046 -2.884,24.556 -0.142,8.992 -0.111,10.796 0.184,10.678 0.195,-0.08 1.724,-0.675 3.397,-1.327 z m -9.194,-27.462 0.992,-0.355 v -4.445 c 0,-2.444 -0.07,-4.445 -0.158,-4.445 -0.331,0 -2.099,0.911 -2.285,1.177 -0.107,0.153 -0.196,2.167 -0.199,4.474 0,3.247 0.07,4.168 0.327,4.072 0.182,-0.07 0.777,-0.283 1.323,-0.478 z m 120.863,-1.192 c 0.681,-0.821 1.878,-1.24 3.073,-1.076 1.091,0.15 1.146,0.125 1.146,-0.513 0,-0.518 -0.215,-0.759 -0.948,-1.066 -0.85,-0.355 -1.101,-0.351 -2.447,0.04 -1.679,0.488 -1.887,0.693 -1.893,1.861 0,1.202 0.437,1.515 1.069,0.754 z m -67.483,-4.447 v -4.596 l -1.036,-0.166 c -0.569,-0.09 -1.227,-0.239 -1.461,-0.329 -0.384,-0.147 -0.419,0.294 -0.354,4.408 l 0.07,4.571 1.059,0.326 c 0.582,0.18 1.207,0.339 1.389,0.355 0.253,0.02 0.331,-1.053 0.331,-4.569 z m 70.224,-6.854 -0.19,-6.888 1.032,0.178 c 3.254,0.559 3.282,0.558 3.282,-0.141 0,-0.592 -0.187,-0.692 -2.173,-1.166 -2.517,-0.601 -2.521,-0.608 -2.564,-3.866 -0.01,-1.12 -0.132,-2.101 -0.261,-2.18 -0.504,-0.312 -0.804,0.633 -0.878,2.772 l -0.08,2.236 -0.793,-0.07 c -0.437,-0.04 -1.373,-0.205 -2.081,-0.364 -1.04,-0.234 -1.33,-0.22 -1.517,0.07 -0.468,0.74 -0.193,0.95 1.859,1.418 1.154,0.264 2.215,0.551 2.357,0.639 0.15,0.09 0.339,3.164 0.451,7.319 l 0.193,7.158 0.776,-0.114 0.776,-0.114 z m -96.151,1.992 c 0,-2.001 0.08,-4.255 0.167,-5.008 l 0.164,-1.37 -1.027,-0.267 c -0.564,-0.148 -1.473,-0.348 -2.019,-0.446 l -0.992,-0.178 v 5.151 5.151 l 1.125,0.271 c 0.618,0.148 1.452,0.284 1.852,0.302 l 0.727,0.03 z m -4.551,-2.426 c -0.05,-2.753 -0.164,-5.088 -0.265,-5.189 -0.101,-0.101 -0.965,-0.246 -1.919,-0.322 l -1.734,-0.139 v 5.016 5.017 l 1.653,0.269 c 0.91,0.148 1.81,0.288 2.001,0.311 0.278,0.03 0.33,-0.954 0.264,-4.963 z m -15.561,-1.814 c 4.001,-2.143 8.139,-4.313 9.197,-4.822 1.893,-0.912 1.921,-0.94 1.799,-1.819 -0.171,-1.231 -0.309,-1.296 -1.422,-0.666 -3.091,1.749 -17.972,10.811 -18.304,11.147 -1.118,1.13 2.068,-0.272 8.73,-3.84 z m 46.969,2.219 c 0.479,-0.35 0.461,-0.393 -0.363,-0.894 -0.859,-0.522 -6.996,-2.334 -15.913,-4.697 -2.547,-0.675 -5.881,-1.573 -7.409,-1.996 -1.528,-0.423 -4.504,-1.127 -6.614,-1.565 -5.654,-1.172 -6.468,-1.061 -4.667,0.638 0.751,0.708 1.341,0.934 3.771,1.445 1.584,0.334 8.716,2.071 15.848,3.862 15.858,3.982 14.636,3.726 15.347,3.207 z m -5.204,-4.137 c -1.283,-0.749 -11.698,-4.175 -16.025,-5.271 -1.196,-0.303 -4.053,-1.085 -6.348,-1.738 -2.296,-0.653 -4.458,-1.187 -4.806,-1.187 -0.347,0 -1.053,0.26 -1.568,0.578 l -0.936,0.579 2.757,0.471 c 4.901,0.836 11.404,2.455 23.262,5.788 3.79,1.066 4.363,1.188 3.664,0.78 z m -40.144,-2.825 c 0.593,-0.393 1.183,-0.986 1.309,-1.319 0.234,-0.616 0.383,-22.524 0.154,-22.753 -0.07,-0.07 -0.268,0.568 -0.443,1.416 -0.513,2.493 -0.808,3.088 -0.633,1.278 0.214,-2.215 1.434,-4.18 1.777,-2.859 0.1,0.372 0.13,0.345 0.154,-0.126 0.09,-1.807 1.95,-5.614 2.74,-5.614 0.165,0 -0.02,0.335 -0.414,0.745 -0.859,0.897 -1.654,3.056 -2.031,5.515 -0.168,1.097 -0.249,5.857 -0.205,12.086 l 0.07,10.277 0.728,-0.573 0.727,-0.572 0.06,-10.498 c 0.05,-9.159 0.08,-9.789 0.215,-4.942 l 0.157,5.557 0.02,-6.218 c 0.01,-3.42 0.09,-6.396 0.175,-6.615 0.09,-0.218 0.332,-1.079 0.545,-1.914 0.616,-2.415 0.751,-2.541 1.565,-1.473 1.451,1.902 1.499,2.326 1.499,13.327 0,5.687 0.104,10.202 0.237,10.284 0.13,0.08 0.5,-0.07 0.821,-0.327 l 0.584,-0.473 0.145,-14.386 c 0.125,-12.298 0.09,-14.365 -0.226,-14.243 -0.205,0.08 -1.622,1.011 -3.15,2.071 -3.19,2.216 -6.576,4.5 -7.241,4.885 -0.419,0.244 -0.469,1.39 -0.618,14.222 -0.09,7.676 -0.08,13.956 0.02,13.956 0.1,0 0.666,-0.321 1.26,-0.714 z m 38.067,-15.227 v -15.412 l -5.754,-1.747 c -3.165,-0.961 -7.541,-2.411 -9.724,-3.222 l -3.968,-1.474 -0.192,5.074 c -0.106,2.79 -0.121,9.855 -0.03,15.7 l 0.16,10.627 1.142,0.287 c 0.628,0.158 1.192,0.288 1.253,0.288 0.06,0 0.175,-4.733 0.252,-10.518 0.153,-11.506 0.214,-12.001 1.751,-14.132 0.455,-0.631 1.248,-1.433 1.761,-1.783 0.805,-0.547 1.019,-0.59 1.545,-0.309 0.655,0.351 2.127,2.637 2.397,3.723 0.09,0.364 -0.185,0.01 -0.613,-0.794 -0.898,-1.681 -1.735,-2.646 -2.296,-2.646 -0.702,0 -2.686,2.095 -3.327,3.512 -0.621,1.373 -0.626,1.463 -0.694,12.268 -0.06,9.62 -0.02,10.903 0.341,11.042 0.225,0.09 0.461,0.01 0.524,-0.169 0.06,-0.18 0.148,-5.03 0.188,-10.778 0.07,-10.242 0.09,-10.477 0.677,-11.759 1.455,-3.155 2.68,-3.817 3.568,-1.927 1.247,2.655 1.31,3.394 1.269,15.043 -0.04,12.103 -0.161,11.185 1.485,11.501 l 0.574,0.11 0.102,-10.784 c 0.09,-9.41 0.159,-10.933 0.556,-11.96 0.251,-0.648 0.651,-1.393 0.888,-1.655 0.238,-0.263 0.357,-0.554 0.264,-0.647 -0.278,-0.278 -0.976,0.461 -1.643,1.742 -0.347,0.664 -0.635,1.084 -0.642,0.932 0,-0.152 0.376,-0.926 0.85,-1.72 1.181,-1.976 1.622,-1.917 2.818,0.378 l 0.95,1.821 0.132,11.928 0.132,11.928 1.456,0.456 c 0.8,0.251 1.544,0.463 1.653,0.472 0.109,0.01 0.199,-6.919 0.198,-15.396 z m -8.403,0.562 c -0.03,-5.184 -0.122,-9.827 -0.194,-10.318 l -0.132,-0.893 0.267,0.843 c 0.165,0.522 0.239,4.465 0.194,10.319 l -0.07,9.475 z m -11.969,-6.742 v -15.507 l -0.728,0.178 c -0.4,0.1 -1.882,0.535 -3.293,0.971 l -2.566,0.793 -0.135,1.108 c -0.187,1.545 -0.416,26.475 -0.248,27.116 0.09,0.342 0.298,0.479 0.604,0.399 0.435,-0.113 0.479,-0.882 0.615,-10.883 0.135,-9.954 0.187,-10.892 0.7,-12.515 0.848,-2.685 1.235,-2.816 2.272,-0.775 0.419,0.823 0.466,2.028 0.497,12.511 0.04,12.659 -0.04,12.098 1.554,12.107 h 0.728 z m 21.673,-11.324 c -0.314,-0.309 -11.196,-4.49 -14.401,-5.534 -4.531,-1.475 -6.568,-1.827 -8.86,-1.528 l -1.72,0.224 1.73,0.03 c 1.451,0.03 3.333,0.562 11.663,3.313 5.464,1.803 10.162,3.337 10.441,3.408 0.678,0.174 1.284,0.217 1.147,0.08 z m -30.049,-6.175 c 0.435,-0.704 3.174,-13.493 4.292,-20.043 0.397,-2.328 1.429,-7.805 2.292,-12.171 0.864,-4.366 1.622,-8.235 1.687,-8.599 0.359,-2.043 -0.609,1.318 -2.421,8.401 -1.108,4.329 -2.826,10.967 -3.819,14.75 -0.993,3.784 -2.413,9.38 -3.157,12.436 -0.744,3.055 -1.427,5.834 -1.518,6.174 l -0.167,0.619 1.341,-0.68 c 0.738,-0.374 1.399,-0.773 1.47,-0.887 z m 21.076,-0.287 c 0,-0.541 -1.094,-5.984 -3.305,-16.449 -0.815,-3.856 -1.887,-8.976 -2.382,-11.377 -0.495,-2.401 -1.313,-6.211 -1.818,-8.467 -0.504,-2.255 -1.064,-4.815 -1.244,-5.688 -0.273,-1.326 -0.357,-1.478 -0.511,-0.926 -0.232,0.834 -0.4,16.478 -0.324,30.167 l 0.06,10.456 3.632,1.103 c 1.997,0.608 3.662,1.074 3.698,1.038 0.04,-0.04 -0.102,-0.714 -0.308,-1.506 -1.844,-7.091 -2.2,-8.908 -4.224,-21.547 -1.9,-11.869 -2.881,-19.618 -2.424,-19.16 0.06,0.06 0.484,2.73 0.941,5.931 2.039,14.28 3.932,25.14 5.902,33.856 0.531,2.348 0.667,2.654 1.253,2.818 1.009,0.28 1.055,0.27 1.055,-0.249 z m -18.825,-0.974 c 0.633,-0.362 1.308,-0.658 1.498,-0.658 0.385,0 0.512,-0.648 0.935,-4.763 0.156,-1.528 0.64,-5.457 1.074,-8.731 1.753,-13.227 3.126,-26.003 2.317,-21.563 -0.132,0.727 -0.769,4.001 -1.414,7.276 -0.645,3.274 -1.482,7.788 -1.858,10.031 -0.663,3.941 -2.884,14.606 -3.667,17.607 -0.211,0.806 -0.305,1.464 -0.21,1.463 0.1,0 0.692,-0.3 1.325,-0.662 z m 6.74,-1.337 2.07,-0.164 -0.122,-22.134 c -0.07,-12.174 -0.227,-22.611 -0.357,-23.193 l -0.234,-1.058 -0.332,1.455 c -0.183,0.8 -0.569,4.015 -0.858,7.144 -0.77,8.313 -1.476,14.812 -2.503,23.018 -0.93,7.426 -1.719,14.305 -1.719,14.978 0,0.279 0.252,0.342 0.992,0.246 0.546,-0.07 1.924,-0.202 3.063,-0.292 z m -0.435,-36.942 c -0.08,-0.211 -0.147,-0.148 -0.159,0.16 -0.01,0.279 0.05,0.435 0.139,0.347 0.09,-0.09 0.1,-0.316 0.02,-0.507 z" id="path19"/></g></svg>