<?xml version="1.0" standalone="no"?>
<!DOCTYPE svg PUBLIC "-//W3C//DTD SVG 20010904//EN"
 "http://www.w3.org/TR/2001/REC-SVG-20010904/DTD/svg10.dtd">
<svg version="1.0" xmlns="http://www.w3.org/2000/svg"
 width="665.000000pt" height="667.000000pt" viewBox="0 0 665.000000 667.000000"
 preserveAspectRatio="xMidYMid meet">

<g transform="translate(0.000000,667.000000) scale(0.100000,-0.100000)"
fill="#000000" stroke="none">
<path d="M875 6576 c-159 -26 -265 -67 -390 -151 -253 -168 -414 -459 -416
-755 -1 -109 19 -159 88 -220 51 -45 95 -60 168 -60 151 2 241 100 256 281 14
175 113 312 269 373 25 10 85 22 133 26 183 18 277 107 277 262 0 74 -22 127
-71 177 -69 70 -169 91 -314 67z"/>
<path d="M1967 6576 c-74 -20 -127 -63 -162 -130 -78 -154 7 -328 178 -367
150 -33 300 92 300 250 0 166 -159 290 -316 247z"/>
<path d="M2988 6576 c-48 -13 -61 -21 -112 -65 -104 -93 -98 -274 12 -373 39
-35 119 -68 167 -68 81 0 187 67 228 144 33 64 31 175 -5 237 -63 108 -177
157 -290 125z"/>
<path d="M4009 6576 c-84 -22 -146 -82 -174 -167 -58 -174 74 -339 270 -339
140 0 286 -94 354 -227 25 -51 51 -153 51 -207 1 -183 201 -303 368 -220 106
53 150 149 138 301 -37 448 -383 807 -831 862 -108 13 -117 13 -176 -3z"/>
<path d="M2390 5035 c-102 -18 -172 -41 -255 -82 -255 -129 -428 -340 -504
-612 l-26 -96 -3 -1625 c-3 -1755 -4 -1727 49 -1882 94 -275 318 -501 585
-592 154 -52 135 -51 1229 -51 1131 0 1049 -5 1130 66 113 100 112 278 -3 381
-78 71 -31 68 -1138 68 -993 0 -993 0 -1051 22 -32 11 -74 31 -93 43 -55 35
-129 120 -158 183 l-27 57 0 1655 0 1655 32 67 c81 171 228 247 476 248 115 0
154 10 214 56 40 30 81 108 89 168 16 111 -67 238 -175 270 -67 20 -261 20
-371 1z"/>
<path d="M3903 5029 c-101 -39 -174 -161 -159 -267 8 -57 52 -138 91 -168 74
-56 33 -54 952 -54 691 0 860 -3 914 -14 120 -26 205 -82 269 -178 75 -113 70
19 70 -1780 0 -1564 -1 -1617 -19 -1670 -24 -69 -43 -101 -95 -157 -76 -81
-184 -131 -281 -131 -90 0 -154 -25 -212 -85 -55 -57 -73 -99 -73 -174 0 -99
57 -188 148 -233 65 -32 197 -30 335 6 183 47 320 129 455 271 138 146 218
311 248 510 21 138 20 3198 -1 3336 -56 377 -323 676 -694 777 l-96 27 -900 2
c-883 2 -901 2 -952 -18z"/>
<path d="M254 4870 c-186 -57 -248 -293 -113 -429 49 -49 103 -71 177 -71 102
0 179 44 225 127 70 131 23 286 -107 351 -52 26 -135 36 -182 22z"/>
<path d="M215 3827 c-94 -45 -145 -126 -145 -231 0 -153 126 -268 276 -253
214 22 307 285 154 434 -48 46 -96 67 -170 70 -53 3 -75 -1 -115 -20z"/>
<path d="M3505 3485 l-25 -24 0 -756 0 -756 25 -24 c47 -48 60 -42 279 137 60
49 112 86 117 81 4 -4 36 -75 72 -158 226 -524 218 -509 263 -521 24 -6 275
98 296 123 6 8 11 26 11 41 0 15 -64 173 -141 351 -78 179 -140 327 -137 329
2 2 82 13 177 23 217 24 242 30 258 68 6 16 9 38 6 49 -4 11 -134 138 -289
283 -155 145 -388 363 -517 484 -310 291 -316 295 -345 295 -14 0 -37 -11 -50
-25z"/>
<path d="M215 2806 c-56 -25 -107 -78 -130 -133 -10 -22 -15 -68 -15 -125 0
-363 237 -705 588 -848 133 -54 320 -82 408 -61 112 27 194 129 194 240 0 90
-16 130 -73 186 -59 57 -90 68 -220 84 -111 13 -180 44 -252 112 -87 82 -135
185 -135 289 0 203 -191 337 -365 256z"/>
</g>
</svg>
