<?xml version="1.0" standalone="no"?>
<!DOCTYPE svg PUBLIC "-//W3C//DTD SVG 20010904//EN"
 "http://www.w3.org/TR/2001/REC-SVG-20010904/DTD/svg10.dtd">
<svg version="1.0" xmlns="http://www.w3.org/2000/svg"
 width="542.000000pt" height="632.000000pt" viewBox="0 0 542.000000 632.000000"
 preserveAspectRatio="xMidYMid meet">

<g transform="translate(0.000000,632.000000) scale(0.100000,-0.100000)"
fill="#000000" stroke="none">
<path d="M2701 6063 l4 -98 -92 4 -93 3 0 -26 0 -26 90 0 90 0 0 -106 c0 -91
-3 -109 -20 -131 -25 -33 -25 -44 2 -78 31 -40 30 -115 -1 -149 -24 -26 -29
-58 -16 -108 5 -19 -23 -137 -99 -415 -203 -742 -212 -772 -244 -816 -17 -23
-47 -65 -67 -94 l-36 -51 40 -81 41 -81 0 -194 c0 -119 -4 -197 -10 -201 -13
-8 -13 -58 0 -71 7 -7 9 -75 8 -185 l-3 -174 -70 -35 c-38 -19 -162 -79 -275
-134 -203 -97 -204 -98 -233 -81 -36 22 -55 14 -59 -25 -2 -22 -99 -152 -375
-504 -205 -261 -373 -480 -373 -488 0 -7 27 -40 60 -73 l60 -60 -2 -444 -3
-444 -38 -30 c-29 -24 -40 -28 -49 -19 -7 7 -25 12 -41 12 -25 0 -31 -6 -49
-48 -20 -47 -22 -49 -62 -48 -37 1 -41 -1 -44 -26 -3 -22 -9 -27 -35 -30 -27
-2 -33 -8 -35 -30 -3 -25 -7 -28 -41 -28 -42 0 -65 -18 -82 -68 l-11 -32 -114
0 c-93 0 -114 -3 -114 -14 0 -8 4 -17 8 -20 15 -9 368 -16 826 -16 253 0 456
-3 452 -7 -4 -4 -21 -12 -39 -18 -24 -8 -33 -17 -37 -40 -4 -25 -10 -31 -37
-33 -21 -2 -34 -10 -38 -23 -6 -17 -16 -19 -91 -19 -77 0 -84 -2 -84 -20 0
-20 7 -20 1455 -20 1448 0 1455 0 1455 20 0 18 -7 20 -84 20 -74 0 -84 2 -89
19 -3 11 -17 22 -36 26 -22 5 -33 14 -37 32 -4 14 -21 33 -38 44 l-31 19 235
0 c448 1 1025 12 1034 20 22 21 -10 30 -109 30 l-104 0 -17 33 c-26 51 -45 67
-78 67 -26 0 -34 5 -43 30 -9 24 -17 30 -41 30 -26 0 -31 4 -34 28 -3 24 -7
27 -42 28 -35 0 -40 4 -60 45 -16 34 -27 45 -49 47 -16 2 -34 -2 -42 -8 -11
-9 -23 -5 -55 21 l-40 32 0 434 c0 485 -4 457 74 533 25 24 46 47 46 51 0 6
-136 185 -262 344 -427 541 -488 622 -488 648 0 35 -24 45 -50 22 -19 -17 -22
-17 -67 3 -146 62 -523 253 -524 264 -5 53 5 335 12 342 14 15 11 60 -6 82
-11 15 -14 57 -15 204 0 202 -5 179 62 279 26 39 22 73 -17 127 -18 27 -46 66
-61 87 -27 38 -37 69 -164 542 -34 127 -88 328 -121 447 -55 205 -58 221 -47
263 12 43 11 46 -15 73 -22 23 -27 37 -27 81 0 38 6 60 20 78 11 14 20 31 20
38 0 7 -9 24 -20 38 -17 22 -20 40 -20 131 l0 106 90 0 90 0 0 26 0 27 -90 -6
-90 -6 0 100 0 99 -26 0 -26 0 3 -97z m53 -659 c5 -12 0 -15 -21 -12 -14 2
-28 9 -31 16 -6 18 45 15 52 -4z m-4 -415 c0 -5 -11 -9 -25 -9 -24 0 -32 10
-19 22 8 8 44 -3 44 -13z m5 -39 c4 -6 -8 -10 -30 -10 -22 0 -34 4 -30 10 3 6
17 10 30 10 13 0 27 -4 30 -10z m10 -50 c4 -6 -10 -10 -34 -10 -23 0 -41 5
-41 10 0 6 15 10 34 10 19 0 38 -4 41 -10z m3 -47 c2 -9 -10 -13 -42 -13 -43
0 -55 7 -39 24 12 11 76 2 81 -11z m-4 -39 c33 -13 14 -24 -39 -24 -51 0 -65
7 -48 23 8 9 66 9 87 1z m18 -61 c10 -10 -2 -13 -56 -13 -54 0 -66 3 -58 13
14 16 97 16 114 0z m16 -60 c3 -10 -16 -13 -72 -13 -62 0 -76 3 -76 15 0 13
12 15 72 13 46 -2 73 -7 76 -15z m-14 -39 c9 -3 16 -12 16 -20 0 -11 -18 -14
-75 -14 -56 0 -75 3 -75 13 0 8 3 17 7 20 8 9 106 9 127 1z m26 -69 c0 -12
-16 -15 -85 -15 -69 0 -85 3 -85 15 0 12 16 15 85 15 69 0 85 -3 85 -15z m10
-55 c0 -19 -7 -20 -95 -20 -73 0 -95 3 -95 13 0 24 12 27 102 27 81 0 88 -2
88 -20z m-12 -46 c51 -14 16 -24 -83 -24 -96 0 -117 5 -98 23 8 9 150 9 181 1z
m1 -50 c65 -13 27 -24 -86 -24 -73 0 -113 4 -107 9 8 9 33 12 135 19 15 1 41
-1 58 -4z m25 -50 c41 -16 6 -24 -104 -24 -110 0 -132 5 -113 23 8 9 196 9
217 1z m-51 -51 c-35 -2 -91 -2 -125 0 -35 2 -7 3 62 3 69 0 97 -1 63 -3z m32
-22 c29 -6 6 -9 -85 -9 -77 0 -114 3 -95 8 41 10 131 11 180 1z m-23 -38 c-40
-2 -103 -2 -140 0 -37 2 -4 3 73 3 77 0 107 -2 67 -3z m45 -39 c-8 -9 -216 -8
-224 0 -4 3 47 6 112 6 65 0 115 -3 112 -6z m-29 -71 c-42 -2 -114 -2 -160 0
-46 1 -11 3 77 3 88 0 125 -2 83 -3z m122 -108 c0 -13 -30 -15 -210 -15 -182
0 -209 2 -204 15 5 13 38 15 210 15 175 0 204 -2 204 -15z m-472 -7 c-5 -15
-166 -80 -187 -76 -13 3 161 86 182 87 5 1 7 -5 5 -11z m637 -29 c91 -36 116
-53 65 -43 -41 8 -113 38 -143 59 -33 23 -10 18 78 -16z m-48 -69 c114 -32
118 -34 109 -48 -6 -10 -212 52 -230 69 -16 15 8 11 121 -21z m-538 16 c-6 -6
-190 -76 -200 -76 -20 0 -7 21 19 31 85 35 130 48 156 49 16 0 27 -2 25 -4z
m379 -48 c3 -21 -1 -28 -15 -28 -17 -1 -17 -1 0 -11 22 -13 23 -49 0 -49 -15
0 -14 -2 3 -14 15 -12 17 -18 8 -33 -9 -15 -8 -23 3 -38 13 -18 12 -21 -14
-26 -26 -6 -27 -7 -6 -14 31 -10 37 -34 11 -44 l-22 -8 22 -12 c28 -15 28 -39
0 -51 -18 -7 -19 -9 -5 -9 10 -1 17 -9 17 -21 0 -19 -7 -20 -170 -20 -146 0
-170 2 -170 15 0 9 10 20 23 25 17 7 18 9 4 9 -25 1 -34 31 -13 46 14 11 15
13 1 19 -22 8 -18 33 7 47 l22 12 -24 9 -25 9 24 20 c23 19 23 19 2 19 -28 0
-27 23 2 43 l22 16 -22 0 c-27 1 -28 9 -7 39 8 12 11 22 6 22 -16 0 -23 32
-11 47 9 11 44 13 168 11 l156 -3 3 -27z m136 -43 c51 -14 63 -21 54 -31 -9
-8 -138 38 -138 49 0 5 8 6 18 2 9 -4 39 -13 66 -20z m-524 6 c0 -9 -35 -26
-88 -41 -50 -14 -35 11 19 32 50 19 69 22 69 9z m-2 -62 c-2 -6 -31 -20 -63
-30 -73 -23 -76 -23 -69 -4 10 25 140 59 132 34z m541 -9 c24 -11 41 -23 38
-26 -6 -6 -137 34 -137 42 0 11 60 1 99 -16z m-535 -44 c-6 -16 -43 -32 -97
-42 -58 -10 -38 20 26 39 67 20 78 20 71 3z m535 -16 c24 -11 41 -23 38 -26
-7 -7 -107 24 -121 37 -18 17 38 9 83 -11z m-544 -50 c-10 -11 -36 -25 -57
-31 -22 -5 -46 -13 -54 -16 -9 -3 -14 2 -14 15 0 16 11 24 48 35 26 8 58 15
71 16 23 1 24 0 6 -19z m544 -10 c24 -11 41 -23 38 -26 -8 -8 -114 24 -122 36
-10 17 37 11 84 -10z m-534 -39 c8 -13 -11 -24 -78 -42 -35 -10 -60 -13 -63
-7 -10 15 11 30 63 44 59 16 70 16 78 5z m543 -17 c40 -16 43 -37 5 -28 -59
13 -92 26 -104 40 -11 14 -8 15 27 9 21 -4 54 -13 72 -21z m-548 -58 c-22 -22
-122 -48 -134 -36 -16 16 9 33 72 51 60 16 87 10 62 -15z m542 2 c20 -6 39
-17 43 -26 4 -12 -1 -13 -31 -7 -61 11 -107 29 -112 44 -5 14 22 11 100 -11z
m-537 -68 c0 -20 -9 -26 -60 -42 -76 -22 -85 -22 -85 1 0 25 15 36 75 54 61
18 70 17 70 -13z m509 10 c36 -12 66 -24 66 -28 0 -4 3 -17 6 -29 l6 -23 -55
19 c-78 27 -97 39 -97 61 0 24 -6 24 74 0z m-119 -25 c0 -19 -8 -20 -164 -23
-165 -3 -189 2 -178 33 6 13 28 15 174 13 160 -3 168 -4 168 -23z m-365 -33
c0 -10 -169 -66 -177 -59 -8 8 51 36 109 51 64 18 68 18 68 8z m494 -23 c87
-32 75 -40 -16 -12 -46 14 -85 27 -87 29 -13 12 56 1 103 -17z m-339 -69 c-3
-5 -35 -10 -71 -10 -36 0 -64 4 -64 10 0 6 30 10 71 10 44 0 68 -4 64 -10z
m178 3 c-18 -2 -48 -2 -65 0 -18 2 -4 4 32 4 36 0 50 -2 33 -4z m-373 -22 c0
-10 -41 -25 -99 -36 -26 -6 -32 -4 -29 6 8 26 128 53 128 30z m570 -16 c14 -8
19 -14 11 -15 -21 0 -95 22 -106 33 -14 14 64 -2 95 -18z m-399 -4 c-15 -27
-108 -34 -114 -9 -7 25 0 28 65 28 55 0 58 -1 49 -19z m239 -1 c0 -17 -7 -20
-43 -20 -31 0 -49 6 -62 20 -18 20 -17 20 43 20 55 0 62 -2 62 -20z m-36 -173
c56 -66 112 -134 126 -151 62 -78 399 -479 632 -755 206 -241 256 -306 247
-317 -26 -31 -4 -53 -361 367 -124 147 -350 413 -502 593 -151 180 -277 328
-280 329 -2 1 -152 -174 -333 -388 -648 -771 -774 -916 -791 -913 -40 8 -20
41 131 218 12 14 213 252 447 530 407 483 450 535 515 624 l28 39 20 -28 c11
-15 66 -82 121 -148z m-366 146 c-4 -21 -114 -61 -128 -47 -16 16 5 34 56 48
68 19 76 19 72 -1z m547 -7 c19 -8 35 -22 35 -30 0 -12 -7 -12 -49 -1 -56 14
-71 22 -71 36 0 14 46 11 85 -5z m-161 -2 c23 -9 21 -54 -2 -54 -20 0 -62 27
-62 40 0 7 15 14 42 19 3 0 13 -2 22 -5z m-254 -14 c0 -12 -34 -30 -58 -30
-20 0 -36 23 -25 34 10 10 83 7 83 -4z m-130 -45 c0 -8 -23 -20 -54 -29 -71
-21 -88 -20 -84 1 2 12 22 23 63 34 63 17 75 16 75 -6z m578 -23 c11 -14 10
-17 -5 -20 -31 -4 -108 23 -111 40 -3 13 4 14 50 6 29 -5 59 -17 66 -26z
m-488 10 c0 -5 -9 -17 -20 -27 -20 -18 -20 -17 -20 8 0 20 5 27 20 27 11 0 20
-4 20 -8z m-97 -59 c-8 -20 -46 -33 -94 -33 -66 0 -47 29 36 53 51 15 69 9 58
-20z m584 -5 c22 -18 14 -28 -22 -28 -41 0 -82 17 -90 38 -4 12 3 14 47 8 29
-4 58 -12 65 -18z m155 -613 c274 -324 496 -590 494 -592 -8 -8 -53 17 -79 43
-16 15 -229 268 -473 561 -245 293 -450 530 -456 527 -5 -4 -212 -250 -460
-548 -247 -297 -460 -549 -472 -559 -13 -11 -31 -17 -40 -15 -13 2 3 27 66
103 46 55 90 108 99 118 9 10 193 229 410 487 217 258 399 468 404 467 6 -2
234 -268 507 -592z m-757 555 c-23 -25 -93 -46 -108 -31 -5 5 -7 16 -4 25 6
15 33 22 96 25 34 1 34 1 16 -19z m593 -7 c31 -19 19 -33 -20 -23 -49 11 -66
20 -72 35 -6 17 58 9 92 -12z m-628 -51 c0 -8 -14 -16 -62 -40 -17 -8 -7 28
10 37 21 13 52 14 52 3z m733 -532 c241 -289 443 -534 449 -545 7 -11 15 -44
19 -74 5 -34 15 -60 28 -73 21 -19 21 -23 19 -556 l-3 -537 -145 -3 c-144 -3
-203 -15 -119 -26 24 -3 102 -8 173 -11 135 -7 156 -11 156 -27 0 -14 -580 0
-598 15 -11 9 -13 76 -10 347 l3 336 29 44 c35 53 36 89 3 139 -13 20 -34 70
-46 111 l-23 75 -191 193 -191 192 -184 -182 c-192 -192 -225 -237 -238 -328
-4 -25 -17 -56 -29 -70 -35 -39 -35 -51 -1 -110 l31 -55 0 -345 0 -345 -59 -6
c-33 -4 -173 -10 -310 -14 -225 -6 -249 -5 -236 8 11 12 48 17 150 22 74 3
155 8 179 11 84 11 25 23 -119 26 l-145 3 -3 535 c-2 522 -2 535 18 562 11 15
20 40 20 55 0 15 8 45 18 65 21 46 893 1097 907 1094 6 -1 207 -238 448 -526z
m-92 513 c13 -15 11 -16 -16 -9 -41 10 -56 26 -23 26 14 0 32 -7 39 -17z
m-995 -232 c-5 -8 -41 -23 -188 -82 -27 -10 -48 -15 -48 -10 0 4 53 29 118 54
135 53 125 50 118 38z m1409 -42 c58 -23 103 -44 101 -47 -5 -5 -216 77 -216
84 0 7 9 4 115 -37z m135 -103 c63 -21 121 -40 129 -42 8 -2 11 -7 8 -10 -7
-7 -258 75 -272 89 -7 7 -5 8 5 5 8 -3 67 -22 130 -42z m-1681 30 c-11 -9
-273 -96 -264 -87 13 13 105 50 180 72 57 17 94 23 84 15z m1881 -166 c0 -5
-37 5 -82 22 -46 17 -104 38 -130 46 -27 9 -48 19 -48 22 0 4 59 -14 130 -38
72 -24 130 -48 130 -52z m-1965 80 c-85 -36 -214 -80 -235 -79 -25 1 212 87
240 88 9 0 7 -4 -5 -9z m-160 -115 c-111 -40 -168 -55 -152 -38 10 9 238 82
257 82 8 0 -39 -20 -105 -44z m2077 3 c60 -18 108 -36 108 -40 0 -12 -8 -10
-125 32 -135 48 -127 51 17 8z m-2033 -43 c-11 -10 -242 -86 -253 -82 -6 2 43
22 109 45 111 37 155 49 144 37z m2079 -31 c65 -20 119 -38 121 -40 25 -22
-101 14 -239 69 -47 18 18 2 118 -29z m-2173 -63 c-15 -13 -205 -74 -212 -67
-7 7 -5 7 117 45 109 34 107 34 95 22z m2257 -28 c48 -14 88 -30 88 -34 0 -4
-12 -4 -27 1 -95 29 -163 52 -163 56 0 7 11 5 102 -23z m-2317 -52 c-14 -13
-215 -74 -222 -68 -3 3 41 20 98 37 57 17 109 33 114 35 17 6 19 5 10 -4z
m2405 -38 c47 -14 81 -27 75 -29 -5 -2 -57 12 -115 31 -118 39 -90 38 40 -2z
m-2545 -64 c-33 -10 -67 -18 -75 -16 -8 2 12 10 45 19 83 22 103 20 30 -3z
m2580 0 c27 -7 44 -14 38 -16 -13 -5 -123 26 -123 33 0 3 8 3 18 0 9 -3 39
-11 67 -17z m-2566 -53 c-8 -9 -223 -75 -228 -71 -7 8 0 11 104 43 94 28 134
37 124 28z m2709 -53 c12 -3 22 -9 22 -13 0 -9 -200 52 -200 61 0 4 35 -4 78
-18 42 -14 87 -28 100 -30z m-1287 -168 c174 -172 205 -218 218 -318 5 -44 10
-52 31 -57 14 -3 26 -14 28 -23 3 -14 -5 -17 -51 -17 l-55 0 -7 56 c-16 128
-49 180 -207 319 l-119 105 -62 -47 c-96 -75 -210 -194 -236 -247 -13 -27 -29
-80 -35 -117 l-10 -69 -54 0 c-46 0 -53 3 -50 18 2 9 13 18 25 20 17 3 24 12
29 40 9 56 32 124 53 157 22 35 322 342 333 341 4 -1 80 -73 169 -161z m-1591
109 c-90 -29 -125 -35 -109 -20 7 7 183 55 199 54 8 0 -32 -15 -90 -34z m2854
12 c85 -24 115 -36 85 -36 -18 0 -197 58 -184 59 6 1 50 -10 99 -23z m-2806
-41 c-9 -10 -209 -66 -221 -62 -6 2 38 17 98 34 114 32 132 36 123 28z m2876
-30 c87 -24 132 -44 69 -31 -44 10 -180 54 -168 55 6 0 50 -10 99 -24z m-1417
-108 c102 -83 149 -137 182 -206 l26 -56 -3 -439 c-2 -242 -5 -443 -8 -448
-20 -31 -24 34 -26 430 -3 432 -3 438 -26 495 -27 66 -113 165 -181 208 -40
26 -46 27 -70 14 -15 -7 -58 -43 -97 -79 -52 -48 -78 -82 -100 -128 l-29 -63
-6 -440 c-3 -242 -6 -441 -7 -443 -1 -2 -6 -2 -12 0 -6 2 -10 160 -12 433 -2
473 -1 479 61 577 25 39 204 206 223 208 3 0 41 -29 85 -63z m-1087 -565 l0
-539 -112 -6 c-62 -4 -206 -10 -320 -13 l-208 -7 0 475 c0 376 3 478 13 486 7
6 49 18 92 27 44 9 106 23 138 30 l58 13 -21 -35 c-11 -19 -29 -61 -40 -94
-18 -53 -20 -86 -20 -341 0 -226 3 -280 13 -270 9 10 13 85 17 277 3 145 8
267 13 271 4 4 15 1 24 -8 13 -14 16 -55 21 -272 l5 -256 23 0 c12 0 25 3 27
8 3 4 8 121 12 260 4 138 12 252 16 252 5 0 9 -93 10 -207 0 -192 6 -275 24
-329 7 -21 3 -22 -92 -29 -54 -4 -106 -9 -115 -11 -18 -5 -25 -29 -10 -37 13
-7 267 24 277 34 6 6 6 14 0 23 -50 67 -47 54 -51 294 -2 186 -6 239 -22 294
-21 74 -45 118 -65 118 -17 0 -49 -35 -70 -75 -13 -24 -16 -26 -17 -10 0 28
43 116 67 138 12 10 71 28 144 43 68 14 126 28 128 30 2 2 13 4 23 4 17 0 18
-23 18 -538z m2155 509 c72 -16 138 -32 147 -36 23 -9 90 -120 86 -141 -2 -12
-10 -5 -28 21 -38 59 -56 66 -85 32 -46 -52 -55 -111 -55 -358 0 -132 -4 -239
-10 -255 -6 -15 -22 -40 -36 -57 -14 -16 -21 -34 -17 -38 15 -15 272 -34 285
-21 14 14 -28 32 -76 32 -18 0 -60 3 -94 6 l-61 7 20 36 c17 32 19 59 20 256
1 230 9 313 22 221 4 -27 7 -140 7 -250 0 -207 3 -226 41 -226 20 0 29 105 29
350 0 138 3 170 15 180 9 7 19 10 23 6 4 -4 9 -127 12 -273 4 -207 8 -267 18
-271 11 -3 13 51 10 290 l-3 294 -37 75 c-20 40 -36 74 -35 75 6 4 274 -60
285 -68 9 -8 12 -118 12 -486 l0 -475 -212 7 c-117 3 -261 9 -320 13 l-108 6
0 538 c0 297 3 539 8 539 4 0 66 -13 137 -29z m-1125 -206 l0 -155 55 0 54 0
3 98 c3 92 4 95 17 67 8 -16 16 -59 19 -95 2 -36 9 -70 14 -77 6 -7 6 -19 -1
-32 -7 -13 -11 -135 -11 -351 l0 -331 -57 3 c-55 3 -58 4 -61 31 -3 25 -1 27
32 27 l36 0 0 310 0 310 -50 0 -50 0 0 -340 0 -340 -25 0 -25 0 -2 338 -3 337
-47 3 -48 3 0 -305 0 -306 36 0 c34 0 35 -1 32 -32 -3 -32 -4 -33 -57 -36 -35
-2 -57 1 -62 9 -4 7 -5 158 -2 335 5 250 3 327 -6 338 -7 9 -9 21 -5 28 5 7 9
38 10 68 2 57 27 130 44 130 6 0 10 -39 10 -95 l0 -95 50 0 50 0 0 155 0 155
25 0 25 0 0 -155z m-70 11 c0 -132 -8 -154 -50 -141 -18 6 -20 14 -20 90 0 46
5 96 11 112 11 31 37 63 51 63 4 0 8 -56 8 -124z m139 85 c19 -27 21 -38 15
-131 -7 -95 -8 -101 -28 -98 -20 3 -21 10 -24 131 -1 76 1 127 7 127 5 0 19
-13 30 -29z m-424 -293 c3 -13 4 -174 3 -358 l-3 -335 -25 0 -25 0 1 195 c1
508 2 520 24 520 12 0 22 -9 25 -22z m699 14 c3 -5 6 -166 7 -358 l3 -349 -22
-3 -22 -3 -2 228 c-3 456 -2 493 16 493 8 0 17 -4 20 -8z m-424 -322 l0 -280
-25 0 -25 0 0 280 0 280 25 0 25 0 0 -280z m158 3 l-3 -278 -22 -3 -23 -3 0
280 0 281 25 0 25 0 -2 -277z m-1168 -393 c0 -6 -10 -15 -22 -20 -31 -12 -621
-40 -632 -29 -21 19 51 30 269 43 299 17 385 19 385 6z m2618 -9 c112 -6 146
-11 159 -24 9 -9 15 -19 12 -21 -2 -3 -126 2 -274 9 -149 8 -288 15 -311 15
-22 0 -49 7 -60 15 -17 13 0 14 156 14 96 0 239 -4 318 -8z m-910 -36 c6 -2
12 -9 12 -15 0 -7 -212 -10 -655 -10 -407 0 -655 4 -655 10 0 5 6 13 14 17 15
8 1260 6 1284 -2z m112 -100 c7 -9 11 -18 8 -20 -3 -3 -348 -4 -768 -3 -727 3
-763 4 -746 21 16 16 66 17 755 17 650 0 740 -2 751 -15z m98 -81 c17 -3 33
-12 36 -20 5 -12 -130 -14 -885 -14 -708 0 -890 3 -887 13 3 8 36 14 94 18
124 7 1605 10 1642 3z m190 -106 c38 -38 52 -38 -1043 -38 -643 0 -1055 4
-1055 9 0 5 7 17 16 25 14 14 122 16 1043 16 785 0 1030 -3 1039 -12z m120
-115 l3 -23 -1160 0 c-795 0 -1162 3 -1166 10 -4 6 -1 17 5 25 11 13 164 15
1164 13 l1151 -3 3 -22z"/>
<path d="M2665 3875 c-24 -23 -25 -29 -25 -165 l0 -140 84 0 85 0 7 56 c8 70
-3 189 -22 226 -27 53 -89 64 -129 23z m92 -41 c21 -20 23 -24 8 -18 -26 10
-55 10 -82 0 -30 -10 -21 17 10 32 31 15 33 15 64 -14z"/>
<path d="M2657 2555 c-62 -23 -98 -55 -123 -109 -40 -86 -26 -164 42 -233 69
-68 155 -81 245 -35 166 84 148 316 -29 377 -55 18 -85 18 -135 0z m126 -39
c42 -17 93 -76 106 -120 33 -120 -89 -233 -212 -196 -147 44 -163 240 -25 309
50 24 86 26 131 7z"/>
<path d="M2646 2469 c-90 -71 -64 -208 45 -240 72 -22 169 49 169 124 0 45
-26 95 -62 117 -45 27 -117 27 -152 -1z"/>
<path d="M2002 1818 c-64 -57 -79 -78 -87 -121 -10 -54 6 -45 40 20 26 49 80
103 105 103 21 0 91 -76 106 -115 9 -25 21 -45 25 -45 18 0 8 54 -16 96 -22
37 -96 104 -117 104 -4 0 -29 -19 -56 -42z"/>
<path d="M3342 1829 c-48 -35 -92 -103 -92 -142 0 -37 14 -34 28 6 15 41 76
114 103 122 29 10 84 -37 114 -96 14 -27 30 -49 35 -49 15 0 12 37 -5 69 -16
32 -111 121 -129 121 -7 0 -31 -14 -54 -31z"/>
<path d="M2018 1728 c-22 -41 -23 -54 -24 -268 0 -124 1 -274 4 -333 l4 -108
57 3 56 3 3 315 c3 327 -1 368 -38 408 -29 31 -36 28 -62 -20z"/>
<path d="M3371 1757 c-38 -46 -41 -79 -41 -412 l0 -326 63 3 62 3 0 325 c0
179 -3 336 -7 350 -8 27 -43 70 -57 70 -5 0 -14 -6 -20 -13z"/>
<path d="M1965 960 c-14 -23 13 -31 91 -28 62 2 79 6 79 18 0 12 -17 16 -82
18 -52 2 -84 -1 -88 -8z"/>
<path d="M3315 960 c-13 -22 10 -30 85 -30 77 0 108 12 79 31 -19 12 -156 11
-164 -1z"/>
<path d="M122 333 c2 -13 15 -19 42 -21 55 -5 87 5 80 23 -5 11 -22 15 -66 15
-51 0 -59 -2 -56 -17z"/>
<path d="M5205 340 c-13 -21 11 -31 66 -28 40 2 54 7 54 18 0 19 -109 28 -120
10z"/>
<path d="M4541 156 c-23 -13 -23 -14 -5 -19 53 -15 73 -16 80 -6 15 25 -41 44
-75 25z"/>
<path d="M4723 160 c-23 -10 -30 -25 -15 -34 5 -3 26 0 48 5 36 10 37 12 19
25 -21 16 -22 16 -52 4z"/>
<path d="M671 151 c-11 -7 -9 -11 8 -20 23 -13 66 2 56 20 -8 11 -45 12 -64 0z"/>
<path d="M825 151 c-3 -6 4 -15 17 -20 30 -11 80 -3 75 13 -5 14 -83 20 -92 7z"/>
<path d="M1016 151 c-11 -18 18 -25 112 -29 88 -4 94 -3 90 14 -3 17 -15 19
-100 22 -54 1 -99 -1 -102 -7z"/>
<path d="M4233 148 c-11 -19 13 -28 71 -28 60 0 126 15 126 28 0 10 -191 9
-197 0z"/>
</g>
</svg>
