<?xml version="1.0" standalone="no"?>
<!DOCTYPE svg PUBLIC "-//W3C//DTD SVG 20010904//EN"
 "http://www.w3.org/TR/2001/REC-SVG-20010904/DTD/svg10.dtd">
<svg version="1.0" xmlns="http://www.w3.org/2000/svg"
 width="152.000000pt" height="182.000000pt" viewBox="0 0 152.000000 182.000000"
 preserveAspectRatio="xMidYMid meet">

<g transform="translate(0.000000,182.000000) scale(0.100000,-0.100000)"
fill="#000000" stroke="none">
<path d="M1242 1799 c-140 -55 -165 -244 -46 -336 51 -38 142 -44 202 -14 106
54 133 199 54 293 -48 57 -145 83 -210 57z"/>
<path d="M145 1633 c-30 -8 -84 -52 -105 -86 -43 -69 -33 -160 23 -224 127
-145 374 -20 327 166 -28 112 -130 172 -245 144z"/>
<path d="M896 1294 l-249 -134 -139 50 c-77 28 -145 50 -152 50 -6 0 -29 -9
-51 -20 -48 -24 -140 -27 -192 -5 -48 20 -48 20 -67 -19 -25 -53 -24 -506 2
-555 52 -104 184 -132 269 -58 59 52 63 72 63 302 0 113 1 205 3 205 1 0 52
-18 112 -39 l110 -39 117 -208 117 -209 0 -241 c1 -234 2 -242 24 -275 36 -54
82 -79 144 -79 30 0 66 6 81 14 41 21 81 68 92 107 6 18 10 135 10 259 0 201
-3 230 -20 268 -10 23 -21 42 -23 42 -2 0 -19 -7 -37 -16 -111 -56 -254 -4
-307 113 -22 47 -25 65 -20 119 4 51 1 69 -15 95 -11 17 -16 35 -11 40 8 7
363 199 370 199 2 0 3 -34 3 -75 0 -74 1 -76 36 -107 78 -69 102 -187 56 -275
l-22 -43 36 -15 c75 -31 169 -8 212 52 39 55 44 98 40 333 -3 195 -6 230 -21
258 -20 36 -17 36 -97 7 -52 -19 -108 -14 -166 15 -21 11 -43 20 -49 19 -5 0
-122 -61 -259 -135z"/>
<path d="M956 1088 c-75 -20 -136 -107 -136 -193 1 -79 78 -166 159 -180 80
-13 177 39 207 112 18 42 18 127 0 162 -22 41 -80 88 -123 100 -44 13 -55 12
-107 -1z"/>
</g>
</svg>
