<?xml version="1.0" standalone="no"?>
<!DOCTYPE svg PUBLIC "-//W3C//DTD SVG 20010904//EN"
 "http://www.w3.org/TR/2001/REC-SVG-20010904/DTD/svg10.dtd">
<svg version="1.0" xmlns="http://www.w3.org/2000/svg"
 width="245.000000pt" height="266.000000pt" viewBox="0 0 245.000000 266.000000"
 preserveAspectRatio="xMidYMid meet">

<g transform="translate(0.000000,266.000000) scale(0.100000,-0.100000)"
fill="#000000" stroke="none">
<path d="M1083 2620 c-77 -27 -160 -86 -209 -149 -49 -62 -96 -149 -88 -162
12 -21 31 -4 59 53 60 122 188 218 320 240 256 43 494 -200 495 -504 0 -91
-16 -160 -55 -243 -98 -205 -299 -307 -496 -249 -187 55 -328 261 -329 481 0
62 -14 88 -32 62 -13 -20 0 -162 22 -233 21 -66 76 -165 116 -207 22 -23 24
-33 24 -121 l0 -95 -58 -17 c-75 -21 -72 -21 -72 14 0 22 -5 30 -17 30 -10 0
-101 -28 -203 -63 -172 -57 -185 -64 -188 -87 -2 -21 -15 -31 -68 -54 -79 -35
-157 -103 -189 -165 -22 -44 -24 -70 -49 -526 -31 -561 -31 -585 -12 -585 17
0 20 34 47 570 11 234 25 448 30 477 8 40 21 64 54 101 39 44 145 112 174 112
8 0 12 -178 13 -627 l3 -628 203 -3 202 -2 0 688 0 688 65 21 65 21 0 -23 c0
-26 10 -30 192 -81 l97 -27 3 -81 c2 -64 6 -81 18 -81 12 0 16 17 18 81 l3 81
77 22 c214 61 212 61 212 83 0 17 4 20 29 15 17 -4 46 -13 65 -21 l36 -15 0
-686 0 -685 203 2 202 3 3 628 c1 449 5 627 13 627 27 0 133 -67 173 -110 35
-37 46 -58 54 -101 6 -30 20 -247 32 -484 26 -529 28 -565 46 -565 19 0 18 21
-12 585 -29 546 -25 528 -119 613 -29 27 -83 62 -119 78 -53 23 -66 33 -68 54
-3 23 -16 29 -188 87 -102 34 -193 62 -202 63 -13 0 -18 -8 -18 -30 0 -35 -5
-36 -77 -13 l-53 17 0 94 c0 93 0 94 36 135 52 61 102 171 120 262 52 266 -92
548 -322 631 -82 30 -203 32 -281 4z m-77 -1010 c26 -16 80 -37 120 -46 l74
-16 0 -89 c0 -49 -3 -89 -7 -89 -5 0 -61 14 -125 32 l-118 33 0 102 c0 57 2
103 5 103 2 0 25 -13 51 -30z m484 -73 l0 -102 -117 -33 c-65 -18 -121 -32
-125 -32 -5 0 -8 40 -8 90 l0 89 38 6 c59 10 124 34 162 60 19 13 38 24 43 24
4 1 7 -45 7 -102z m-742 -768 l-3 -694 -167 -3 -168 -2 0 649 0 649 163 55
c89 30 165 51 170 48 4 -4 6 -320 5 -702z m1282 -50 l0 -649 -167 2 -168 3 -3
690 c-1 380 0 695 2 702 4 8 56 -5 170 -43 l166 -56 0 -649z"/>
<path d="M1126 1022 c-3 -3 -6 -31 -6 -63 l0 -58 -62 -3 -63 -3 -2 -75 c-4
-118 -3 -120 67 -120 l59 0 3 -102 3 -103 95 0 95 0 3 103 3 102 59 0 c69 0
73 5 69 103 -4 98 -3 97 -70 97 l-58 0 -3 63 -3 62 -92 2 c-50 0 -94 -2 -97
-5z m155 -67 c1 -19 3 -39 4 -45 1 -5 3 -17 4 -25 1 -10 17 -15 59 -17 l57 -3
3 -62 3 -63 -55 0 c-47 0 -57 -3 -67 -22 -7 -13 -12 -24 -11 -25 1 -2 2 -39 2
-83 l0 -80 -60 0 c-41 0 -60 4 -61 13 -1 6 -1 46 -1 87 0 102 -6 110 -74 110
l-55 0 3 63 3 62 58 3 c35 2 58 8 59 15 1 14 6 64 7 90 1 14 11 17 61 17 l60
0 1 -35z"/>
<path d="M1205 348 c-3 -8 -4 -79 -3 -158 3 -121 5 -145 18 -145 13 0 15 24
15 154 0 115 -3 155 -12 158 -7 3 -15 -2 -18 -9z"/>
</g>
</svg>
