<?xml version="1.0" encoding="utf-8"?>
<!-- Svg Vector Icons : http://www.onlinewebfonts.com/icon -->
<!DOCTYPE svg PUBLIC "-//W3C//DTD SVG 1.1//EN" "http://www.w3.org/Graphics/SVG/1.1/DTD/svg11.dtd">
<svg version="1.1" xmlns="http://www.w3.org/2000/svg" xmlns:xlink="http://www.w3.org/1999/xlink" x="0px" y="0px" viewBox="0 0 256 256" enable-background="new 0 0 256 256" xml:space="preserve">
<metadata> Svg Vector Icons : http://www.onlinewebfonts.com/icon </metadata>
<g><g><g><path fill="#000000" d="M43.1,27.1c-2.5,0.7-2.6,1-2.6,10.9v9.2h-14H12.3l-1.1,1.2L10,49.6v86.6v86.6l1,1.3l1,1.2h79.9h79.8l3.5,1.2c5.4,1.9,10.6,2.7,17.1,2.7c10,0,18.5-2.2,26.7-7c24.6-14.3,33.9-45,21.4-70.2c-6-11.9-16.2-21.5-28.2-26.2l-3.4-1.3l-0.2-37.6c-0.2-36.1-0.3-37.7-1.1-38.6c-0.9-1-1.3-1-14.9-1h-14l-0.1-9c-0.1-8.7-0.2-9-1.2-10.1c-1-1.1-1.2-1.1-16.2-1.2c-8.3-0.1-15.8,0-16.7,0.1c-0.9,0.1-2,0.7-2.5,1.2c-0.8,0.8-0.9,1.6-0.9,10v9h-31.4H78.2l-0.2-9c-0.1-8.7-0.2-9-1.2-10.1c-1-1.1-1.1-1.1-16.9-1.2C51.2,26.9,43.6,27,43.1,27.1z M70.5,50.8v16.4H59H47.6V50.8V34.4H59h11.4V50.8z M170.9,50.8v16.4h-11.4h-11.4V50.8V34.4h11.4h11.4V50.8z M40.5,63.6c0,8.8,0,9.3,1,10.1s2,0.9,17.6,0.9h16.6l1.1-1.1c1-1,1.1-1.4,1.2-10.1l0.2-9h31.4h31.4v9c0,8.4,0,9.1,1,10c0.5,0.5,1.4,1,2,1.2c0.6,0.1,8.1,0.2,16.7,0.1l15.7-0.1l1.1-1.3c1.1-1.3,1.1-1.5,1.1-10.1v-8.8h11.2h11.2v16.4v16.4l-91.6,0.1l-91.6,0.1V70.9V54.4H29h11.4L40.5,63.6L40.5,63.6z M200.9,108.7v13.9l-2.2-0.3c-1.2-0.1-4-0.3-6.2-0.3h-4v-5.9c0-5.6,0-6-1.1-7.3l-1.1-1.3h-76.9H32.4l-1.1,1.1l-1.1,1.1L30.1,155c0,24.9,0,46,0.1,46.9c0.1,0.9,0.7,2,1.2,2.5c0.9,0.9,2.1,0.9,58.5,0.9h57.6l2,2.7c1.1,1.5,3.8,4.4,5.9,6.4l3.9,3.7H88.4H17.6v-61.8V94.6l91.6,0.1l91.6,0.1V108.7z M60.5,126.3v11.4H49H37.6v-11.4v-11.4H49h11.4V126.3z M90.5,126.3v11.4l-11.3-0.1l-11.3-0.1l-0.1-11.3l-0.1-11.3H79h11.4V126.3z M120.7,115.9c-0.1,0.6-0.3,5.8-0.3,11.4v10.4h-11.2H98.1L98,126.3l-0.1-11.4h11.6H121L120.7,115.9z M150.9,126.3v11.4h-11.4h-11.4v-11.4v-11.4h11.4h11.4V126.3z M180.8,119l-0.1,4l-4.8,1.6c-5.3,1.7-11.2,4.7-14.9,7.5c-1.3,1-2.5,1.7-2.6,1.5c-0.1-0.2-0.3-4.4-0.3-9.5v-9.2h11.4H181L180.8,119z M203.6,130.8c20.5,5.2,34.9,23.7,34.9,44.8c0,21.7-15,40.3-36.4,45.3c-5.4,1.3-14.8,1.2-20.2-0.2c-14.1-3.5-25.7-12.9-31.7-25.9c-2.5-5.4-3.6-10.3-3.9-16.8c-0.3-6.9,0.3-11.2,2.4-17.5c3.6-10.5,11.5-19.9,21.3-25.3c5.5-3,11-4.7,18.7-5.7C191.7,129,199.4,129.8,203.6,130.8z M60.4,156.4l0.1,11.3H49H37.6v-11.4v-11.4l11.3,0.1l11.3,0.1L60.4,156.4z M90.5,156.3v11.4H79H67.6v-11.1c0-6.1,0.1-11.3,0.3-11.4c0.1-0.2,5.3-0.3,11.4-0.3h11.1V156.3z M120.4,156.3v11.4h-11.2H98.1v-11.4v-11.4h11.2h11.2V156.3z M147.6,145.3c0,0.3-0.8,1.8-1.7,3.4c-2.4,4.1-4.4,9.1-5.6,14.3l-1.1,4.5l-5.6,0.1l-5.5,0.1v-11.1c0-6.1,0.1-11.3,0.3-11.4C128.9,144.7,147.6,144.8,147.6,145.3z M60.5,186.5v11.2H49H37.6v-11.2v-11.2H49h11.4V186.5z M90.5,186.5v11.2H79H67.6v-11.2v-11.2H79h11.4V186.5z M120.4,185.7c0,5.8,0.1,10.8,0.3,11.2c0.3,0.7-0.9,0.8-11.3,0.8H97.8l0.1-11.2l0.1-11.2h11.1h11.2V185.7z M138.5,177.1c0,5,2.2,14.7,4.5,19.8c0.4,0.8-0.1,0.9-7.3,0.9h-7.7v-11.2v-11.2h5.2h5.2V177.1z"/><path fill="#000000" d="M192,147.9c-0.8,0.4-1.6,1-1.8,1.5c-0.1,0.4-0.3,6.5-0.3,13.4v12.6l-1.3,1.7l-1.3,1.6h-9.7c-9.6,0-9.7,0-10.8,1.2c-1.2,1.2-1.5,3-0.7,4.5c0.9,1.6,3.1,1.9,13.2,1.9c9.2,0,9.8,0,11.1,1c2,1.6,5.5,1.7,7.8,0.3c4.5-2.7,4.9-9.8,0.5-12.3l-1.5-0.9v-12.4c0-11.5-0.1-12.5-0.9-13.3C195,147.4,193.7,147.2,192,147.9z"/></g></g></g>
</svg>