<?xml version="1.0" standalone="no"?>
<!DOCTYPE svg PUBLIC "-//W3C//DTD SVG 20010904//EN"
 "http://www.w3.org/TR/2001/REC-SVG-20010904/DTD/svg10.dtd">
<svg version="1.0" xmlns="http://www.w3.org/2000/svg"
 width="457.000000pt" height="205.000000pt" viewBox="0 0 457.000000 205.000000"
 preserveAspectRatio="xMidYMid meet">

<g transform="translate(0.000000,205.000000) scale(0.100000,-0.100000)"
fill="#000000" stroke="none">
<path d="M1252 1960 c-188 -41 -307 -72 -313 -81 -13 -21 -12 -36 26 -211 21
-96 33 -174 30 -190 -5 -21 -28 -42 -96 -88 -50 -33 -96 -60 -102 -60 -7 0
-39 39 -71 86 -33 47 -71 94 -84 105 -21 16 -22 20 -8 25 21 8 46 56 46 88 0
14 5 28 10 31 13 8 13 61 0 85 -20 38 -126 53 -167 25 -34 -24 -45 -79 -27
-129 29 -77 30 -73 -26 -86 -102 -24 -148 -86 -265 -355 -43 -99 -83 -193 -90
-209 -16 -36 -10 -60 21 -76 20 -11 27 -11 41 2 10 8 26 18 36 21 16 6 17 -7
17 -186 0 -106 -5 -212 -11 -236 -5 -24 -35 -98 -66 -165 -31 -66 -56 -128
-57 -136 -1 -8 -16 -30 -34 -49 -17 -18 -32 -40 -32 -48 0 -17 99 -63 151 -70
52 -7 57 11 19 64 -32 44 -32 44 -13 66 11 12 54 79 96 149 78 128 99 184 112
294 4 33 10 65 14 71 4 7 21 -35 38 -95 24 -82 34 -143 43 -262 7 -85 17 -160
22 -167 7 -8 4 -27 -7 -58 -25 -64 -13 -75 80 -75 41 0 80 3 89 6 30 12 17 42
-29 70 -43 25 -56 46 -35 59 6 4 10 74 10 176 0 149 -5 198 -35 380 -20 116
-33 214 -30 220 4 5 10 51 15 102 11 105 36 218 54 243 11 14 16 10 45 -35 26
-40 42 -53 73 -63 37 -11 45 -10 92 15 28 15 84 52 124 82 40 30 75 55 77 55
2 0 6 -19 10 -42 4 -24 10 -48 14 -54 4 -7 46 -2 135 18 71 16 131 26 134 23
3 -3 -2 -13 -11 -23 -40 -43 -2 -122 58 -122 42 0 73 26 81 68 6 28 2 37 -29
66 l-35 33 154 33 c85 18 154 35 154 39 0 3 -14 70 -32 149 -17 78 -28 145
-24 149 3 4 20 -1 35 -10 39 -23 72 -21 99 3 31 29 38 65 18 95 -36 54 -105
57 -135 4 -15 -26 -41 -40 -41 -21 -1 14 -58 263 -62 266 -1 2 -140 -27 -306
-64z m-594 -357 c-11 -33 -18 -38 -46 -41 -37 -4 -72 20 -72 48 0 9 -5 21 -12
28 -6 6 -8 15 -4 19 4 4 12 1 17 -7 8 -11 12 -12 16 -2 2 6 17 12 31 12 15 0
34 4 42 9 10 7 18 4 27 -9 11 -15 11 -26 1 -57z m-83 -55 c28 -12 28 -31 1
-36 -20 -4 -46 15 -46 34 0 17 11 18 45 2z m450 -145 c3 -13 3 -23 -2 -23 -13
0 -34 40 -27 51 8 13 20 1 29 -28z m-839 -406 c7 -20 -13 -67 -30 -67 -26 0
-40 28 -28 55 12 27 49 34 58 12z m44 -19 c0 -16 -3 -19 -11 -11 -6 6 -8 16
-5 22 11 17 16 13 16 -11z m210 -37 l95 -6 32 -185 c28 -162 32 -208 33 -372
l0 -188 -39 0 c-46 0 -43 -12 -61 209 -8 93 -20 154 -46 240 -30 97 -54 154
-54 129 0 -38 -44 -277 -55 -299 -14 -27 -154 -260 -160 -267 -2 -2 -19 4 -39
12 l-35 15 50 107 c81 171 79 160 79 414 0 124 3 229 6 232 3 4 27 -3 52 -15
32 -14 78 -22 142 -26z m-280 -761 c0 -6 -6 -10 -12 -10 -22 0 -41 17 -34 29
8 13 46 -3 46 -19z m428 -22 c-7 -20 -48 -23 -48 -4 0 11 9 16 26 16 16 0 24
-5 22 -12z"/>
<path d="M2384 1927 c-2 -7 -3 -76 -2 -152 3 -132 4 -140 23 -143 12 -2 31 8
45 23 13 14 34 25 47 25 30 0 63 -33 63 -63 0 -54 -78 -80 -112 -38 -11 14
-26 21 -40 19 -23 -3 -23 -5 -26 -155 l-3 -153 -154 0 c-94 0 -156 -4 -160
-10 -4 -6 5 -24 19 -41 31 -37 33 -62 6 -89 -28 -28 -64 -25 -89 7 -24 29 -20
58 10 85 10 9 19 23 19 32 0 14 -19 16 -145 16 l-145 0 0 -305 0 -305 140 0
c121 0 142 2 147 16 3 9 2 22 -3 29 -45 60 -47 66 -36 91 7 13 23 30 37 36 22
10 30 8 53 -9 37 -27 40 -66 8 -97 -29 -27 -33 -51 -10 -60 9 -3 81 -6 160 -6
l144 0 0 -149 c0 -163 7 -182 51 -135 42 44 109 21 109 -38 0 -52 -69 -77
-105 -38 -10 11 -26 20 -37 20 -17 0 -18 -11 -18 -150 l0 -150 608 0 c575 0
610 1 625 18 15 16 17 70 20 488 2 258 7 482 11 497 6 19 4 37 -4 53 -8 13
-11 26 -8 29 3 3 65 -8 138 -25 73 -17 137 -29 143 -27 6 2 16 26 22 53 l10
49 88 -2 88 -2 0 -278 c-1 -153 -4 -376 -8 -496 -5 -169 -3 -221 6 -227 9 -5
-4 -19 -39 -45 -38 -28 -50 -43 -48 -59 3 -20 9 -21 103 -21 l100 0 3 37 c2
20 -2 46 -8 57 -7 14 -7 26 0 38 8 15 70 527 70 581 0 51 17 -29 60 -289 27
-162 54 -295 60 -297 5 -2 -15 -24 -46 -49 -82 -67 -74 -78 56 -78 l105 0 -2
40 c-1 22 -5 78 -8 125 -19 286 -43 800 -39 817 3 11 0 47 -6 79 -6 32 -15
121 -20 196 -6 119 -11 145 -34 193 -15 30 -47 72 -72 93 -50 44 -55 69 -23
113 11 16 23 44 26 63 11 70 -38 107 -142 104 -40 -1 -70 -7 -77 -15 -14 -17
-14 -63 1 -72 10 -7 8 -41 -3 -59 -3 -5 -1 -25 5 -45 7 -26 17 -39 34 -43 14
-3 25 -9 25 -13 0 -7 -147 -71 -161 -71 -3 0 1 30 9 66 14 62 13 67 -4 84 -13
12 -114 40 -305 84 -158 36 -293 66 -300 66 -10 0 -24 -43 -46 -138 -27 -117
-29 -139 -18 -151 12 -13 19 -12 48 4 59 32 117 -3 103 -61 -13 -51 -96 -57
-118 -9 -12 27 -37 40 -51 26 -7 -7 -75 -275 -77 -303 0 -4 16 -10 35 -14 40
-7 46 -31 17 -57 -25 -23 -58 -21 -82 3 -27 27 -25 59 6 91 14 15 23 32 20 38
-5 7 -57 11 -147 11 l-139 0 0 150 c0 83 4 150 8 150 5 0 19 -11 32 -25 68
-73 174 28 111 106 -25 31 -82 31 -114 1 -13 -12 -26 -22 -30 -22 -3 0 -8 64
-9 143 l-3 142 -298 3 c-238 2 -299 0 -303 -11z m1361 -161 c153 -36 283 -70
288 -75 8 -8 6 -33 -4 -83 -12 -63 -18 -73 -37 -76 -29 -4 -172 86 -172 109 0
24 -68 22 -81 -2 -11 -21 -4 -59 11 -59 4 0 36 -29 71 -65 35 -37 84 -75 111
-88 26 -12 47 -25 48 -28 0 -13 -69 -302 -75 -307 -3 -3 -68 9 -145 27 -77 18
-144 30 -150 26 -15 -9 -12 -31 5 -45 20 -16 19 -64 -1 -84 -35 -36 -104 -7
-104 42 0 28 26 62 47 62 9 0 13 8 11 22 -3 20 -17 26 -133 52 -71 16 -132 30
-133 32 -2 1 11 66 29 143 22 94 37 141 46 141 7 0 13 -6 13 -14 0 -20 48 -56
75 -56 12 0 34 9 49 21 20 16 26 29 26 59 0 30 -6 43 -26 59 -32 25 -57 26
-95 4 -15 -9 -31 -14 -34 -11 -3 3 6 56 20 119 33 142 32 139 48 139 7 0 138
-29 292 -64z m479 -51 c8 -19 8 -19 17 3 10 27 33 30 26 2 -3 -10 1 -24 9 -31
18 -15 18 -63 -1 -79 -17 -14 -55 -4 -55 16 0 8 -8 14 -19 14 -10 0 -24 7 -31
15 -14 16 -17 96 -5 115 8 13 47 -24 59 -55z m-430 -94 c19 -21 14 -41 -8 -41
-20 0 -39 27 -32 45 7 20 19 19 40 -4z m310 -213 c21 -81 -10 -128 -86 -128
-42 0 -49 2 -44 18 3 9 10 36 15 60 5 24 11 45 13 48 3 3 66 19 89 23 4 1 9
-9 13 -21z m-2094 -134 c0 -3 -9 -17 -20 -31 -34 -44 -25 -95 21 -119 77 -39
150 56 91 119 -12 13 -22 26 -22 30 0 4 68 7 150 7 l150 0 0 -125 c0 -69 -3
-125 -6 -125 -3 0 -19 11 -36 25 -37 32 -72 32 -103 0 -33 -32 -33 -78 0 -110
31 -32 66 -32 103 0 17 14 33 25 36 25 3 0 6 -61 6 -135 l0 -135 -150 0 c-138
0 -171 6 -139 26 22 14 37 66 27 96 -28 79 -148 55 -148 -29 0 -23 8 -41 25
-57 13 -13 22 -26 18 -29 -3 -4 -64 -7 -135 -7 l-128 0 0 283 c0 156 3 287 7
290 8 9 253 9 253 1z m640 -7 c0 -8 -9 -22 -20 -32 -13 -12 -20 -31 -20 -56 0
-72 86 -103 133 -48 23 29 22 81 -3 104 -43 39 -28 45 105 45 l125 0 0 -124
c0 -95 3 -126 14 -136 12 -9 19 -6 37 14 29 34 81 36 103 4 21 -30 20 -54 -4
-78 -28 -28 -71 -26 -99 6 -18 20 -25 23 -37 14 -11 -10 -14 -42 -14 -146 l0
-134 -125 0 c-77 0 -125 4 -125 10 0 6 9 19 20 30 46 46 9 130 -57 130 -43 0
-73 -30 -73 -74 0 -18 9 -45 20 -59 11 -14 20 -28 20 -31 0 -3 -56 -6 -125 -6
l-125 0 0 134 c0 105 -3 136 -15 146 -16 13 -33 6 -53 -22 -15 -21 -60 -24
-87 -4 -25 18 -25 74 0 92 27 20 72 17 87 -4 20 -28 37 -35 53 -22 12 10 15
40 15 136 l0 124 125 0 c98 0 125 -3 125 -13z m1556 -234 c53 -24 70 -27 160
-25 l100 2 17 -343 c10 -188 20 -372 24 -409 l6 -68 -45 0 -45 0 -52 317 c-52
318 -64 373 -74 343 -3 -8 -19 -148 -37 -310 -40 -384 -32 -350 -86 -350 l-44
0 0 248 c0 223 10 622 15 622 2 0 29 -12 61 -27z m-868 -195 c19 -16 15 -73
-8 -93 -12 -11 -20 -28 -18 -39 3 -20 10 -21 156 -24 l152 -3 0 -290 c0 -181
-4 -298 -10 -310 -10 -18 -24 -19 -315 -19 l-305 0 0 135 c0 74 3 135 6 135 4
0 17 -11 30 -25 65 -70 174 23 119 102 -28 40 -104 38 -128 -3 -21 -36 -27 -5
-27 131 l0 145 88 2 c48 1 109 3 136 3 64 0 83 24 43 55 -27 21 -36 62 -19 86
21 32 68 37 100 12z m872 -678 c0 -5 -13 -10 -30 -10 -16 0 -30 5 -30 10 0 6
14 10 30 10 17 0 30 -4 30 -10z m290 0 c0 -5 -11 -10 -24 -10 -14 0 -28 5 -31
10 -4 6 7 10 24 10 17 0 31 -4 31 -10z"/>
</g>
</svg>
